STARTFONT 2.1
COMMENT $Xorg: $
COMMENT ISO10646-1 extension by Markus Kuhn <mkuhn@acm.org>, 2001-03-20
COMMENT  (c) Copyright Bigelow & Holmes 1986, 1985. Lucida is a registered
COMMENT  trademark of Bigelow & Holmes. See LEGAL NOTICE file for terms 
COMMENT  of the license. 
FONT -B&H-LucidaBright-Medium-I-Normal--25-180-100-100-P-142-ISO10646-1
SIZE 18 100 100
FONTBOUNDINGBOX 42 39 -14 -11
STARTPROPERTIES 22
COMMENT Begin LogicalFontDescription
FONTNAME_REGISTRY ""
FOUNDRY "B&H"
FAMILY_NAME "LucidaBright"
WEIGHT_NAME "Medium"
SLANT "I"
SETWIDTH_NAME "Normal"
ADD_STYLE_NAME ""
PIXEL_SIZE 25
POINT_SIZE 180
RESOLUTION_X 100
RESOLUTION_Y 100
SPACING "P"
AVERAGE_WIDTH 142
CHARSET_REGISTRY "ISO10646"
CHARSET_ENCODING "1"
COMMENT END LogicalFontDescription
FONT_ASCENT 23
FONT_DESCENT 6
DEFAULT_CHAR 0
COPYRIGHT "Copyright Bigelow & Holmes 1986, 1985."
FACE_NAME "Lucida Bright Italic"
X_HEIGHT 13
CAP_HEIGHT 18
ENDPROPERTIES
CHARS 723
STARTCHAR char0
ENCODING 0
SWIDTH 776 0
DWIDTH 19 0
BBX 21 17 0 0
BITMAP
AAAAA8
000000
800008
000000
800008
000000
800008
000000
800008
000000
800008
000000
800008
000000
800008
000000
AAAAA8
ENDCHAR
STARTCHAR space
ENCODING 32
SWIDTH 333 0
DWIDTH 7 0
BBX 1 1 0 0
BITMAP
00
ENDCHAR
STARTCHAR exclam
ENCODING 33
SWIDTH 265 0
DWIDTH 7 0
BBX 6 18 2 0
BITMAP
1C
1C
18
18
18
18
10
30
30
30
20
20
20
00
00
00
E0
E0
ENDCHAR
STARTCHAR quotedbl
ENCODING 34
SWIDTH 377 0
DWIDTH 9 0
BBX 6 5 5 13
BITMAP
CC
CC
CC
44
44
ENDCHAR
STARTCHAR numbersign
ENCODING 35
SWIDTH 608 0
DWIDTH 15 0
BBX 15 18 2 0
BITMAP
00C6
0084
008C
0188
0118
0310
7FFE
0620
0420
0C60
0840
08C0
FFFC
1180
2100
2300
4200
C600
ENDCHAR
STARTCHAR dollar
ENCODING 36
SWIDTH 608 0
DWIDTH 15 0
BBX 11 21 4 -2
BITMAP
0100
0FC0
1A60
3260
3260
3200
3400
3400
1C00
0E00
0700
0B80
0980
0980
0980
4980
C980
CB00
FC00
1000
1000
ENDCHAR
STARTCHAR percent
ENCODING 37
SWIDTH 759 0
DWIDTH 19 0
BBX 17 18 3 0
BITMAP
0E0180
190300
318200
218400
618800
611800
633000
326000
1CC000
019E00
013300
026300
046300
0C6300
186300
306200
606600
C03C00
ENDCHAR
STARTCHAR ampersand
ENCODING 38
SWIDTH 727 0
DWIDTH 18 0
BBX 18 18 2 0
BITMAP
00F800
019C00
030C00
030C00
030C00
031800
033000
03C000
1F8000
318FC0
61C300
E1C200
E0E600
E06400
E07800
603000
707800
1F9F00
ENDCHAR
STARTCHAR quotesingle
ENCODING 39
SWIDTH 231 0
DWIDTH 6 0
BBX 3 6 4 12
BITMAP
E0
E0
E0
40
40
40
ENDCHAR
STARTCHAR parenleft
ENCODING 40
SWIDTH 310 0
DWIDTH 8 0
BBX 8 22 2 -4
BITMAP
01
02
04
08
18
10
30
70
60
60
E0
E0
C0
C0
C0
C0
C0
40
40
40
20
10
ENDCHAR
STARTCHAR parenright
ENCODING 41
SWIDTH 310 0
DWIDTH 8 0
BBX 8 22 0 -4
BITMAP
0C
04
02
02
03
03
03
03
03
03
03
07
07
06
06
0C
0C
18
10
20
40
80
ENDCHAR
STARTCHAR asterisk
ENCODING 42
SWIDTH 458 0
DWIDTH 11 0
BBX 9 9 4 9
BITMAP
0C00
0C00
4800
EB80
3600
1800
2400
E600
4400
ENDCHAR
STARTCHAR plus
ENCODING 43
SWIDTH 608 0
DWIDTH 15 0
BBX 15 15 2 0
BITMAP
0080
0080
0080
0180
0180
0100
0100
FFFE
0300
0300
0200
0200
0200
0200
0600
ENDCHAR
STARTCHAR comma
ENCODING 44
SWIDTH 265 0
DWIDTH 7 0
BBX 4 8 1 -5
BITMAP
70
70
70
20
20
60
60
C0
ENDCHAR
STARTCHAR hyphen
ENCODING 45
SWIDTH 313 0
DWIDTH 8 0
BBX 6 2 2 7
BITMAP
FC
FC
ENDCHAR
STARTCHAR period
ENCODING 46
SWIDTH 265 0
DWIDTH 7 0
BBX 4 3 2 0
BITMAP
70
F0
E0
ENDCHAR
STARTCHAR slash
ENCODING 47
SWIDTH 458 0
DWIDTH 11 0
BBX 16 22 0 -4
BITMAP
0003
0006
0004
000C
0018
0010
0030
0060
0040
00C0
0080
0100
0300
0200
0600
0C00
0800
1800
3000
2000
6000
C000
ENDCHAR
STARTCHAR zero
ENCODING 48
SWIDTH 608 0
DWIDTH 15 0
BBX 13 18 3 0
BITMAP
03E0
0E30
1C38
1818
3018
7018
6018
6018
E018
E018
E038
E030
E030
C060
E060
60C0
7180
1E00
ENDCHAR
STARTCHAR one
ENCODING 49
SWIDTH 608 0
DWIDTH 15 0
BBX 9 18 3 0
BITMAP
1F80
0380
0380
0300
0300
0300
0700
0700
0600
0600
0600
0E00
0E00
0C00
0C00
0C00
1C00
FF80
ENDCHAR
STARTCHAR two
ENCODING 50
SWIDTH 608 0
DWIDTH 15 0
BBX 14 18 2 0
BITMAP
03F0
0C38
081C
181C
001C
001C
0018
0030
0060
00C0
0300
0600
0800
1000
2000
6000
FFE0
FFE0
ENDCHAR
STARTCHAR three
ENCODING 51
SWIDTH 608 0
DWIDTH 15 0
BBX 13 18 3 0
BITMAP
0FC0
0870
1838
1838
0038
0030
0070
00C0
1F00
00C0
0060
0060
0070
0060
4060
C0C0
C180
FE00
ENDCHAR
STARTCHAR four
ENCODING 52
SWIDTH 608 0
DWIDTH 15 0
BBX 13 18 2 0
BITMAP
0018
0030
0070
00B0
0130
0230
0460
0860
1060
2060
40E0
FFF8
FFF8
00C0
00C0
01C0
01C0
07F0
ENDCHAR
STARTCHAR five
ENCODING 53
SWIDTH 608 0
DWIDTH 15 0
BBX 13 18 3 0
BITMAP
0FF8
0FF8
1000
1000
1000
1000
3F00
01C0
00E0
0060
0060
0060
0060
0060
40C0
C1C0
C380
FE00
ENDCHAR
STARTCHAR six
ENCODING 54
SWIDTH 608 0
DWIDTH 15 0
BBX 14 18 3 0
BITMAP
01F8
061C
0C08
1800
3800
3000
77C0
6860
F070
E030
E030
C030
C030
C070
E060
60C0
7180
1F00
ENDCHAR
STARTCHAR seven
ENCODING 55
SWIDTH 608 0
DWIDTH 15 0
BBX 14 18 4 0
BITMAP
3FFC
3FFC
0008
0010
0020
0040
0080
0100
0300
0600
0400
0C00
1800
3000
7000
6000
E000
E000
ENDCHAR
STARTCHAR eight
ENCODING 56
SWIDTH 608 0
DWIDTH 15 0
BBX 12 18 3 0
BITMAP
03C0
0C70
1830
1830
3830
3830
1C60
1FC0
0F80
13C0
61E0
60E0
C060
C060
C0E0
E0C0
6180
3F00
ENDCHAR
STARTCHAR nine
ENCODING 57
SWIDTH 608 0
DWIDTH 15 0
BBX 14 18 3 0
BITMAP
03E0
0C30
1838
1818
3018
3018
701C
7018
7038
3038
3878
1FB0
0070
0060
00E0
C0C0
C380
7E00
ENDCHAR
STARTCHAR colon
ENCODING 58
SWIDTH 265 0
DWIDTH 7 0
BBX 6 13 2 0
BITMAP
1C
3C
38
00
00
00
00
00
00
00
70
F0
E0
ENDCHAR
STARTCHAR semicolon
ENCODING 59
SWIDTH 265 0
DWIDTH 7 0
BBX 6 18 1 -5
BITMAP
1C
1C
1C
00
00
00
00
00
00
00
00
70
70
30
20
60
60
C0
ENDCHAR
STARTCHAR less
ENCODING 60
SWIDTH 608 0
DWIDTH 15 0
BBX 16 15 2 0
BITMAP
0001
0007
001C
0060
0380
0E00
3800
E000
3800
0C00
0700
01C0
0070
0018
0008
ENDCHAR
STARTCHAR equal
ENCODING 61
SWIDTH 608 0
DWIDTH 15 0
BBX 16 6 1 4
BITMAP
7FFF
0000
0000
0000
0000
FFFE
ENDCHAR
STARTCHAR greater
ENCODING 62
SWIDTH 608 0
DWIDTH 15 0
BBX 16 15 0 0
BITMAP
1000
1800
0E00
0380
00E0
0030
001C
0007
001C
0070
01C0
0600
1800
E000
8000
ENDCHAR
STARTCHAR question
ENCODING 63
SWIDTH 471 0
DWIDTH 12 0
BBX 10 18 4 0
BITMAP
3F00
6380
41C0
C1C0
01C0
0180
0300
0600
0C00
1800
3000
3000
6000
0000
0000
0000
E000
E000
ENDCHAR
STARTCHAR at
ENCODING 64
SWIDTH 861 0
DWIDTH 22 0
BBX 19 18 3 0
BITMAP
00FC00
030300
0C00C0
180040
207C20
208C20
410C20
820C20
860820
861820
862820
863840
865880
838F00
400000
200000
181000
07E000
ENDCHAR
STARTCHAR A
ENCODING 65
SWIDTH 747 0
DWIDTH 19 0
BBX 19 18 0 0
BITMAP
000C00
000C00
001C00
003E00
002E00
004E00
00CE00
008600
010600
010700
020700
07FF00
040300
080300
100380
100380
200380
F80FE0
ENDCHAR
STARTCHAR B
ENCODING 66
SWIDTH 606 0
DWIDTH 15 0
BBX 15 18 1 0
BITMAP
1FF8
071C
070E
060E
060E
060C
0E1C
0E38
0FE0
0C30
0C18
1C1C
1C1C
1C1C
181C
1838
3870
FFE0
ENDCHAR
STARTCHAR C
ENCODING 67
SWIDTH 714 0
DWIDTH 18 0
BBX 17 18 3 0
BITMAP
00FF80
038380
0E0180
1C0100
380000
300000
700000
700000
E00000
E00000
E00000
E00000
E00000
E00000
600000
700000
3C0C00
0FF000
ENDCHAR
STARTCHAR D
ENCODING 68
SWIDTH 770 0
DWIDTH 19 0
BBX 19 18 1 0
BITMAP
1FFE00
070780
0701C0
0700C0
0600E0
0600E0
0E00E0
0E00E0
0E00E0
0C00E0
0C00C0
1C01C0
1C01C0
1C0380
180700
180E00
383C00
FFF000
ENDCHAR
STARTCHAR E
ENCODING 69
SWIDTH 569 0
DWIDTH 14 0
BBX 16 18 1 0
BITMAP
1FFF
0703
0702
0700
0700
0600
0608
0E08
0FF8
0E18
0C10
0C00
1C00
1C00
1C00
180C
3808
FFF8
ENDCHAR
STARTCHAR F
ENCODING 70
SWIDTH 551 0
DWIDTH 14 0
BBX 16 18 1 0
BITMAP
1FFF
0703
0702
0700
0700
0600
0608
0E08
0FF8
0E18
0C10
0C00
1C00
1C00
1C00
1800
3C00
FF00
ENDCHAR
STARTCHAR G
ENCODING 71
SWIDTH 756 0
DWIDTH 19 0
BBX 17 18 3 0
BITMAP
00FF00
038380
0E0100
1C0100
380000
300000
700000
700000
E00000
E00000
E03F80
E00E00
E00C00
E00C00
601C00
701C00
381C00
0FE000
ENDCHAR
STARTCHAR H
ENCODING 72
SWIDTH 776 0
DWIDTH 19 0
BBX 22 18 0 0
BITMAP
1FE1FC
078070
070060
0700E0
0700E0
0600E0
0600C0
0E00C0
0FFFC0
0E01C0
0C01C0
0C0180
1C0180
1C0380
1C0380
180380
380780
FE1FE0
ENDCHAR
STARTCHAR I
ENCODING 73
SWIDTH 325 0
DWIDTH 8 0
BBX 11 18 0 0
BITMAP
0FE0
0380
0300
0700
0700
0700
0600
0600
0E00
0E00
0C00
0C00
1C00
1C00
1C00
1800
3800
FE00
ENDCHAR
STARTCHAR J
ENCODING 74
SWIDTH 422 0
DWIDTH 11 0
BBX 14 22 0 -4
BITMAP
01FC
0070
0060
0060
00E0
00E0
00E0
00C0
00C0
01C0
01C0
01C0
0180
0180
0380
0380
0380
0300
4300
C600
C600
F800
ENDCHAR
STARTCHAR K
ENCODING 75
SWIDTH 698 0
DWIDTH 17 0
BBX 19 18 1 0
BITMAP
1FE3E0
078180
070300
070600
070800
061000
066000
0EC000
0F8000
0FC000
0CE000
0CE000
1C7000
1C3800
1C1C00
181C00
380E00
FE3F80
ENDCHAR
STARTCHAR L
ENCODING 76
SWIDTH 572 0
DWIDTH 14 0
BBX 14 18 1 0
BITMAP
1FE0
0780
0700
0700
0700
0600
0600
0E00
0E00
0E00
0C00
0C00
1C00
1C00
1C04
180C
380C
FFF8
ENDCHAR
STARTCHAR M
ENCODING 77
SWIDTH 865 0
DWIDTH 22 0
BBX 24 18 1 0
BITMAP
0F001F
07803C
078038
078058
0580F8
05C0B8
05C130
0CC130
0CC230
08E470
08E470
086860
187860
187060
1060E0
1020E0
3000E0
FC03F8
ENDCHAR
STARTCHAR N
ENCODING 78
SWIDTH 762 0
DWIDTH 19 0
BBX 22 18 1 0
BITMAP
1F00FC
070030
078020
078020
05C060
04C040
04E040
0C7040
087040
083880
083880
081C80
180C80
100E80
100700
100700
300300
FC0100
ENDCHAR
STARTCHAR O
ENCODING 79
SWIDTH 783 0
DWIDTH 20 0
BBX 18 18 3 0
BITMAP
00FC00
030700
0E0380
1C0380
380180
3001C0
7001C0
6001C0
E00180
E00180
E00380
E00300
E00700
E00600
600C00
701800
387000
0FC000
ENDCHAR
STARTCHAR P
ENCODING 80
SWIDTH 579 0
DWIDTH 14 0
BBX 16 18 1 0
BITMAP
1FFC
070E
0707
0707
0707
0607
0606
0E0E
0E1C
0E38
0FE0
0C00
1C00
1C00
1C00
1800
3800
FF00
ENDCHAR
STARTCHAR Q
ENCODING 81
SWIDTH 788 0
DWIDTH 20 0
BBX 20 23 3 -5
BITMAP
00FC00
030600
0E0300
1C0380
380180
300180
7001C0
600180
E00180
E00380
E00380
E00380
E00700
E00700
600E00
701C00
387800
0FE000
004000
006000
001800
000FF0
0003E0
ENDCHAR
STARTCHAR R
ENCODING 82
SWIDTH 686 0
DWIDTH 17 0
BBX 17 18 0 0
BITMAP
0FFE00
030F00
030700
070300
070300
070300
060600
060C00
0E1800
0FE000
0E7000
0C3000
1C3800
1C1800
1C1C00
180C00
380E00
FF0780
ENDCHAR
STARTCHAR S
ENCODING 83
SWIDTH 549 0
DWIDTH 14 0
BBX 14 18 2 0
BITMAP
03F0
061C
0C0C
1C0C
1C08
1C00
1E00
0F00
0780
03E0
00E0
0070
0070
4070
C070
C060
E0C0
3F00
ENDCHAR
STARTCHAR T
ENCODING 84
SWIDTH 663 0
DWIDTH 17 0
BBX 16 18 4 0
BITMAP
7FFF
C183
8182
0380
0380
0300
0300
0300
0700
0700
0600
0600
0600
0E00
0E00
0E00
1E00
7F80
ENDCHAR
STARTCHAR U
ENCODING 85
SWIDTH 727 0
DWIDTH 18 0
BBX 18 18 4 0
BITMAP
FE0FC0
380300
380200
300200
300200
700600
700400
700400
600400
600C00
E00800
E00800
E00800
C01800
E01000
603000
706000
1F8000
ENDCHAR
STARTCHAR V
ENCODING 86
SWIDTH 656 0
DWIDTH 16 0
BBX 18 18 3 0
BITMAP
FE07C0
700100
300300
380200
380400
380400
180800
181800
1C1000
1C2000
1C6000
0C4000
0C8000
0C8000
0F0000
0F0000
060000
040000
ENDCHAR
STARTCHAR W
ENCODING 87
SWIDTH 878 0
DWIDTH 22 0
BBX 23 18 3 0
BITMAP
FC183E
701808
303818
303810
305820
305820
309840
309840
311880
311880
3A1900
3A1900
3C1E00
3C1E00
381C00
381C00
301800
300800
ENDCHAR
STARTCHAR X
ENCODING 88
SWIDTH 624 0
DWIDTH 16 0
BBX 20 18 0 0
BITMAP
0FE1F0
0380C0
038080
01C100
01C200
00C400
00E800
007000
007000
007000
00B800
013800
021C00
041C00
080C00
100E00
300F00
F83F80
ENDCHAR
STARTCHAR Y
ENCODING 89
SWIDTH 663 0
DWIDTH 17 0
BBX 17 18 3 0
BITMAP
FE0F80
780200
380400
380800
1C1000
1C3000
0E6000
0E4000
068000
070000
070000
060000
060000
0E0000
0E0000
0E0000
1E0000
7F8000
ENDCHAR
STARTCHAR Z
ENCODING 90
SWIDTH 633 0
DWIDTH 16 0
BBX 16 18 1 0
BITMAP
0FFF
0C06
080E
181C
0038
0070
0060
00E0
01C0
0380
0700
0600
0E00
1C00
3800
700C
6018
FFF8
ENDCHAR
STARTCHAR bracketleft
ENCODING 91
SWIDTH 310 0
DWIDTH 8 0
BBX 9 22 1 -4
BITMAP
0F80
0C00
0C00
0C00
1C00
1800
1800
1800
1800
3000
3000
3000
3000
3000
6000
6000
6000
6000
6000
C000
C000
F800
ENDCHAR
STARTCHAR backslash
ENCODING 92
SWIDTH 458 0
DWIDTH 11 0
BBX 7 22 4 -4
BITMAP
C0
C0
40
40
60
60
20
20
30
30
10
10
18
18
08
08
0C
0C
04
04
06
06
ENDCHAR
STARTCHAR bracketright
ENCODING 93
SWIDTH 310 0
DWIDTH 8 0
BBX 9 22 1 -4
BITMAP
0F80
0180
0180
0300
0300
0300
0300
0700
0600
0600
0600
0600
0E00
0C00
0C00
0C00
0C00
1C00
1800
1800
1800
F800
ENDCHAR
STARTCHAR asciicircum
ENCODING 94
SWIDTH 608 0
DWIDTH 15 0
BBX 15 15 1 3
BITMAP
0020
0060
0060
00E0
01B0
0110
0210
0610
0408
0808
1808
3004
2004
6004
C002
ENDCHAR
STARTCHAR underscore
ENCODING 95
SWIDTH 500 0
DWIDTH 12 0
BBX 10 2 1 -2
BITMAP
FFC0
FFC0
ENDCHAR
STARTCHAR grave
ENCODING 96
SWIDTH 560 0
DWIDTH 14 0
BBX 4 4 8 14
BITMAP
E0
60
20
10
ENDCHAR
STARTCHAR a
ENCODING 97
SWIDTH 608 0
DWIDTH 15 0
BBX 13 13 2 0
BITMAP
03F8
0438
1830
1030
3030
6030
6070
E0E0
E160
E360
E660
FCE0
70F8
ENDCHAR
STARTCHAR b
ENCODING 98
SWIDTH 596 0
DWIDTH 15 0
BBX 13 18 2 0
BITMAP
7C00
1C00
1800
1800
1800
1870
39F8
3338
3638
3438
3838
7030
7030
6060
6060
60C0
E100
FE00
ENDCHAR
STARTCHAR c
ENCODING 99
SWIDTH 487 0
DWIDTH 12 0
BBX 11 13 2 0
BITMAP
07E0
0860
1020
3060
6000
6000
E000
E000
E000
E000
E000
6080
3F00
ENDCHAR
STARTCHAR d
ENCODING 100
SWIDTH 608 0
DWIDTH 15 0
BBX 15 18 2 0
BITMAP
003E
000E
000C
000C
001C
03FC
041C
0818
1018
3038
6038
6070
E070
E0F0
E170
E670
FC70
787C
ENDCHAR
STARTCHAR e
ENCODING 101
SWIDTH 518 0
DWIDTH 13 0
BBX 11 13 2 0
BITMAP
07C0
08E0
10E0
30E0
60C0
61C0
E300
FC00
E000
E000
E060
71C0
3F00
ENDCHAR
STARTCHAR f
ENCODING 102
SWIDTH 380 0
DWIDTH 9 0
BBX 12 24 2 -5
BITMAP
01F0
0230
0630
0420
0C00
0C00
3FC0
1C00
1800
1800
1800
3800
3800
3000
3000
3000
7000
7000
7000
6000
6000
E000
E000
E000
ENDCHAR
STARTCHAR g
ENCODING 103
SWIDTH 602 0
DWIDTH 15 0
BBX 14 18 1 -5
BITMAP
01FC
021C
0C1C
1818
1818
3038
3038
7078
70B0
71B0
7330
7E70
3860
0060
8060
C0C0
7080
7F00
ENDCHAR
STARTCHAR h
ENCODING 104
SWIDTH 631 0
DWIDTH 16 0
BBX 13 18 3 0
BITMAP
7C00
1C00
1C00
1800
1800
1870
39F8
3B38
3638
3430
3830
7030
7070
6070
6060
6060
E060
E0F8
ENDCHAR
STARTCHAR i
ENCODING 105
SWIDTH 289 0
DWIDTH 7 0
BBX 6 18 3 0
BITMAP
1C
1C
00
00
00
F8
38
38
30
30
30
70
60
60
60
60
E0
F8
ENDCHAR
STARTCHAR j
ENCODING 106
SWIDTH 343 0
DWIDTH 9 0
BBX 12 23 -1 -5
BITMAP
0070
0070
0000
0000
0000
03E0
00E0
00E0
00C0
00C0
00C0
01C0
01C0
0180
0180
0180
0380
0380
0300
4300
C600
C400
F800
ENDCHAR
STARTCHAR k
ENCODING 107
SWIDTH 560 0
DWIDTH 14 0
BBX 13 18 2 0
BITMAP
7C00
1C00
1C00
1C00
1800
1838
1830
3860
38C0
3100
3600
7E00
7700
6700
6380
61C0
E1E0
E0F8
ENDCHAR
STARTCHAR l
ENCODING 108
SWIDTH 289 0
DWIDTH 7 0
BBX 6 18 2 0
BITMAP
7C
1C
18
18
18
18
38
30
30
30
30
70
60
60
60
60
E0
F8
ENDCHAR
STARTCHAR m
ENCODING 109
SWIDTH 944 0
DWIDTH 24 0
BBX 21 13 3 0
BITMAP
F87070
39F1F8
3B3B38
363638
3C3C30
383830
707830
707070
607070
606060
606060
E0E060
E0E0F8
ENDCHAR
STARTCHAR n
ENCODING 110
SWIDTH 631 0
DWIDTH 16 0
BBX 13 13 3 0
BITMAP
F870
39F8
3338
3638
3430
3830
7030
7070
6070
6060
6060
E060
E0F8
ENDCHAR
STARTCHAR o
ENCODING 111
SWIDTH 560 0
DWIDTH 14 0
BBX 12 13 2 0
BITMAP
07C0
0C60
1870
3030
7030
6030
E070
E070
E060
E0E0
E0C0
F380
7E00
ENDCHAR
STARTCHAR p
ENCODING 112
SWIDTH 608 0
DWIDTH 15 0
BBX 14 18 2 -5
BITMAP
7C38
1CFC
199C
1B1C
1A1C
3C1C
3818
3018
3030
3020
7060
7080
7F00
6000
6000
E000
E000
E000
ENDCHAR
STARTCHAR q
ENCODING 113
SWIDTH 599 0
DWIDTH 15 0
BBX 13 18 2 -5
BITMAP
03F8
0438
1838
1030
3030
6030
6070
E0F0
E160
E360
E660
FCE0
70E0
00C0
00C0
00C0
01C0
01C0
ENDCHAR
STARTCHAR r
ENCODING 114
SWIDTH 470 0
DWIDTH 12 0
BBX 11 13 3 0
BITMAP
F860
39E0
33C0
3600
3C00
3800
7000
7000
6000
6000
6000
E000
E000
ENDCHAR
STARTCHAR s
ENCODING 115
SWIDTH 440 0
DWIDTH 11 0
BBX 10 13 1 0
BITMAP
07C0
1C40
1840
1840
1C00
1E00
0F00
0780
0380
C180
C180
C300
7E00
ENDCHAR
STARTCHAR t
ENCODING 116
SWIDTH 355 0
DWIDTH 9 0
BBX 8 17 3 0
BITMAP
08
18
38
38
FF
30
30
70
70
60
60
60
E0
E0
E0
E0
78
ENDCHAR
STARTCHAR u
ENCODING 117
SWIDTH 630 0
DWIDTH 16 0
BBX 13 13 3 0
BITMAP
F8F8
3038
3030
3030
7030
7070
6070
60E0
6160
E360
E660
FCE0
70F8
ENDCHAR
STARTCHAR v
ENCODING 118
SWIDTH 558 0
DWIDTH 14 0
BBX 14 13 1 0
BITMAP
F81C
380C
180C
1C0C
0C18
0C10
0C20
0E40
0EC0
0F80
0700
0600
0400
ENDCHAR
STARTCHAR w
ENCODING 119
SWIDTH 805 0
DWIDTH 20 0
BBX 20 13 2 0
BITMAP
F02070
383070
383060
187060
187840
1CB8C0
1C9980
0D1900
0F1A00
0E1E00
0C1C00
0C1800
081800
ENDCHAR
STARTCHAR x
ENCODING 120
SWIDTH 510 0
DWIDTH 13 0
BBX 13 13 1 0
BITMAP
7838
1C18
0C30
0E60
06C0
0700
0700
0F80
1180
21C0
60C0
C0E0
E078
ENDCHAR
STARTCHAR y
ENCODING 121
SWIDTH 558 0
DWIDTH 14 0
BBX 16 18 0 -5
BITMAP
7C0F
1C07
0E06
0606
060C
0608
0710
0730
0320
0340
0380
0300
0200
0600
0C00
1800
3000
F000
ENDCHAR
STARTCHAR z
ENCODING 122
SWIDTH 536 0
DWIDTH 13 0
BBX 13 13 1 0
BITMAP
1FF8
1030
3060
00C0
01C0
0380
0700
0E00
1C00
3800
3030
6020
FFE0
ENDCHAR
STARTCHAR braceleft
ENCODING 123
SWIDTH 337 0
DWIDTH 8 0
BBX 9 22 2 -4
BITMAP
0380
0E00
0C00
0C00
1C00
1C00
1C00
1800
1800
1800
1000
E000
2000
3000
3000
7000
6000
E000
C000
C000
C000
3000
ENDCHAR
STARTCHAR bar
ENCODING 124
SWIDTH 241 0
DWIDTH 6 0
BBX 6 22 2 -4
BITMAP
0C
0C
0C
08
18
18
18
18
10
30
30
30
30
20
60
60
60
60
40
C0
C0
C0
ENDCHAR
STARTCHAR braceright
ENCODING 125
SWIDTH 337 0
DWIDTH 8 0
BBX 9 22 2 -4
BITMAP
0E00
0300
0100
0300
0300
0700
0600
0600
0600
0600
0380
0400
0800
1800
1800
1800
1800
1800
1800
1800
3000
E000
ENDCHAR
STARTCHAR asciitilde
ENCODING 126
SWIDTH 608 0
DWIDTH 15 0
BBX 15 6 2 4
BITMAP
1C00
3E02
4704
83C4
80FC
8078
ENDCHAR
STARTCHAR space
ENCODING 160
SWIDTH 333 0
DWIDTH 7 0
BBX 1 1 0 0
BITMAP
00
ENDCHAR
STARTCHAR exclamdown
ENCODING 161
SWIDTH 265 0
DWIDTH 7 0
BBX 6 18 1 -5
BITMAP
1C
1C
00
00
00
10
10
10
30
30
30
20
60
60
60
E0
E0
E0
ENDCHAR
STARTCHAR cent
ENCODING 162
SWIDTH 608 0
DWIDTH 15 0
BBX 13 18 3 0
BITMAP
0080
0080
01F8
0E90
1890
3100
6100
6100
E100
C200
C200
C200
E200
7460
3F80
0400
0400
0400
ENDCHAR
STARTCHAR sterling
ENCODING 163
SWIDTH 608 0
DWIDTH 15 0
BBX 14 18 3 0
BITMAP
0078
018C
030C
030C
0600
0600
0600
0E00
3FC0
0C00
0C00
0C00
1C00
1800
1000
2000
FFE0
FFC0
ENDCHAR
STARTCHAR currency
ENCODING 164
SWIDTH 608 0
DWIDTH 15 0
BBX 17 16 1 1
BITMAP
100080
100100
09E200
0A1400
0C0800
080C00
180400
100400
100C00
100800
100800
081000
1C3000
37C800
400C00
800400
ENDCHAR
STARTCHAR yen
ENCODING 165
SWIDTH 608 0
DWIDTH 15 0
BBX 17 18 3 0
BITMAP
FC0F80
780200
380400
180800
1C1000
0C2000
0E4000
068000
070000
7FE000
060000
060000
7FE000
0E0000
0E0000
0C0000
1C0000
7F0000
ENDCHAR
STARTCHAR brokenbar
ENCODING 166
SWIDTH 241 0
DWIDTH 6 0
BBX 6 22 2 -4
BITMAP
0C
0C
08
08
18
18
18
10
10
30
00
00
30
20
20
60
60
60
40
40
C0
C0
ENDCHAR
STARTCHAR section
ENCODING 167
SWIDTH 608 0
DWIDTH 15 0
BBX 14 23 2 -5
BITMAP
01F8
060C
0C04
0C04
0C00
1C00
0E00
0780
0BE0
10F0
3038
3018
3810
1E30
0FA0
03C0
00E0
0070
0030
C070
C060
E1C0
7F00
ENDCHAR
STARTCHAR dieresis
ENCODING 168
SWIDTH 560 0
DWIDTH 14 0
BBX 7 2 7 16
BITMAP
C6
C6
ENDCHAR
STARTCHAR copyright
ENCODING 169
SWIDTH 843 0
DWIDTH 21 0
BBX 19 18 3 0
BITMAP
03F800
0E0600
180180
200080
40FC40
418420
830420
860020
860020
860020
860020
860020
430820
41F040
200080
180180
0E0600
03F800
ENDCHAR
STARTCHAR ordfeminine
ENCODING 170
SWIDTH 458 0
DWIDTH 10 0
BBX 10 10 3 8
BITMAP
0FC0
1180
2180
6180
4380
C780
C700
DB00
F300
63C0
ENDCHAR
STARTCHAR guillemotleft
ENCODING 171
SWIDTH 525 0
DWIDTH 13 0
BBX 12 11 2 1
BITMAP
0210
0420
1840
3180
6380
E700
6300
6180
3180
1080
0840
ENDCHAR
STARTCHAR logicalnot
ENCODING 172
SWIDTH 608 0
DWIDTH 15 0
BBX 15 6 2 4
BITMAP
FFFE
0006
0006
0004
0004
000C
ENDCHAR
STARTCHAR hyphen
ENCODING 173
SWIDTH 313 0
DWIDTH 8 0
BBX 6 2 2 7
BITMAP
FC
FC
ENDCHAR
STARTCHAR registered
ENCODING 174
SWIDTH 608 0
DWIDTH 15 0
BBX 12 11 4 7
BITMAP
1F00
20C0
4FE0
88A0
8890
8F10
8B10
99A0
4060
30C0
0F00
ENDCHAR
STARTCHAR macron
ENCODING 175
SWIDTH 560 0
DWIDTH 14 0
BBX 7 1 7 17
BITMAP
FE
ENDCHAR
STARTCHAR degree
ENCODING 176
SWIDTH 277 0
DWIDTH 7 0
BBX 4 4 5 14
BITMAP
70
90
90
70
ENDCHAR
STARTCHAR plusminus
ENCODING 177
SWIDTH 608 0
DWIDTH 15 0
BBX 16 15 0 0
BITMAP
0060
0060
0040
0040
0040
3FFF
0080
0080
0080
0080
0180
0180
0000
0000
FFFE
ENDCHAR
STARTCHAR twosuperior
ENCODING 178
SWIDTH 365 0
DWIDTH 9 0
BBX 8 11 -14 7
BITMAP
1E
23
23
03
02
04
18
20
40
40
FC
ENDCHAR
STARTCHAR threesuperior
ENCODING 179
SWIDTH 365 0
DWIDTH 9 0
BBX 8 11 -14 7
BITMAP
3E
22
23
02
06
38
04
06
86
8C
F8
ENDCHAR
STARTCHAR acute
ENCODING 180
SWIDTH 560 0
DWIDTH 14 0
BBX 6 4 9 14
BITMAP
1C
30
60
C0
ENDCHAR
STARTCHAR mu
ENCODING 181
SWIDTH 663 0
DWIDTH 17 0
BBX 14 17 2 -4
BITMAP
7C7C
181C
1818
1818
3818
3838
3038
3070
30F0
70B0
7330
7F70
6E7C
6000
E000
E000
C000
ENDCHAR
STARTCHAR paragraph
ENCODING 182
SWIDTH 608 0
DWIDTH 15 0
BBX 11 22 4 -4
BITMAP
3FE0
7E40
FE40
FE40
FC40
FC80
7C80
7C80
1C80
0880
0880
0900
0900
0900
1100
1100
1200
1200
1200
2200
2200
2400
ENDCHAR
STARTCHAR periodcentered
ENCODING 183
SWIDTH 608 0
DWIDTH 15 0
BBX 3 3 8 6
BITMAP
E0
E0
E0
ENDCHAR
STARTCHAR cedilla
ENCODING 184
SWIDTH 560 0
DWIDTH 14 0
BBX 4 5 4 -5
BITMAP
20
60
30
30
E0
ENDCHAR
STARTCHAR onesuperior
ENCODING 185
SWIDTH 365 0
DWIDTH 9 0
BBX 6 11 -14 7
BITMAP
3C
0C
08
08
08
18
18
10
10
30
FC
ENDCHAR
STARTCHAR ordmasculine
ENCODING 186
SWIDTH 458 0
DWIDTH 10 0
BBX 10 10 3 8
BITMAP
0F00
1180
21C0
60C0
4080
C180
C180
C300
E600
7800
ENDCHAR
STARTCHAR guillemotright
ENCODING 187
SWIDTH 525 0
DWIDTH 13 0
BBX 12 11 2 1
BITMAP
2100
1080
18C0
1860
0C60
0E70
1C60
18C0
2180
4200
8400
ENDCHAR
STARTCHAR onequarter
ENCODING 188
SWIDTH 766 0
DWIDTH 20 0
BBX 20 18 5 0
BITMAP
3C0030
0C0060
0800C0
080180
080300
180600
180C00
101820
1030E0
306140
FCC240
018440
0308C0
0608C0
0C1FE0
180080
300180
6003C0
ENDCHAR
STARTCHAR onehalf
ENCODING 189
SWIDTH 766 0
DWIDTH 20 0
BBX 20 18 5 0
BITMAP
3C0030
0C0060
0800C0
080180
080300
180600
180C00
101BC0
103460
306460
FCC060
018040
030080
060300
0C0400
180800
300800
601F80
ENDCHAR
STARTCHAR threequarters
ENCODING 190
SWIDTH 766 0
DWIDTH 20 0
BBX 20 18 5 0
BITMAP
3E0030
220060
2300C0
020180
060300
380600
040C00
061820
8630E0
8C6140
F8C240
018440
0308C0
0608C0
0C1FE0
180080
300180
6003C0
ENDCHAR
STARTCHAR questiondown
ENCODING 191
SWIDTH 471 0
DWIDTH 12 0
BBX 10 18 1 -5
BITMAP
01C0
01C0
0000
0000
0000
0380
0300
0300
0600
0C00
1800
3000
6000
E000
E0C0
E080
7180
3F00
ENDCHAR
STARTCHAR Agrave
ENCODING 192
SWIDTH 747 0
DWIDTH 19 0
BBX 19 23 0 0
BITMAP
001C00
000C00
000400
000200
000000
000C00
000C00
001C00
003E00
002E00
004E00
00CE00
008600
010600
010700
020700
07FF00
040300
080300
100380
100380
200380
F80FE0
ENDCHAR
STARTCHAR Aacute
ENCODING 193
SWIDTH 747 0
DWIDTH 19 0
BBX 19 23 0 0
BITMAP
0001C0
000300
000600
000C00
000000
000C00
000C00
001C00
003E00
002E00
004E00
00CE00
008600
010600
010700
020700
07FF00
040300
080300
100380
100380
200380
F80FE0
ENDCHAR
STARTCHAR Acircumflex
ENCODING 194
SWIDTH 747 0
DWIDTH 19 0
BBX 19 23 0 0
BITMAP
000700
000F80
001880
003040
000000
000C00
000C00
001C00
003E00
002E00
004E00
00CE00
008600
010600
010700
020700
07FF00
040300
080300
100380
100380
200380
F80FE0
ENDCHAR
STARTCHAR Atilde
ENCODING 195
SWIDTH 747 0
DWIDTH 19 0
BBX 19 22 0 0
BITMAP
001C40
001F80
002380
000000
000C00
000C00
001C00
003E00
002E00
004E00
00CE00
008600
010600
010700
020700
07FF00
040300
080300
100380
100380
200380
F80FE0
ENDCHAR
STARTCHAR Adieresis
ENCODING 196
SWIDTH 747 0
DWIDTH 19 0
BBX 19 21 0 0
BITMAP
003180
003180
000000
000C00
000C00
001C00
003E00
002E00
004E00
00CE00
008600
010600
010700
020700
07FF00
040300
080300
100380
100380
200380
F80FE0
ENDCHAR
STARTCHAR Aring
ENCODING 197
SWIDTH 747 0
DWIDTH 19 0
BBX 19 23 0 0
BITMAP
000600
000900
000900
000600
000000
000C00
000C00
001C00
003E00
002E00
004E00
00CE00
008600
010600
010700
020700
07FF00
040300
080300
100380
100380
200380
F80FE0
ENDCHAR
STARTCHAR AE
ENCODING 198
SWIDTH 907 0
DWIDTH 23 0
BBX 25 18 0 0
BITMAP
0001FF80
00038180
00078100
000B8000
00138000
00130000
00230000
00470400
00870400
0187FC00
01070400
02060000
07FE0000
080E0000
080E0000
100C0600
201C0400
F87FFC00
ENDCHAR
STARTCHAR Ccedilla
ENCODING 199
SWIDTH 714 0
DWIDTH 18 0
BBX 17 23 3 -5
BITMAP
00FF80
038380
0E0180
1C0100
380000
300000
700000
700000
E00000
E00000
E00000
E00000
E00000
E00000
600000
700000
3C0C00
0FF000
020000
060000
030000
030000
0E0000
ENDCHAR
STARTCHAR Egrave
ENCODING 200
SWIDTH 569 0
DWIDTH 14 0
BBX 16 23 1 0
BITMAP
00E0
0060
0020
0010
0000
1FFF
0703
0702
0700
0700
0600
0608
0E08
0FF8
0E18
0C10
0C00
1C00
1C00
1C00
180C
3808
FFF8
ENDCHAR
STARTCHAR Eacute
ENCODING 201
SWIDTH 569 0
DWIDTH 14 0
BBX 16 23 1 0
BITMAP
000E
0018
0030
0060
0000
1FFF
0703
0702
0700
0700
0600
0608
0E08
0FF8
0E18
0C10
0C00
1C00
1C00
1C00
180C
3808
FFF8
ENDCHAR
STARTCHAR Ecircumflex
ENCODING 202
SWIDTH 569 0
DWIDTH 14 0
BBX 16 23 1 0
BITMAP
0038
007C
00C4
0182
0000
1FFF
0703
0702
0700
0700
0600
0608
0E08
0FF8
0E18
0C10
0C00
1C00
1C00
1C00
180C
3808
FFF8
ENDCHAR
STARTCHAR Edieresis
ENCODING 203
SWIDTH 569 0
DWIDTH 14 0
BBX 16 21 1 0
BITMAP
018C
018C
0000
1FFF
0703
0702
0700
0700
0600
0608
0E08
0FF8
0E18
0C10
0C00
1C00
1C00
1C00
180C
3808
FFF8
ENDCHAR
STARTCHAR Igrave
ENCODING 204
SWIDTH 325 0
DWIDTH 8 0
BBX 11 23 0 0
BITMAP
0700
0300
0100
0080
0000
0FE0
0380
0300
0700
0700
0700
0600
0600
0E00
0E00
0C00
0C00
1C00
1C00
1C00
1800
3800
FE00
ENDCHAR
STARTCHAR Iacute
ENCODING 205
SWIDTH 325 0
DWIDTH 8 0
BBX 12 23 0 0
BITMAP
0070
00C0
0180
0300
0000
0FE0
0380
0300
0700
0700
0700
0600
0600
0E00
0E00
0C00
0C00
1C00
1C00
1C00
1800
3800
FE00
ENDCHAR
STARTCHAR Icircumflex
ENCODING 206
SWIDTH 325 0
DWIDTH 8 0
BBX 12 23 0 0
BITMAP
01C0
03E0
0620
0C10
0000
0FE0
0380
0300
0700
0700
0700
0600
0600
0E00
0E00
0C00
0C00
1C00
1C00
1C00
1800
3800
FE00
ENDCHAR
STARTCHAR Idieresis
ENCODING 207
SWIDTH 325 0
DWIDTH 8 0
BBX 12 21 0 0
BITMAP
0630
0630
0000
0FE0
0380
0300
0700
0700
0700
0600
0600
0E00
0E00
0C00
0C00
1C00
1C00
1C00
1800
3800
FE00
ENDCHAR
STARTCHAR Eth
ENCODING 208
SWIDTH 770 0
DWIDTH 19 0
BBX 19 18 1 0
BITMAP
1FFE00
070780
0701C0
0700C0
0600E0
0600E0
0E00E0
0E00E0
7FE0E0
0C00E0
0C00C0
1C01C0
1C01C0
1C0380
180700
180E00
383C00
FFF000
ENDCHAR
STARTCHAR Ntilde
ENCODING 209
SWIDTH 762 0
DWIDTH 19 0
BBX 22 22 1 0
BITMAP
003880
003F00
004700
000000
1F00FC
070030
078020
078020
05C060
04C040
04E040
0C7040
087040
083880
083880
081C80
180C80
100E80
100700
100700
300300
FC0100
ENDCHAR
STARTCHAR Ograve
ENCODING 210
SWIDTH 783 0
DWIDTH 20 0
BBX 18 23 3 0
BITMAP
007000
003000
001000
000800
000000
00FC00
030700
0E0380
1C0380
380180
3001C0
7001C0
6001C0
E00180
E00180
E00380
E00300
E00700
E00600
600C00
701800
387000
0FC000
ENDCHAR
STARTCHAR Oacute
ENCODING 211
SWIDTH 783 0
DWIDTH 20 0
BBX 18 23 3 0
BITMAP
000E00
001800
003000
006000
000000
00FC00
030700
0E0380
1C0380
380180
3001C0
7001C0
6001C0
E00180
E00180
E00380
E00300
E00700
E00600
600C00
701800
387000
0FC000
ENDCHAR
STARTCHAR Ocircumflex
ENCODING 212
SWIDTH 783 0
DWIDTH 20 0
BBX 18 23 3 0
BITMAP
003800
007C00
00C400
018200
000000
00FC00
030700
0E0380
1C0380
380180
3001C0
7001C0
6001C0
E00180
E00180
E00380
E00300
E00700
E00600
600C00
701800
387000
0FC000
ENDCHAR
STARTCHAR Otilde
ENCODING 213
SWIDTH 783 0
DWIDTH 20 0
BBX 18 22 3 0
BITMAP
00E200
00FC00
011C00
000000
00FC00
030700
0E0380
1C0380
380180
3001C0
7001C0
6001C0
E00180
E00180
E00380
E00300
E00700
E00600
600C00
701800
387000
0FC000
ENDCHAR
STARTCHAR Odieresis
ENCODING 214
SWIDTH 783 0
DWIDTH 20 0
BBX 18 21 3 0
BITMAP
00C600
00C600
000000
00FC00
030700
0E0380
1C0380
380180
3001C0
7001C0
6001C0
E00180
E00180
E00380
E00300
E00700
E00600
600C00
701800
387000
0FC000
ENDCHAR
STARTCHAR multiply
ENCODING 215
SWIDTH 608 0
DWIDTH 15 0
BBX 17 15 1 0
BITMAP
100080
100100
080600
040C00
021800
033000
016000
008000
034000
066000
0C2000
181000
300800
600400
800400
ENDCHAR
STARTCHAR Oslash
ENCODING 216
SWIDTH 783 0
DWIDTH 20 0
BBX 21 18 1 0
BITMAP
007E18
01C3A0
0301C0
0600E0
0C01E0
1C02E0
180460
381860
3830E0
3060E0
30C0C0
7100C0
320180
340380
380300
180600
2C1C00
C7E000
ENDCHAR
STARTCHAR Ugrave
ENCODING 217
SWIDTH 727 0
DWIDTH 18 0
BBX 18 23 4 0
BITMAP
01C000
00C000
004000
002000
000000
FE0FC0
380300
380200
300200
300200
700600
700400
700400
600400
600C00
E00800
E00800
E00800
C01800
E01000
603000
706000
1F8000
ENDCHAR
STARTCHAR Uacute
ENCODING 218
SWIDTH 727 0
DWIDTH 18 0
BBX 18 23 4 0
BITMAP
001C00
003000
006000
00C000
000000
FE0FC0
380300
380200
300200
300200
700600
700400
700400
600400
600C00
E00800
E00800
E00800
C01800
E01000
603000
706000
1F8000
ENDCHAR
STARTCHAR Ucircumflex
ENCODING 219
SWIDTH 727 0
DWIDTH 18 0
BBX 18 23 4 0
BITMAP
007000
00F800
018800
030400
000000
FE0FC0
380300
380200
300200
300200
700600
700400
700400
600400
600C00
E00800
E00800
E00800
C01800
E01000
603000
706000
1F8000
ENDCHAR
STARTCHAR Udieresis
ENCODING 220
SWIDTH 727 0
DWIDTH 18 0
BBX 18 21 4 0
BITMAP
031800
031800
000000
FE0FC0
380300
380200
300200
300200
700600
700400
700400
600400
600C00
E00800
E00800
E00800
C01800
E01000
603000
706000
1F8000
ENDCHAR
STARTCHAR Yacute
ENCODING 221
SWIDTH 663 0
DWIDTH 17 0
BBX 17 23 3 0
BITMAP
003800
006000
00C000
018000
000000
FE0F80
780200
380400
380800
1C1000
1C3000
0E6000
0E4000
068000
070000
070000
060000
060000
0E0000
0E0000
0E0000
1E0000
7F8000
ENDCHAR
STARTCHAR Thorn
ENCODING 222
SWIDTH 579 0
DWIDTH 14 0
BBX 15 18 1 0
BITMAP
1FC0
0700
0700
0700
07F8
060C
0E0E
0E0E
0E0E
0C0E
0C1C
1C18
1C70
1FC0
1800
1800
3800
FE00
ENDCHAR
STARTCHAR germandbls
ENCODING 223
SWIDTH 603 0
DWIDTH 15 0
BBX 13 24 2 -5
BITMAP
01F0
0738
0618
0E18
0C30
0C20
0C40
1D80
1D80
1980
19C0
18F0
3878
3838
3018
3218
3218
7230
73E0
6000
6000
6000
E000
E000
ENDCHAR
STARTCHAR agrave
ENCODING 224
SWIDTH 608 0
DWIDTH 15 0
BBX 13 18 2 0
BITMAP
01C0
00C0
0040
0020
0000
03F8
0438
1830
1030
3030
6030
6070
E0E0
E160
E360
E660
FCE0
70F8
ENDCHAR
STARTCHAR aacute
ENCODING 225
SWIDTH 608 0
DWIDTH 15 0
BBX 13 18 2 0
BITMAP
0038
0060
00C0
0180
0000
03F8
0438
1830
1030
3030
6030
6070
E0E0
E160
E360
E660
FCE0
70F8
ENDCHAR
STARTCHAR acircumflex
ENCODING 226
SWIDTH 608 0
DWIDTH 15 0
BBX 13 18 2 0
BITMAP
00E0
01F0
0310
0608
0000
03F8
0438
1830
1030
3030
6030
6070
E0E0
E160
E360
E660
FCE0
70F8
ENDCHAR
STARTCHAR atilde
ENCODING 227
SWIDTH 608 0
DWIDTH 15 0
BBX 14 17 2 0
BITMAP
01C4
01F8
0238
0000
03F8
0438
1830
1030
3030
6030
6070
E0E0
E160
E360
E660
FCE0
70F8
ENDCHAR
STARTCHAR adieresis
ENCODING 228
SWIDTH 608 0
DWIDTH 15 0
BBX 13 16 2 0
BITMAP
0318
0318
0000
03F8
0438
1830
1030
3030
6030
6070
E0E0
E160
E360
E660
FCE0
70F8
ENDCHAR
STARTCHAR aring
ENCODING 229
SWIDTH 608 0
DWIDTH 15 0
BBX 13 18 2 0
BITMAP
0060
0090
0090
0060
0000
03F8
0438
1830
1030
3030
6030
6070
E0E0
E160
E360
E660
FCE0
70F8
ENDCHAR
STARTCHAR ae
ENCODING 230
SWIDTH 881 0
DWIDTH 22 0
BBX 20 13 2 0
BITMAP
03F9E0
043E70
181C30
103830
303870
603060
6071C0
E0FE00
E0B000
E13000
E63010
FC3860
781F80
ENDCHAR
STARTCHAR ccedilla
ENCODING 231
SWIDTH 487 0
DWIDTH 12 0
BBX 11 18 2 -5
BITMAP
07E0
0860
1020
3060
6000
6000
E000
E000
E000
E000
E000
6080
3F00
1000
3000
1800
1800
7000
ENDCHAR
STARTCHAR egrave
ENCODING 232
SWIDTH 518 0
DWIDTH 13 0
BBX 11 18 2 0
BITMAP
0380
0180
0080
0040
0000
07C0
08E0
10E0
30E0
60C0
61C0
E300
FC00
E000
E000
E060
71C0
3F00
ENDCHAR
STARTCHAR eacute
ENCODING 233
SWIDTH 518 0
DWIDTH 13 0
BBX 12 18 2 0
BITMAP
0070
00C0
0180
0300
0000
07C0
08E0
10E0
30E0
60C0
61C0
E300
FC00
E000
E000
E060
71C0
3F00
ENDCHAR
STARTCHAR ecircumflex
ENCODING 234
SWIDTH 518 0
DWIDTH 13 0
BBX 12 18 2 0
BITMAP
01C0
03E0
0620
0C10
0000
07C0
08E0
10E0
30E0
60C0
61C0
E300
FC00
E000
E000
E060
71C0
3F00
ENDCHAR
STARTCHAR edieresis
ENCODING 235
SWIDTH 518 0
DWIDTH 13 0
BBX 12 16 2 0
BITMAP
0630
0630
0000
07C0
08E0
10E0
30E0
60C0
61C0
E300
FC00
E000
E000
E060
71C0
3F00
ENDCHAR
STARTCHAR igrave
ENCODING 236
SWIDTH 289 0
DWIDTH 7 0
BBX 6 18 3 0
BITMAP
38
18
08
04
00
F8
38
30
30
30
30
70
60
60
60
60
E0
F8
ENDCHAR
STARTCHAR iacute
ENCODING 237
SWIDTH 289 0
DWIDTH 7 0
BBX 9 18 3 0
BITMAP
0380
0600
0C00
1800
0000
F800
3800
3000
3000
3000
3000
7000
6000
6000
6000
6000
E000
F800
ENDCHAR
STARTCHAR icircumflex
ENCODING 238
SWIDTH 289 0
DWIDTH 7 0
BBX 9 18 3 0
BITMAP
0E00
1F00
3100
6080
0000
F800
3800
3000
3000
3000
3000
7000
6000
6000
6000
6000
E000
F800
ENDCHAR
STARTCHAR idieresis
ENCODING 239
SWIDTH 289 0
DWIDTH 7 0
BBX 9 16 3 0
BITMAP
3180
3180
0000
F800
3800
3000
3000
3000
3000
7000
6000
6000
6000
6000
E000
F800
ENDCHAR
STARTCHAR eth
ENCODING 240
SWIDTH 562 0
DWIDTH 14 0
BBX 12 19 2 0
BITMAP
0030
1FE0
03C0
01C0
0E60
0060
07F0
0870
1030
3030
6030
6030
E030
E070
E060
E060
E0C0
6180
3E00
ENDCHAR
STARTCHAR ntilde
ENCODING 241
SWIDTH 631 0
DWIDTH 16 0
BBX 13 17 3 0
BITMAP
0388
03F0
0470
0000
F870
39F8
3338
3638
3430
3830
7030
7070
6070
6060
6060
E060
E0F8
ENDCHAR
STARTCHAR ograve
ENCODING 242
SWIDTH 560 0
DWIDTH 14 0
BBX 12 18 2 0
BITMAP
0380
0180
0080
0040
0000
07C0
0C60
1870
3030
7030
6030
E070
E070
E060
E0E0
E0C0
F380
7E00
ENDCHAR
STARTCHAR oacute
ENCODING 243
SWIDTH 560 0
DWIDTH 14 0
BBX 13 18 2 0
BITMAP
0038
0060
00C0
0180
0000
07C0
0C60
1870
3030
7030
6030
E070
E070
E060
E0E0
E0C0
F380
7E00
ENDCHAR
STARTCHAR ocircumflex
ENCODING 244
SWIDTH 560 0
DWIDTH 14 0
BBX 13 18 2 0
BITMAP
00E0
01F0
0310
0608
0000
07C0
0C60
1870
3030
7030
6030
E070
E070
E060
E0E0
E0C0
F380
7E00
ENDCHAR
STARTCHAR otilde
ENCODING 245
SWIDTH 560 0
DWIDTH 14 0
BBX 13 17 2 0
BITMAP
0388
03F0
0470
0000
07C0
0C60
1870
3030
7030
6030
E070
E070
E060
E0E0
E0C0
F380
7E00
ENDCHAR
STARTCHAR odieresis
ENCODING 246
SWIDTH 560 0
DWIDTH 14 0
BBX 12 16 2 0
BITMAP
0630
0630
0000
07C0
0C60
1870
3030
7030
6030
E070
E070
E060
E0E0
E0C0
F380
7E00
ENDCHAR
STARTCHAR divide
ENCODING 247
SWIDTH 608 0
DWIDTH 15 0
BBX 15 13 2 0
BITMAP
00C0
01C0
0000
0000
0000
0000
FFFE
0000
0000
0000
0000
0700
0700
ENDCHAR
STARTCHAR oslash
ENCODING 248
SWIDTH 560 0
DWIDTH 14 0
BBX 15 13 1 0
BITMAP
01E6
0638
0C18
1838
305C
3098
7118
7218
7430
7830
7060
38C0
DF00
ENDCHAR
STARTCHAR ugrave
ENCODING 249
SWIDTH 630 0
DWIDTH 16 0
BBX 13 18 3 0
BITMAP
01C0
00C0
0040
0020
0000
F8F8
3038
3030
3030
7030
7070
6070
60E0
6160
E360
E660
FCE0
70F8
ENDCHAR
STARTCHAR uacute
ENCODING 250
SWIDTH 630 0
DWIDTH 16 0
BBX 13 18 3 0
BITMAP
0038
0060
00C0
0180
0000
F8F8
3038
3030
3030
7030
7070
6070
60E0
6160
E360
E660
FCE0
70F8
ENDCHAR
STARTCHAR ucircumflex
ENCODING 251
SWIDTH 630 0
DWIDTH 16 0
BBX 13 18 3 0
BITMAP
00E0
01F0
0310
0608
0000
F8F8
3038
3030
3030
7030
7070
6070
60E0
6160
E360
E660
FCE0
70F8
ENDCHAR
STARTCHAR udieresis
ENCODING 252
SWIDTH 630 0
DWIDTH 16 0
BBX 13 16 3 0
BITMAP
0318
0318
0000
F8F8
3038
3030
3030
7030
7070
6070
60E0
6160
E360
E660
FCE0
70F8
ENDCHAR
STARTCHAR yacute
ENCODING 253
SWIDTH 558 0
DWIDTH 14 0
BBX 16 23 0 -5
BITMAP
000E
0018
0030
0060
0000
7C0F
1C07
0E06
0606
060C
0608
0710
0730
0320
0340
0380
0300
0200
0600
0C00
1800
3000
F000
ENDCHAR
STARTCHAR thorn
ENCODING 254
SWIDTH 608 0
DWIDTH 15 0
BBX 14 22 2 -5
BITMAP
3C00
0C00
0C00
0C00
1C38
1CFC
199C
1B1C
1A1C
3C1C
3818
3018
3030
3020
7060
7080
7F00
6000
6000
E000
E000
E000
ENDCHAR
STARTCHAR ydieresis
ENCODING 255
SWIDTH 558 0
DWIDTH 14 0
BBX 16 21 0 -5
BITMAP
00C6
00C6
0000
7C0F
1C07
0E06
0606
060C
0608
0710
0730
0320
0340
0380
0300
0200
0600
0C00
1800
3000
F000
ENDCHAR
STARTCHAR Amacron
ENCODING 256
SWIDTH 747 0
DWIDTH 19 0
BBX 19 20 0 0
BITMAP
00FE00
000000
000C00
000C00
001C00
003E00
002E00
004E00
00CE00
008600
010600
010700
020700
07FF00
040300
080300
100380
100380
200380
F80FE0
ENDCHAR
STARTCHAR amacron
ENCODING 257
SWIDTH 608 0
DWIDTH 15 0
BBX 13 15 2 0
BITMAP
07F0
0000
03F8
0438
1830
1030
3030
6030
6070
E0E0
E160
E360
E660
FCE0
70F8
ENDCHAR
STARTCHAR Abreve
ENCODING 258
SWIDTH 747 0
DWIDTH 19 0
BBX 19 23 0 0
BITMAP
008100
008200
00FC00
007800
000000
000C00
000C00
001C00
003E00
002E00
004E00
00CE00
008600
010600
010700
020700
07FF00
040300
080300
100380
100380
200380
F80FE0
ENDCHAR
STARTCHAR abreve
ENCODING 259
SWIDTH 608 0
DWIDTH 15 0
BBX 13 18 2 0
BITMAP
0408
0410
07E0
03C0
0000
03F8
0438
1830
1030
3030
6030
6070
E0E0
E160
E360
E660
FCE0
70F8
ENDCHAR
STARTCHAR Aogonek
ENCODING 260
SWIDTH 747 0
DWIDTH 19 0
BBX 19 23 0 -5
BITMAP
000C00
000C00
001C00
003E00
002E00
004E00
00CE00
008600
010600
010700
020700
07FF00
040300
080300
100380
100380
200380
F80FE0
000000
003800
006000
006000
003800
ENDCHAR
STARTCHAR aogonek
ENCODING 261
SWIDTH 608 0
DWIDTH 15 0
BBX 13 18 2 -5
BITMAP
03F8
0438
1830
1030
3030
6030
6070
E0E0
E160
E360
E660
FCE0
70F8
0000
0700
0C00
0C00
0700
ENDCHAR
STARTCHAR Cacute
ENCODING 262
SWIDTH 714 0
DWIDTH 18 0
BBX 17 23 3 0
BITMAP
003800
006000
00C000
018000
000000
00FF80
038380
0E0180
1C0100
380000
300000
700000
700000
E00000
E00000
E00000
E00000
E00000
E00000
600000
700000
3C0C00
0FF000
ENDCHAR
STARTCHAR cacute
ENCODING 263
SWIDTH 487 0
DWIDTH 12 0
BBX 11 18 2 0
BITMAP
00E0
0180
0300
0600
0000
07E0
0860
1020
3060
6000
6000
E000
E000
E000
E000
E000
6080
3F00
ENDCHAR
STARTCHAR Ccircumflex
ENCODING 264
SWIDTH 714 0
DWIDTH 18 0
BBX 17 23 3 0
BITMAP
007000
00F800
018800
030400
000000
00FF80
038380
0E0180
1C0100
380000
300000
700000
700000
E00000
E00000
E00000
E00000
E00000
E00000
600000
700000
3C0C00
0FF000
ENDCHAR
STARTCHAR ccircumflex
ENCODING 265
SWIDTH 487 0
DWIDTH 12 0
BBX 11 18 2 0
BITMAP
0380
07C0
0C40
1820
0000
07E0
0860
1020
3060
6000
6000
E000
E000
E000
E000
E000
6080
3F00
ENDCHAR
STARTCHAR Cdotaccent
ENCODING 266
SWIDTH 714 0
DWIDTH 18 0
BBX 17 21 3 0
BITMAP
00E000
00E000
000000
00FF80
038380
0E0180
1C0100
380000
300000
700000
700000
E00000
E00000
E00000
E00000
E00000
E00000
600000
700000
3C0C00
0FF000
ENDCHAR
STARTCHAR cdotaccent
ENCODING 267
SWIDTH 487 0
DWIDTH 12 0
BBX 11 16 2 0
BITMAP
0700
0700
0000
07E0
0860
1020
3060
6000
6000
E000
E000
E000
E000
E000
6080
3F00
ENDCHAR
STARTCHAR Ccaron
ENCODING 268
SWIDTH 714 0
DWIDTH 18 0
BBX 17 23 3 0
BITMAP
020C00
011800
01F000
00E000
000000
00FF80
038380
0E0180
1C0100
380000
300000
700000
700000
E00000
E00000
E00000
E00000
E00000
E00000
600000
700000
3C0C00
0FF000
ENDCHAR
STARTCHAR ccaron
ENCODING 269
SWIDTH 487 0
DWIDTH 12 0
BBX 11 18 2 0
BITMAP
1060
08C0
0F80
0700
0000
07E0
0860
1020
3060
6000
6000
E000
E000
E000
E000
E000
6080
3F00
ENDCHAR
STARTCHAR Dcaron
ENCODING 270
SWIDTH 770 0
DWIDTH 19 0
BBX 19 23 1 0
BITMAP
010600
008C00
00F800
007000
000000
1FFE00
070780
0701C0
0700C0
0600E0
0600E0
0E00E0
0E00E0
0E00E0
0C00E0
0C00C0
1C01C0
1C01C0
1C0380
180700
180E00
383C00
FFF000
ENDCHAR
STARTCHAR dcaron
ENCODING 271
SWIDTH 843 0
DWIDTH 21 0
BBX 20 18 2 0
BITMAP
003E70
000E70
000C20
000C20
001C60
03FCC0
041C00
081800
101800
303800
603800
607000
E07000
E0F000
E17000
E67000
FC7000
787C00
ENDCHAR
STARTCHAR Dcroat
ENCODING 272
SWIDTH 770 0
DWIDTH 19 0
BBX 19 18 1 0
BITMAP
1FFE00
070780
0701C0
0700C0
0600E0
0600E0
0E00E0
0E00E0
7FE0E0
0C00E0
0C00C0
1C01C0
1C01C0
1C0380
180700
180E00
383C00
FFF000
ENDCHAR
STARTCHAR dcroat
ENCODING 273
SWIDTH 608 0
DWIDTH 15 0
BBX 17 18 2 0
BITMAP
003E00
000E00
000C00
03FF80
03FF80
03FC00
041C00
081800
101800
303800
603800
607000
E07000
E0F000
E17000
E67000
FC7000
787C00
ENDCHAR
STARTCHAR Emacron
ENCODING 274
SWIDTH 569 0
DWIDTH 14 0
BBX 16 20 1 0
BITMAP
07F0
0000
1FFF
0703
0702
0700
0700
0600
0608
0E08
0FF8
0E18
0C10
0C00
1C00
1C00
1C00
180C
3808
FFF8
ENDCHAR
STARTCHAR emacron
ENCODING 275
SWIDTH 518 0
DWIDTH 13 0
BBX 11 15 2 0
BITMAP
1FC0
0000
07C0
08E0
10E0
30E0
60C0
61C0
E300
FC00
E000
E000
E060
71C0
3F00
ENDCHAR
STARTCHAR Ebreve
ENCODING 276
SWIDTH 569 0
DWIDTH 14 0
BBX 16 23 1 0
BITMAP
0408
0410
07E0
03C0
0000
1FFF
0703
0702
0700
0700
0600
0608
0E08
0FF8
0E18
0C10
0C00
1C00
1C00
1C00
180C
3808
FFF8
ENDCHAR
STARTCHAR ebreve
ENCODING 277
SWIDTH 518 0
DWIDTH 13 0
BBX 12 18 2 0
BITMAP
0810
0820
0FC0
0780
0000
07C0
08E0
10E0
30E0
60C0
61C0
E300
FC00
E000
E000
E060
71C0
3F00
ENDCHAR
STARTCHAR Edotaccent
ENCODING 278
SWIDTH 569 0
DWIDTH 14 0
BBX 16 21 1 0
BITMAP
01C0
01C0
0000
1FFF
0703
0702
0700
0700
0600
0608
0E08
0FF8
0E18
0C10
0C00
1C00
1C00
1C00
180C
3808
FFF8
ENDCHAR
STARTCHAR edotaccent
ENCODING 279
SWIDTH 518 0
DWIDTH 13 0
BBX 11 16 2 0
BITMAP
0700
0700
0000
07C0
08E0
10E0
30E0
60C0
61C0
E300
FC00
E000
E000
E060
71C0
3F00
ENDCHAR
STARTCHAR Eogonek
ENCODING 280
SWIDTH 569 0
DWIDTH 14 0
BBX 16 23 1 -5
BITMAP
1FFF
0703
0702
0700
0700
0600
0608
0E08
0FF8
0E18
0C10
0C00
1C00
1C00
1C00
180C
3808
FFF8
0000
0380
0600
0600
0380
ENDCHAR
STARTCHAR eogonek
ENCODING 281
SWIDTH 518 0
DWIDTH 13 0
BBX 11 18 2 -5
BITMAP
07C0
08E0
10E0
30E0
60C0
61C0
E300
FC00
E000
E000
E060
71C0
3F00
0000
0E00
1800
1800
0E00
ENDCHAR
STARTCHAR Ecaron
ENCODING 282
SWIDTH 569 0
DWIDTH 14 0
BBX 16 23 1 0
BITMAP
0418
0230
03E0
01C0
0000
1FFF
0703
0702
0700
0700
0600
0608
0E08
0FF8
0E18
0C10
0C00
1C00
1C00
1C00
180C
3808
FFF8
ENDCHAR
STARTCHAR ecaron
ENCODING 283
SWIDTH 518 0
DWIDTH 13 0
BBX 11 18 2 0
BITMAP
1060
08C0
0F80
0700
0000
07C0
08E0
10E0
30E0
60C0
61C0
E300
FC00
E000
E000
E060
71C0
3F00
ENDCHAR
STARTCHAR Gcircumflex
ENCODING 284
SWIDTH 756 0
DWIDTH 19 0
BBX 17 23 3 0
BITMAP
007000
00F800
018800
030400
000000
00FF00
038380
0E0100
1C0100
380000
300000
700000
700000
E00000
E00000
E03F80
E00E00
E00C00
E00C00
601C00
701C00
381C00
0FE000
ENDCHAR
STARTCHAR gcircumflex
ENCODING 285
SWIDTH 602 0
DWIDTH 15 0
BBX 14 23 1 -5
BITMAP
00E0
01F0
0310
0608
0000
01FC
021C
0C1C
1818
1818
3038
3038
7078
70B0
71B0
7330
7E70
3860
0060
8060
C0C0
7080
7F00
ENDCHAR
STARTCHAR Gbreve
ENCODING 286
SWIDTH 756 0
DWIDTH 19 0
BBX 17 23 3 0
BITMAP
020400
020800
03F000
01E000
000000
00FF00
038380
0E0100
1C0100
380000
300000
700000
700000
E00000
E00000
E03F80
E00E00
E00C00
E00C00
601C00
701C00
381C00
0FE000
ENDCHAR
STARTCHAR gbreve
ENCODING 287
SWIDTH 602 0
DWIDTH 15 0
BBX 14 23 1 -5
BITMAP
0408
0410
07E0
03C0
0000
01FC
021C
0C1C
1818
1818
3038
3038
7078
70B0
71B0
7330
7E70
3860
0060
8060
C0C0
7080
7F00
ENDCHAR
STARTCHAR Gdotaccent
ENCODING 288
SWIDTH 756 0
DWIDTH 19 0
BBX 17 21 3 0
BITMAP
00E000
00E000
000000
00FF00
038380
0E0100
1C0100
380000
300000
700000
700000
E00000
E00000
E03F80
E00E00
E00C00
E00C00
601C00
701C00
381C00
0FE000
ENDCHAR
STARTCHAR gdotaccent
ENCODING 289
SWIDTH 602 0
DWIDTH 15 0
BBX 14 21 1 -5
BITMAP
01C0
01C0
0000
01FC
021C
0C1C
1818
1818
3038
3038
7078
70B0
71B0
7330
7E70
3860
0060
8060
C0C0
7080
7F00
ENDCHAR
STARTCHAR Gcommaaccent
ENCODING 290
SWIDTH 756 0
DWIDTH 19 0
BBX 17 27 3 -9
BITMAP
00FF00
038380
0E0100
1C0100
380000
300000
700000
700000
E00000
E00000
E03F80
E00E00
E00C00
E00C00
601C00
701C00
381C00
0FE000
000000
01C000
01C000
01C000
008000
008000
018000
018000
030000
ENDCHAR
STARTCHAR gcommaaccent
ENCODING 291
SWIDTH 602 0
DWIDTH 15 0
BBX 14 25 1 -5
BITMAP
0060
00C0
00C0
00C0
01E0
01C0
0000
01FC
021C
0C1C
1818
1818
3038
3038
7078
70B0
71B0
7330
7E70
3860
0060
8060
C0C0
7080
7F00
ENDCHAR
STARTCHAR Hcircumflex
ENCODING 292
SWIDTH 776 0
DWIDTH 19 0
BBX 22 23 0 0
BITMAP
001C00
003E00
006200
00C100
000000
1FE1FC
078070
070060
0700E0
0700E0
0600E0
0600C0
0E00C0
0FFFC0
0E01C0
0C01C0
0C0180
1C0180
1C0380
1C0380
180380
380780
FE1FE0
ENDCHAR
STARTCHAR hcircumflex
ENCODING 293
SWIDTH 631 0
DWIDTH 16 0
BBX 13 23 3 0
BITMAP
0E00
1F00
3100
6080
0000
7C00
1C00
1C00
1800
1800
1870
39F8
3B38
3638
3430
3830
7030
7070
6070
6060
6060
E060
E0F8
ENDCHAR
STARTCHAR Hbar
ENCODING 294
SWIDTH 776 0
DWIDTH 19 0
BBX 22 18 0 0
BITMAP
1FE1FC
078070
070060
0700E0
FFFFFC
FFFFFC
0600C0
0E00C0
0FFFC0
0E01C0
0C01C0
0C0180
1C0180
1C0380
1C0380
180380
380780
FE1FE0
ENDCHAR
STARTCHAR hbar
ENCODING 295
SWIDTH 631 0
DWIDTH 16 0
BBX 15 18 1 0
BITMAP
1F00
0700
0700
FFE0
FFE0
061C
0E7E
0ECE
0D8E
0D0C
0E0C
1C0C
1C1C
181C
1818
1818
3818
383E
ENDCHAR
STARTCHAR Itilde
ENCODING 296
SWIDTH 325 0
DWIDTH 8 0
BBX 11 22 0 0
BITMAP
1C40
1F80
2380
0000
0FE0
0380
0300
0700
0700
0700
0600
0600
0E00
0E00
0C00
0C00
1C00
1C00
1C00
1800
3800
FE00
ENDCHAR
STARTCHAR itilde
ENCODING 297
SWIDTH 289 0
DWIDTH 7 0
BBX 8 17 2 0
BITMAP
71
7E
8E
00
7C
1C
18
18
18
18
38
30
30
30
30
70
7C
ENDCHAR
STARTCHAR Imacron
ENCODING 298
SWIDTH 325 0
DWIDTH 8 0
BBX 11 20 0 0
BITMAP
1FC0
0000
0FE0
0380
0300
0700
0700
0700
0600
0600
0E00
0E00
0C00
0C00
1C00
1C00
1C00
1800
3800
FE00
ENDCHAR
STARTCHAR imacron
ENCODING 299
SWIDTH 289 0
DWIDTH 7 0
BBX 7 15 2 0
BITMAP
FE
00
7C
1C
18
18
18
18
38
30
30
30
30
70
7C
ENDCHAR
STARTCHAR Ibreve
ENCODING 300
SWIDTH 325 0
DWIDTH 8 0
BBX 11 23 0 0
BITMAP
1020
1040
1F80
0F00
0000
0FE0
0380
0300
0700
0700
0700
0600
0600
0E00
0E00
0C00
0C00
1C00
1C00
1C00
1800
3800
FE00
ENDCHAR
STARTCHAR ibreve
ENCODING 301
SWIDTH 289 0
DWIDTH 7 0
BBX 8 18 2 0
BITMAP
81
82
FC
78
00
7C
1C
18
18
18
18
38
30
30
30
30
70
7C
ENDCHAR
STARTCHAR Iogonek
ENCODING 302
SWIDTH 325 0
DWIDTH 8 0
BBX 11 23 0 -5
BITMAP
0FE0
0380
0300
0700
0700
0700
0600
0600
0E00
0E00
0C00
0C00
1C00
1C00
1C00
1800
3800
FE00
0000
1C00
3000
3000
1C00
ENDCHAR
STARTCHAR iogonek
ENCODING 303
SWIDTH 289 0
DWIDTH 7 0
BBX 6 23 3 -5
BITMAP
1C
1C
00
00
00
F8
38
38
30
30
30
70
60
60
60
60
E0
F8
00
70
C0
C0
70
ENDCHAR
STARTCHAR Idotaccent
ENCODING 304
SWIDTH 325 0
DWIDTH 8 0
BBX 11 21 0 0
BITMAP
0700
0700
0000
0FE0
0380
0300
0700
0700
0700
0600
0600
0E00
0E00
0C00
0C00
1C00
1C00
1C00
1800
3800
FE00
ENDCHAR
STARTCHAR dotlessi
ENCODING 305
SWIDTH 289 0
DWIDTH 7 0
BBX 5 13 3 0
BITMAP
F8
38
30
30
30
30
70
60
60
60
60
E0
F8
ENDCHAR
STARTCHAR IJ
ENCODING 306
SWIDTH 731 0
DWIDTH 19 0
BBX 22 22 0 -4
BITMAP
0FE1FC
038070
030060
070060
0700E0
0700E0
0600E0
0600C0
0E00C0
0E01C0
0C01C0
0C01C0
1C0180
1C0180
1C0380
180380
380380
FE0300
004300
00C600
00C600
00F800
ENDCHAR
STARTCHAR ij
ENCODING 307
SWIDTH 618 0
DWIDTH 16 0
BBX 15 23 3 -5
BITMAP
1C0E
1C0E
0000
0000
0000
F87C
381C
381C
3018
3018
3018
7038
6038
6030
6030
6030
E070
F870
0060
0860
18C0
1880
1F00
ENDCHAR
STARTCHAR Jcircumflex
ENCODING 308
SWIDTH 422 0
DWIDTH 11 0
BBX 14 27 0 -4
BITMAP
0070
00F8
0188
0304
0000
01FC
0070
0060
0060
00E0
00E0
00E0
00C0
00C0
01C0
01C0
01C0
0180
0180
0380
0380
0380
0300
4300
C600
C600
F800
ENDCHAR
STARTCHAR jcircumflex
ENCODING 309
SWIDTH 343 0
DWIDTH 9 0
BBX 12 23 -1 -5
BITMAP
01C0
03E0
0620
0C10
0000
03E0
00E0
00E0
00C0
00C0
00C0
01C0
01C0
0180
0180
0180
0380
0380
0300
4300
C600
C400
F800
ENDCHAR
STARTCHAR Kcommaaccent
ENCODING 310
SWIDTH 698 0
DWIDTH 17 0
BBX 19 27 1 -9
BITMAP
1FE3E0
078180
070300
070600
070800
061000
066000
0EC000
0F8000
0FC000
0CE000
0CE000
1C7000
1C3800
1C1C00
181C00
380E00
FE3F80
000000
00E000
00E000
00E000
004000
004000
00C000
00C000
018000
ENDCHAR
STARTCHAR kcommaaccent
ENCODING 311
SWIDTH 560 0
DWIDTH 14 0
BBX 13 27 2 -9
BITMAP
7C00
1C00
1C00
1C00
1800
1838
1830
3860
38C0
3100
3600
7E00
7700
6700
6380
61C0
E1E0
E0F8
0000
0700
0700
0700
0200
0200
0600
0600
0C00
ENDCHAR
STARTCHAR kgreenlandic
ENCODING 312
SWIDTH 560 0
DWIDTH 14 0
BBX 13 13 2 0
BITMAP
1838
1830
3860
38C0
3100
3600
7E00
7700
6700
6380
61C0
E1E0
E0F8
ENDCHAR
STARTCHAR Lacute
ENCODING 313
SWIDTH 572 0
DWIDTH 14 0
BBX 14 23 1 0
BITMAP
00E0
0180
0300
0600
0000
1FE0
0780
0700
0700
0700
0600
0600
0E00
0E00
0E00
0C00
0C00
1C00
1C00
1C04
180C
380C
FFF8
ENDCHAR
STARTCHAR lacute
ENCODING 314
SWIDTH 289 0
DWIDTH 7 0
BBX 8 23 2 0
BITMAP
07
0C
18
30
00
7C
1C
18
18
18
18
38
30
30
30
30
70
60
60
60
60
E0
F8
ENDCHAR
STARTCHAR Lcommaaccent
ENCODING 315
SWIDTH 572 0
DWIDTH 14 0
BBX 14 27 1 -9
BITMAP
1FE0
0780
0700
0700
0700
0600
0600
0E00
0E00
0E00
0C00
0C00
1C00
1C00
1C04
180C
380C
FFF8
0000
0700
0700
0700
0200
0200
0600
0600
0C00
ENDCHAR
STARTCHAR lcommaaccent
ENCODING 316
SWIDTH 289 0
DWIDTH 7 0
BBX 6 27 2 -9
BITMAP
7C
1C
18
18
18
18
38
30
30
30
30
70
60
60
60
60
E0
F8
00
70
70
70
20
20
60
60
C0
ENDCHAR
STARTCHAR Lcaron
ENCODING 317
SWIDTH 808 0
DWIDTH 20 0
BBX 20 18 1 0
BITMAP
1FE070
078070
070020
070020
070060
0600C0
060000
0E0000
0E0000
0E0000
0C0000
0C0000
1C0000
1C0000
1C0400
180C00
380C00
FFF800
ENDCHAR
STARTCHAR lcaron
ENCODING 318
SWIDTH 540 0
DWIDTH 14 0
BBX 13 18 2 0
BITMAP
7C38
1C38
1810
1810
1830
1860
3800
3000
3000
3000
3000
7000
6000
6000
6000
6000
E000
F800
ENDCHAR
STARTCHAR Ldot
ENCODING 319
SWIDTH 1151 0
DWIDTH 28 0
BBX 23 18 1 0
BITMAP
1FE000
078000
070000
070000
070000
060000
060000
0E0000
0E0000
0E000E
0C000E
0C000E
1C0000
1C0000
1C0400
180C00
380C00
FFF800
ENDCHAR
STARTCHAR ldot
ENCODING 320
SWIDTH 883 0
DWIDTH 22 0
BBX 16 18 2 0
BITMAP
7C00
1C00
1800
1800
1800
1800
3800
3000
3000
3007
3007
7007
6000
6000
6000
6000
E000
F800
ENDCHAR
STARTCHAR Lslash
ENCODING 321
SWIDTH 572 0
DWIDTH 14 0
BBX 14 18 0 0
BITMAP
0FE0
0380
0300
0700
0700
0700
0640
0FC0
0F00
1E00
6E00
4C00
1C00
1C00
1C00
1804
380C
FFF8
ENDCHAR
STARTCHAR lslash
ENCODING 322
SWIDTH 289 0
DWIDTH 7 0
BBX 9 18 1 0
BITMAP
3E00
0E00
0C00
0C00
0C00
0C00
1C00
1880
1F00
F800
1800
3800
3000
3000
3000
7000
7000
7C00
ENDCHAR
STARTCHAR Nacute
ENCODING 323
SWIDTH 762 0
DWIDTH 19 0
BBX 22 23 1 0
BITMAP
000E00
001800
003000
006000
000000
1F00FC
070030
078020
078020
05C060
04C040
04E040
0C7040
087040
083880
083880
081C80
180C80
100E80
100700
100700
300300
FC0100
ENDCHAR
STARTCHAR nacute
ENCODING 324
SWIDTH 631 0
DWIDTH 16 0
BBX 13 18 3 0
BITMAP
00E0
0180
0300
0600
0000
F870
39F8
3338
3638
3430
3830
7030
7070
6070
6060
6060
E060
E0F8
ENDCHAR
STARTCHAR Ncommaaccent
ENCODING 325
SWIDTH 762 0
DWIDTH 19 0
BBX 22 27 1 -9
BITMAP
1F00FC
070030
078020
078020
05C060
04C040
04E040
0C7040
087040
083880
083880
081C80
180C80
100E80
100700
100700
300300
FC0100
000000
007000
007000
007000
002000
002000
006000
006000
00C000
ENDCHAR
STARTCHAR ncommaaccent
ENCODING 326
SWIDTH 631 0
DWIDTH 16 0
BBX 13 22 3 -9
BITMAP
F870
39F8
3338
3638
3430
3830
7030
7070
6070
6060
6060
E060
E0F8
0000
0700
0700
0700
0200
0200
0600
0600
0C00
ENDCHAR
STARTCHAR Ncaron
ENCODING 327
SWIDTH 762 0
DWIDTH 19 0
BBX 22 23 1 0
BITMAP
010600
008C00
00F800
007000
000000
1F00FC
070030
078020
078020
05C060
04C040
04E040
0C7040
087040
083880
083880
081C80
180C80
100E80
100700
100700
300300
FC0100
ENDCHAR
STARTCHAR ncaron
ENCODING 328
SWIDTH 631 0
DWIDTH 16 0
BBX 13 18 3 0
BITMAP
1060
08C0
0F80
0700
0000
F870
39F8
3338
3638
3430
3830
7030
7070
6070
6060
6060
E060
E0F8
ENDCHAR
STARTCHAR napostrophe
ENCODING 329
SWIDTH 883 0
DWIDTH 23 0
BBX 19 18 4 0
BITMAP
700000
700000
200000
200000
600000
C3E1C0
00E7E0
00CCE0
00D8E0
00D0C0
00E0C0
01C0C0
01C1C0
0181C0
018180
018180
038180
0383E0
ENDCHAR
STARTCHAR Eng
ENCODING 330
SWIDTH 762 0
DWIDTH 19 0
BBX 22 23 1 -5
BITMAP
1F00FC
070030
078020
078020
05C060
04C040
04E040
0C7040
087040
083880
083880
081C80
180F80
100F80
100700
100700
300700
FC0700
000600
008600
018C00
018800
01F000
ENDCHAR
STARTCHAR eng
ENCODING 331
SWIDTH 631 0
DWIDTH 16 0
BBX 13 18 3 -5
BITMAP
F870
39F8
3338
3638
3430
3830
7030
7070
6060
6060
6060
E0E0
E0E0
00C0
10C0
3180
3100
3E00
ENDCHAR
STARTCHAR Omacron
ENCODING 332
SWIDTH 783 0
DWIDTH 20 0
BBX 18 20 3 0
BITMAP
03F800
000000
00FC00
030700
0E0380
1C0380
380180
3001C0
7001C0
6001C0
E00180
E00180
E00380
E00300
E00700
E00600
600C00
701800
387000
0FC000
ENDCHAR
STARTCHAR omacron
ENCODING 333
SWIDTH 560 0
DWIDTH 14 0
BBX 12 15 2 0
BITMAP
0FE0
0000
07C0
0C60
1870
3030
7030
6030
E070
E070
E060
E0E0
E0C0
F380
7E00
ENDCHAR
STARTCHAR Obreve
ENCODING 334
SWIDTH 783 0
DWIDTH 20 0
BBX 18 23 3 0
BITMAP
010200
010400
01F800
00F000
000000
00FC00
030700
0E0380
1C0380
380180
3001C0
7001C0
6001C0
E00180
E00180
E00380
E00300
E00700
E00600
600C00
701800
387000
0FC000
ENDCHAR
STARTCHAR obreve
ENCODING 335
SWIDTH 560 0
DWIDTH 14 0
BBX 12 18 2 0
BITMAP
0810
0820
0FC0
0780
0000
07C0
0C60
1870
3030
7030
6030
E070
E070
E060
E0E0
E0C0
F380
7E00
ENDCHAR
STARTCHAR Ohungarumlaut
ENCODING 336
SWIDTH 783 0
DWIDTH 20 0
BBX 18 23 3 0
BITMAP
003600
006800
009000
012000
000000
00FC00
030700
0E0380
1C0380
380180
3001C0
7001C0
6001C0
E00180
E00180
E00380
E00300
E00700
E00600
600C00
701800
387000
0FC000
ENDCHAR
STARTCHAR ohungarumlaut
ENCODING 337
SWIDTH 560 0
DWIDTH 14 0
BBX 12 18 2 0
BITMAP
01B0
0340
0480
0900
0000
07C0
0C60
1870
3030
7030
6030
E070
E070
E060
E0E0
E0C0
F380
7E00
ENDCHAR
STARTCHAR OE
ENCODING 338
SWIDTH 1005 0
DWIDTH 25 0
BBX 25 18 3 0
BITMAP
00F9FF80
03878180
0E038180
1C038100
18030000
30030000
70070400
60070400
E007FC00
E0060C00
E0060C00
E00E0000
E00E0000
E00E0000
601C0600
701C0400
383C0C00
0FDFFC00
ENDCHAR
STARTCHAR oe
ENCODING 339
SWIDTH 892 0
DWIDTH 22 0
BBX 20 13 2 0
BITMAP
03E3E0
0C6470
187830
303830
607060
6070E0
E07180
E07E00
E07000
E0F000
E1F010
73B860
3E1F80
ENDCHAR
STARTCHAR Racute
ENCODING 340
SWIDTH 686 0
DWIDTH 17 0
BBX 17 23 0 0
BITMAP
001C00
003000
006000
00C000
000000
0FFE00
030F00
030700
070300
070300
070300
060600
060C00
0E1800
0FE000
0E7000
0C3000
1C3800
1C1800
1C1C00
180C00
380E00
FF0780
ENDCHAR
STARTCHAR racute
ENCODING 341
SWIDTH 470 0
DWIDTH 12 0
BBX 11 18 3 0
BITMAP
01C0
0300
0600
0C00
0000
F860
39E0
33C0
3600
3C00
3800
7000
7000
6000
6000
6000
E000
E000
ENDCHAR
STARTCHAR Rcommaaccent
ENCODING 342
SWIDTH 686 0
DWIDTH 17 0
BBX 17 27 0 -9
BITMAP
0FFE00
030F00
030700
070300
070300
070300
060600
060C00
0E1800
0FE000
0E7000
0C3000
1C3800
1C1800
1C1C00
180C00
380E00
FF0780
000000
01C000
01C000
01C000
008000
008000
018000
018000
030000
ENDCHAR
STARTCHAR rcommaaccent
ENCODING 343
SWIDTH 470 0
DWIDTH 12 0
BBX 11 22 3 -9
BITMAP
F860
39E0
33C0
3600
3C00
3800
7000
7000
6000
6000
6000
E000
E000
0000
3800
3800
3800
1000
1000
3000
3000
6000
ENDCHAR
STARTCHAR Rcaron
ENCODING 344
SWIDTH 686 0
DWIDTH 17 0
BBX 17 23 0 0
BITMAP
020C00
011800
01F000
00E000
000000
0FFE00
030F00
030700
070300
070300
070300
060600
060C00
0E1800
0FE000
0E7000
0C3000
1C3800
1C1800
1C1C00
180C00
380E00
FF0780
ENDCHAR
STARTCHAR rcaron
ENCODING 345
SWIDTH 470 0
DWIDTH 12 0
BBX 11 18 3 0
BITMAP
20C0
1180
1F00
0E00
0000
F860
39E0
33C0
3600
3C00
3800
7000
7000
6000
6000
6000
E000
E000
ENDCHAR
STARTCHAR Sacute
ENCODING 346
SWIDTH 549 0
DWIDTH 14 0
BBX 14 23 2 0
BITMAP
0070
00C0
0180
0300
0000
03F0
061C
0C0C
1C0C
1C08
1C00
1E00
0F00
0780
03E0
00E0
0070
0070
4070
C070
C060
E0C0
3F00
ENDCHAR
STARTCHAR sacute
ENCODING 347
SWIDTH 440 0
DWIDTH 11 0
BBX 10 18 1 0
BITMAP
01C0
0300
0600
0C00
0000
07C0
1C40
1840
1840
1C00
1E00
0F00
0780
0380
C180
C180
C300
7E00
ENDCHAR
STARTCHAR Scircumflex
ENCODING 348
SWIDTH 549 0
DWIDTH 14 0
BBX 14 23 2 0
BITMAP
01C0
03E0
0620
0C10
0000
03F0
061C
0C0C
1C0C
1C08
1C00
1E00
0F00
0780
03E0
00E0
0070
0070
4070
C070
C060
E0C0
3F00
ENDCHAR
STARTCHAR scircumflex
ENCODING 349
SWIDTH 440 0
DWIDTH 11 0
BBX 10 18 1 0
BITMAP
0700
0F80
1880
3040
0000
07C0
1C40
1840
1840
1C00
1E00
0F00
0780
0380
C180
C180
C300
7E00
ENDCHAR
STARTCHAR Scedilla
ENCODING 350
SWIDTH 549 0
DWIDTH 14 0
BBX 14 23 2 -5
BITMAP
03F0
061C
0C0C
1C0C
1C08
1C00
1E00
0F00
0780
03E0
00E0
0070
0070
4070
C070
C060
E0C0
3F00
0200
0600
0300
0300
0E00
ENDCHAR
STARTCHAR scedilla
ENCODING 351
SWIDTH 440 0
DWIDTH 11 0
BBX 10 18 1 -5
BITMAP
07C0
1C40
1840
1840
1C00
1E00
0F00
0780
0380
C180
C180
C300
7E00
0800
1800
0C00
0C00
3800
ENDCHAR
STARTCHAR Scaron
ENCODING 352
SWIDTH 549 0
DWIDTH 14 0
BBX 14 23 2 0
BITMAP
020C
0118
01F0
00E0
0000
03F0
061C
0C0C
1C0C
1C08
1C00
1E00
0F00
0780
03E0
00E0
0070
0070
4070
C070
C060
E0C0
3F00
ENDCHAR
STARTCHAR scaron
ENCODING 353
SWIDTH 440 0
DWIDTH 11 0
BBX 13 18 1 0
BITMAP
0418
0230
03E0
01C0
0000
07C0
1C40
1840
1840
1C00
1E00
0F00
0780
0380
C180
C180
C300
7E00
ENDCHAR
STARTCHAR Tcommaaccent
ENCODING 354
SWIDTH 663 0
DWIDTH 17 0
BBX 16 23 4 -5
BITMAP
7FFF
C183
8182
0380
0380
0300
0300
0300
0700
0700
0600
0600
0600
0E00
0E00
0E00
1E00
7F80
0200
0600
0300
0300
0E00
ENDCHAR
STARTCHAR tcommaaccent
ENCODING 355
SWIDTH 355 0
DWIDTH 9 0
BBX 8 22 3 -5
BITMAP
08
18
38
38
FF
30
30
70
70
60
60
60
E0
E0
E0
E0
78
20
60
30
30
E0
ENDCHAR
STARTCHAR Tcaron
ENCODING 356
SWIDTH 663 0
DWIDTH 17 0
BBX 16 23 4 0
BITMAP
0830
0460
07C0
0380
0000
7FFF
C183
8182
0380
0380
0300
0300
0300
0700
0700
0600
0600
0600
0E00
0E00
0E00
1E00
7F80
ENDCHAR
STARTCHAR tcaron
ENCODING 357
SWIDTH 602 0
DWIDTH 16 0
BBX 14 18 3 0
BITMAP
001C
081C
1808
3808
3818
FF30
3000
3000
7000
7000
6000
6000
6000
E000
E000
E000
E000
7800
ENDCHAR
STARTCHAR Tbar
ENCODING 358
SWIDTH 663 0
DWIDTH 17 0
BBX 16 18 4 0
BITMAP
7FFF
C183
8182
0380
0380
0300
0300
0300
1FFC
1FFC
0600
0600
0600
0E00
0E00
0E00
1E00
7F80
ENDCHAR
STARTCHAR tbar
ENCODING 359
SWIDTH 355 0
DWIDTH 9 0
BBX 11 17 2 0
BITMAP
0400
0C00
1C00
1C00
7F80
1800
1800
3800
3800
3000
FFE0
FFE0
7000
7000
7000
7000
3C00
ENDCHAR
STARTCHAR Utilde
ENCODING 360
SWIDTH 727 0
DWIDTH 18 0
BBX 18 22 4 0
BITMAP
071000
07E000
08E000
000000
FE0FC0
380300
380200
300200
300200
700600
700400
700400
600400
600C00
E00800
E00800
E00800
C01800
E01000
603000
706000
1F8000
ENDCHAR
STARTCHAR utilde
ENCODING 361
SWIDTH 630 0
DWIDTH 16 0
BBX 13 17 3 0
BITMAP
0E20
0FC0
11C0
0000
F8F8
3038
3030
3030
7030
7070
6070
60E0
6160
E360
E660
FCE0
70F8
ENDCHAR
STARTCHAR Umacron
ENCODING 362
SWIDTH 727 0
DWIDTH 18 0
BBX 18 20 4 0
BITMAP
07F000
000000
FE0FC0
380300
380200
300200
300200
700600
700400
700400
600400
600C00
E00800
E00800
E00800
C01800
E01000
603000
706000
1F8000
ENDCHAR
STARTCHAR umacron
ENCODING 363
SWIDTH 630 0
DWIDTH 16 0
BBX 13 15 3 0
BITMAP
1FC0
0000
F8F8
3038
3030
3030
7030
7070
6070
60E0
6160
E360
E660
FCE0
70F8
ENDCHAR
STARTCHAR Ubreve
ENCODING 364
SWIDTH 727 0
DWIDTH 18 0
BBX 18 23 4 0
BITMAP
040800
041000
07E000
03C000
000000
FE0FC0
380300
380200
300200
300200
700600
700400
700400
600400
600C00
E00800
E00800
E00800
C01800
E01000
603000
706000
1F8000
ENDCHAR
STARTCHAR ubreve
ENCODING 365
SWIDTH 630 0
DWIDTH 16 0
BBX 13 18 3 0
BITMAP
0810
0820
0FC0
0780
0000
F8F8
3038
3030
3030
7030
7070
6070
60E0
6160
E360
E660
FCE0
70F8
ENDCHAR
STARTCHAR Uring
ENCODING 366
SWIDTH 727 0
DWIDTH 18 0
BBX 18 23 4 0
BITMAP
018000
024000
024000
018000
000000
FE0FC0
380300
380200
300200
300200
700600
700400
700400
600400
600C00
E00800
E00800
E00800
C01800
E01000
603000
706000
1F8000
ENDCHAR
STARTCHAR uring
ENCODING 367
SWIDTH 630 0
DWIDTH 16 0
BBX 13 18 3 0
BITMAP
0300
0480
0480
0300
0000
F8F8
3038
3030
3030
7030
7070
6070
60E0
6160
E360
E660
FCE0
70F8
ENDCHAR
STARTCHAR Uhungarumlaut
ENCODING 368
SWIDTH 727 0
DWIDTH 18 0
BBX 18 23 4 0
BITMAP
00D800
01A000
024000
048000
000000
FE0FC0
380300
380200
300200
300200
700600
700400
700400
600400
600C00
E00800
E00800
E00800
C01800
E01000
603000
706000
1F8000
ENDCHAR
STARTCHAR uhungarumlaut
ENCODING 369
SWIDTH 630 0
DWIDTH 16 0
BBX 13 18 3 0
BITMAP
01B0
0340
0480
0900
0000
F8F8
3038
3030
3030
7030
7070
6070
60E0
6160
E360
E660
FCE0
70F8
ENDCHAR
STARTCHAR Uogonek
ENCODING 370
SWIDTH 727 0
DWIDTH 18 0
BBX 18 23 4 -5
BITMAP
FE0FC0
380300
380200
300200
300200
700600
700400
700400
600400
600C00
E00800
E00800
E00800
C01800
E01000
603000
706000
1F8000
000000
038000
060000
060000
038000
ENDCHAR
STARTCHAR uogonek
ENCODING 371
SWIDTH 630 0
DWIDTH 16 0
BBX 13 18 3 -5
BITMAP
F8F8
3038
3030
3030
7030
7070
6070
60E0
6160
E360
E660
FCE0
70F8
0000
0700
0C00
0C00
0700
ENDCHAR
STARTCHAR Wcircumflex
ENCODING 372
SWIDTH 878 0
DWIDTH 22 0
BBX 23 23 3 0
BITMAP
003800
007C00
00C400
018200
000000
FC183E
701808
303818
303810
305820
305820
309840
309840
311880
311880
3A1900
3A1900
3C1E00
3C1E00
381C00
381C00
301800
300800
ENDCHAR
STARTCHAR wcircumflex
ENCODING 373
SWIDTH 805 0
DWIDTH 20 0
BBX 20 18 2 0
BITMAP
003800
007C00
00C400
018200
000000
F02070
383070
383060
187060
187840
1CB8C0
1C9980
0D1900
0F1A00
0E1E00
0C1C00
0C1800
081800
ENDCHAR
STARTCHAR Ycircumflex
ENCODING 374
SWIDTH 663 0
DWIDTH 17 0
BBX 17 23 3 0
BITMAP
01C000
03E000
062000
0C1000
000000
FE0F80
780200
380400
380800
1C1000
1C3000
0E6000
0E4000
068000
070000
070000
060000
060000
0E0000
0E0000
0E0000
1E0000
7F8000
ENDCHAR
STARTCHAR ycircumflex
ENCODING 375
SWIDTH 558 0
DWIDTH 14 0
BBX 16 23 0 -5
BITMAP
00E0
01F0
0310
0608
0000
7C0F
1C07
0E06
0606
060C
0608
0710
0730
0320
0340
0380
0300
0200
0600
0C00
1800
3000
F000
ENDCHAR
STARTCHAR Ydieresis
ENCODING 376
SWIDTH 663 0
DWIDTH 17 0
BBX 17 21 3 0
BITMAP
031800
031800
000000
FE0F80
780200
380400
380800
1C1000
1C3000
0E6000
0E4000
068000
070000
070000
060000
060000
0E0000
0E0000
0E0000
1E0000
7F8000
ENDCHAR
STARTCHAR Zacute
ENCODING 377
SWIDTH 633 0
DWIDTH 16 0
BBX 16 23 1 0
BITMAP
0038
0060
00C0
0180
0000
0FFF
0C06
080E
181C
0038
0070
0060
00E0
01C0
0380
0700
0600
0E00
1C00
3800
700C
6018
FFF8
ENDCHAR
STARTCHAR zacute
ENCODING 378
SWIDTH 536 0
DWIDTH 13 0
BBX 13 18 1 0
BITMAP
00E0
0180
0300
0600
0000
1FF8
1030
3060
00C0
01C0
0380
0700
0E00
1C00
3800
3030
6020
FFE0
ENDCHAR
STARTCHAR Zdotaccent
ENCODING 379
SWIDTH 633 0
DWIDTH 16 0
BBX 16 21 1 0
BITMAP
00E0
00E0
0000
0FFF
0C06
080E
181C
0038
0070
0060
00E0
01C0
0380
0700
0600
0E00
1C00
3800
700C
6018
FFF8
ENDCHAR
STARTCHAR zdotaccent
ENCODING 380
SWIDTH 536 0
DWIDTH 13 0
BBX 13 16 1 0
BITMAP
0380
0380
0000
1FF8
1030
3060
00C0
01C0
0380
0700
0E00
1C00
3800
3030
6020
FFE0
ENDCHAR
STARTCHAR Zcaron
ENCODING 381
SWIDTH 633 0
DWIDTH 16 0
BBX 16 23 1 0
BITMAP
0106
008C
00F8
0070
0000
0FFF
0C06
080E
181C
0038
0070
0060
00E0
01C0
0380
0700
0600
0E00
1C00
3800
700C
6018
FFF8
ENDCHAR
STARTCHAR zcaron
ENCODING 382
SWIDTH 536 0
DWIDTH 13 0
BBX 14 18 1 0
BITMAP
020C
0118
01F0
00E0
0000
1FF8
1030
3060
00C0
01C0
0380
0700
0E00
1C00
3800
3030
6020
FFE0
ENDCHAR
STARTCHAR uni0186
ENCODING 390
SWIDTH 714 0
DWIDTH 18 0
BBX 17 18 3 0
BITMAP
07F800
181E00
000700
000300
000380
000380
000380
000380
000380
000380
000700
000700
000600
000E00
401C00
C03800
E0E000
FF8000
ENDCHAR
STARTCHAR uni0189
ENCODING 393
SWIDTH 770 0
DWIDTH 19 0
BBX 19 18 1 0
BITMAP
1FFE00
070780
0701C0
0700C0
0600E0
0600E0
0E00E0
0E00E0
7FE0E0
0C00E0
0C00C0
1C01C0
1C01C0
1C0380
180700
180E00
383C00
FFF000
ENDCHAR
STARTCHAR uni018E
ENCODING 398
SWIDTH 569 0
DWIDTH 14 0
BBX 16 18 1 0
BITMAP
1FFF
101C
3018
0038
0038
0038
0030
0830
1870
1FF0
1070
1060
0060
00E0
00E0
40E0
C0E0
FFF8
ENDCHAR
STARTCHAR florin
ENCODING 402
SWIDTH 608 0
DWIDTH 15 0
BBX 12 22 4 -4
BITMAP
01F0
0230
0630
0C20
0C00
0C00
1C00
1C00
1800
FF00
3800
3800
3000
3000
3000
7000
7000
6000
6000
6000
E000
E000
ENDCHAR
STARTCHAR uni0197
ENCODING 407
SWIDTH 325 0
DWIDTH 8 0
BBX 11 18 0 0
BITMAP
0FE0
0380
0300
0700
0700
0700
0600
0600
FFE0
FFE0
0C00
0C00
1C00
1C00
1C00
1800
3800
FE00
ENDCHAR
STARTCHAR uni019A
ENCODING 410
SWIDTH 289 0
DWIDTH 7 0
BBX 11 18 0 0
BITMAP
1F00
0700
0600
0600
0600
0600
0E00
0C00
FFE0
FFE0
0C00
1C00
1800
1800
1800
1800
3800
3E00
ENDCHAR
STARTCHAR uni019D
ENCODING 413
SWIDTH 762 0
DWIDTH 19 0
BBX 26 23 -3 -5
BITMAP
01F00FC0
00700300
00780200
00780200
005C0600
004C0400
004E0400
00C70400
00870400
00838800
00838800
0081C800
01C0C800
0180E800
01807000
01807000
03803000
03801000
03000000
43000000
C6000000
C4000000
F8000000
ENDCHAR
STARTCHAR uni019F
ENCODING 415
SWIDTH 783 0
DWIDTH 20 0
BBX 18 18 3 0
BITMAP
00FC00
030700
0E0380
1C0380
380180
3001C0
7001C0
6001C0
FFFFC0
FFFFC0
E00380
E00300
E00700
E00600
600C00
701800
387000
0FC000
ENDCHAR
STARTCHAR Ohorn
ENCODING 416
SWIDTH 783 0
DWIDTH 20 0
BBX 20 18 3 0
BITMAP
00FC70
030770
0E03A0
1C03A0
3801E0
3001C0
7001C0
6001C0
E00180
E00180
E00380
E00300
E00700
E00600
600C00
701800
387000
0FC000
ENDCHAR
STARTCHAR ohorn
ENCODING 417
SWIDTH 560 0
DWIDTH 14 0
BBX 15 13 2 0
BITMAP
07CE
0C6E
1874
3034
703C
6038
E070
E070
E060
E0E0
E0C0
F380
7E00
ENDCHAR
STARTCHAR Uhorn
ENCODING 431
SWIDTH 727 0
DWIDTH 18 0
BBX 20 18 4 0
BITMAP
FE0FF0
380370
380220
300220
300260
7006C0
700400
700400
600400
600C00
E00800
E00800
E00800
C01800
E01000
603000
706000
1F8000
ENDCHAR
STARTCHAR uhorn
ENCODING 432
SWIDTH 630 0
DWIDTH 16 0
BBX 16 13 3 0
BITMAP
F8FF
303F
3032
3032
7036
707C
6070
60E0
6160
E360
E660
FCE0
70F8
ENDCHAR
STARTCHAR uni01B5
ENCODING 437
SWIDTH 633 0
DWIDTH 16 0
BBX 16 18 1 0
BITMAP
0FFF
0C06
080E
181C
0038
0070
0060
00E0
1FFC
1FFC
0700
0600
0E00
1C00
3800
700C
6018
FFF8
ENDCHAR
STARTCHAR uni01B6
ENCODING 438
SWIDTH 536 0
DWIDTH 13 0
BBX 13 13 1 0
BITMAP
1FF8
1030
3060
00C0
01C0
7FF0
7FF0
0E00
1C00
3800
3030
6020
FFE0
ENDCHAR
STARTCHAR uni01BB
ENCODING 443
SWIDTH 608 0
DWIDTH 15 0
BBX 14 18 2 0
BITMAP
03F0
0C38
081C
181C
001C
001C
0018
0030
FFFC
FFFC
0300
0600
0800
1000
2000
6000
FFE0
FFE0
ENDCHAR
STARTCHAR uni01BC
ENCODING 444
SWIDTH 608 0
DWIDTH 15 0
BBX 13 18 3 0
BITMAP
0FF8
0FF8
1000
1000
1000
1000
3F00
01C0
00E0
0060
0060
0060
0060
0060
40C0
C1C0
C380
FE00
ENDCHAR
STARTCHAR uni01C0
ENCODING 448
SWIDTH 241 0
DWIDTH 6 0
BBX 6 22 2 -4
BITMAP
0C
0C
0C
08
18
18
18
18
10
30
30
30
30
20
60
60
60
60
40
C0
C0
C0
ENDCHAR
STARTCHAR uni01C2
ENCODING 450
SWIDTH 608 0
DWIDTH 15 0
BBX 16 22 1 -4
BITMAP
0060
0060
0060
0040
00C0
00C0
00C0
00C0
7FFF
0180
0180
0180
0180
FFFE
0300
0300
0300
0300
0200
0600
0600
0600
ENDCHAR
STARTCHAR uni01C3
ENCODING 451
SWIDTH 265 0
DWIDTH 7 0
BBX 6 18 2 0
BITMAP
1C
1C
18
18
18
18
10
30
30
30
20
20
20
00
00
00
E0
E0
ENDCHAR
STARTCHAR uni01CD
ENCODING 461
SWIDTH 747 0
DWIDTH 19 0
BBX 19 23 0 0
BITMAP
008300
004600
007C00
003800
000000
000C00
000C00
001C00
003E00
002E00
004E00
00CE00
008600
010600
010700
020700
07FF00
040300
080300
100380
100380
200380
F80FE0
ENDCHAR
STARTCHAR uni01CE
ENCODING 462
SWIDTH 608 0
DWIDTH 15 0
BBX 13 18 2 0
BITMAP
0418
0230
03E0
01C0
0000
03F8
0438
1830
1030
3030
6030
6070
E0E0
E160
E360
E660
FCE0
70F8
ENDCHAR
STARTCHAR uni01CF
ENCODING 463
SWIDTH 325 0
DWIDTH 8 0
BBX 11 23 0 0
BITMAP
1060
08C0
0F80
0700
0000
0FE0
0380
0300
0700
0700
0700
0600
0600
0E00
0E00
0C00
0C00
1C00
1C00
1C00
1800
3800
FE00
ENDCHAR
STARTCHAR uni01D0
ENCODING 464
SWIDTH 289 0
DWIDTH 7 0
BBX 8 18 2 0
BITMAP
83
46
7C
38
00
7C
1C
18
18
18
18
38
30
30
30
30
70
7C
ENDCHAR
STARTCHAR uni01D1
ENCODING 465
SWIDTH 783 0
DWIDTH 20 0
BBX 18 23 3 0
BITMAP
020C00
011800
01F000
00E000
000000
00FC00
030700
0E0380
1C0380
380180
3001C0
7001C0
6001C0
E00180
E00180
E00380
E00300
E00700
E00600
600C00
701800
387000
0FC000
ENDCHAR
STARTCHAR uni01D2
ENCODING 466
SWIDTH 560 0
DWIDTH 14 0
BBX 12 18 2 0
BITMAP
1060
08C0
0F80
0700
0000
07C0
0C60
1870
3030
7030
6030
E070
E070
E060
E0E0
E0C0
F380
7E00
ENDCHAR
STARTCHAR uni01D3
ENCODING 467
SWIDTH 727 0
DWIDTH 18 0
BBX 18 23 4 0
BITMAP
041800
023000
03E000
01C000
000000
FE0FC0
380300
380200
300200
300200
700600
700400
700400
600400
600C00
E00800
E00800
E00800
C01800
E01000
603000
706000
1F8000
ENDCHAR
STARTCHAR uni01D4
ENCODING 468
SWIDTH 630 0
DWIDTH 16 0
BBX 13 18 3 0
BITMAP
1060
08C0
0F80
0700
0000
F8F8
3038
3030
3030
7030
7070
6070
60E0
6160
E360
E660
FCE0
70F8
ENDCHAR
STARTCHAR uni01D5
ENCODING 469
SWIDTH 727 0
DWIDTH 18 0
BBX 18 23 4 0
BITMAP
07F000
000000
031800
031800
000000
FE0FC0
380300
380200
300200
300200
700600
700400
700400
600400
600C00
E00800
E00800
E00800
C01800
E01000
603000
706000
1F8000
ENDCHAR
STARTCHAR uni01D6
ENCODING 470
SWIDTH 630 0
DWIDTH 16 0
BBX 13 18 3 0
BITMAP
0FE0
0000
0318
0318
0000
F8F8
3038
3030
3030
7030
7070
6070
60E0
6160
E360
E660
FCE0
70F8
ENDCHAR
STARTCHAR uni01D7
ENCODING 471
SWIDTH 727 0
DWIDTH 18 0
BBX 18 26 4 0
BITMAP
003800
006000
00C000
018000
000000
031800
031800
000000
FE0FC0
380300
380200
300200
300200
700600
700400
700400
600400
600C00
E00800
E00800
E00800
C01800
E01000
603000
706000
1F8000
ENDCHAR
STARTCHAR uni01D8
ENCODING 472
SWIDTH 630 0
DWIDTH 16 0
BBX 13 21 3 0
BITMAP
00E0
0180
0300
0600
0000
0318
0318
0000
F8F8
3038
3030
3030
7030
7070
6070
60E0
6160
E360
E660
FCE0
70F8
ENDCHAR
STARTCHAR uni01D9
ENCODING 473
SWIDTH 727 0
DWIDTH 18 0
BBX 18 26 4 0
BITMAP
041800
023000
03E000
01C000
000000
031800
031800
000000
FE0FC0
380300
380200
300200
300200
700600
700400
700400
600400
600C00
E00800
E00800
E00800
C01800
E01000
603000
706000
1F8000
ENDCHAR
STARTCHAR uni01DA
ENCODING 474
SWIDTH 630 0
DWIDTH 16 0
BBX 13 21 3 0
BITMAP
0830
0460
07C0
0380
0000
0318
0318
0000
F8F8
3038
3030
3030
7030
7070
6070
60E0
6160
E360
E660
FCE0
70F8
ENDCHAR
STARTCHAR uni01DB
ENCODING 475
SWIDTH 727 0
DWIDTH 18 0
BBX 18 26 4 0
BITMAP
038000
018000
008000
004000
000000
031800
031800
000000
FE0FC0
380300
380200
300200
300200
700600
700400
700400
600400
600C00
E00800
E00800
E00800
C01800
E01000
603000
706000
1F8000
ENDCHAR
STARTCHAR uni01DC
ENCODING 476
SWIDTH 630 0
DWIDTH 16 0
BBX 13 21 3 0
BITMAP
0700
0300
0100
0080
0000
0318
0318
0000
F8F8
3038
3030
3030
7030
7070
6070
60E0
6160
E360
E660
FCE0
70F8
ENDCHAR
STARTCHAR uni01DD
ENCODING 477
SWIDTH 518 0
DWIDTH 13 0
BBX 11 13 2 0
BITMAP
1F80
71C0
C0E0
00E0
00E0
07E0
18E0
70C0
60C0
E180
E100
E200
7C00
ENDCHAR
STARTCHAR uni01DE
ENCODING 478
SWIDTH 747 0
DWIDTH 19 0
BBX 19 23 0 0
BITMAP
00FE00
000000
003180
003180
000000
000C00
000C00
001C00
003E00
002E00
004E00
00CE00
008600
010600
010700
020700
07FF00
040300
080300
100380
100380
200380
F80FE0
ENDCHAR
STARTCHAR uni01DF
ENCODING 479
SWIDTH 608 0
DWIDTH 15 0
BBX 13 18 2 0
BITMAP
07F0
0000
0318
0318
0000
03F8
0438
1830
1030
3030
6030
6070
E0E0
E160
E360
E660
FCE0
70F8
ENDCHAR
STARTCHAR uni01E0
ENCODING 480
SWIDTH 747 0
DWIDTH 19 0
BBX 19 23 0 0
BITMAP
00FE00
000000
003800
003800
000000
000C00
000C00
001C00
003E00
002E00
004E00
00CE00
008600
010600
010700
020700
07FF00
040300
080300
100380
100380
200380
F80FE0
ENDCHAR
STARTCHAR uni01E1
ENCODING 481
SWIDTH 608 0
DWIDTH 15 0
BBX 13 18 2 0
BITMAP
07F0
0000
01C0
01C0
0000
03F8
0438
1830
1030
3030
6030
6070
E0E0
E160
E360
E660
FCE0
70F8
ENDCHAR
STARTCHAR uni01E2
ENCODING 482
SWIDTH 907 0
DWIDTH 23 0
BBX 25 20 0 0
BITMAP
000FE000
00000000
0001FF80
00038180
00078100
000B8000
00138000
00130000
00230000
00470400
00870400
0187FC00
01070400
02060000
07FE0000
080E0000
080E0000
100C0600
201C0400
F87FFC00
ENDCHAR
STARTCHAR uni01E3
ENCODING 483
SWIDTH 881 0
DWIDTH 22 0
BBX 20 15 2 0
BITMAP
00FE00
000000
03F9E0
043E70
181C30
103830
303870
603060
6071C0
E0FE00
E0B000
E13000
E63010
FC3860
781F80
ENDCHAR
STARTCHAR uni01E4
ENCODING 484
SWIDTH 756 0
DWIDTH 19 0
BBX 20 18 3 0
BITMAP
00FF00
038380
0E0100
1C0100
380000
300000
700000
700000
E00000
E00000
E03F80
E00E00
E00C00
E07FF0
607FF0
701C00
381C00
0FE000
ENDCHAR
STARTCHAR uni01E5
ENCODING 485
SWIDTH 602 0
DWIDTH 15 0
BBX 14 18 1 -5
BITMAP
01FC
021C
0C1C
1818
1818
3038
3038
7078
70B0
71B0
7330
7E70
FFFC
FFFC
8060
C0C0
7080
7F00
ENDCHAR
STARTCHAR Gcaron
ENCODING 486
SWIDTH 756 0
DWIDTH 19 0
BBX 17 23 3 0
BITMAP
041800
023000
03E000
01C000
000000
00FF00
038380
0E0100
1C0100
380000
300000
700000
700000
E00000
E00000
E03F80
E00E00
E00C00
E00C00
601C00
701C00
381C00
0FE000
ENDCHAR
STARTCHAR gcaron
ENCODING 487
SWIDTH 602 0
DWIDTH 15 0
BBX 14 23 1 -5
BITMAP
0418
0230
03E0
01C0
0000
01FC
021C
0C1C
1818
1818
3038
3038
7078
70B0
71B0
7330
7E70
3860
0060
8060
C0C0
7080
7F00
ENDCHAR
STARTCHAR uni01E8
ENCODING 488
SWIDTH 698 0
DWIDTH 17 0
BBX 19 23 1 0
BITMAP
020C00
011800
01F000
00E000
000000
1FE3E0
078180
070300
070600
070800
061000
066000
0EC000
0F8000
0FC000
0CE000
0CE000
1C7000
1C3800
1C1C00
181C00
380E00
FE3F80
ENDCHAR
STARTCHAR uni01E9
ENCODING 489
SWIDTH 560 0
DWIDTH 14 0
BBX 13 23 2 0
BITMAP
4180
2300
3E00
1C00
0000
7C00
1C00
1C00
1C00
1800
1838
1830
3860
38C0
3100
3600
7E00
7700
6700
6380
61C0
E1E0
E0F8
ENDCHAR
STARTCHAR uni01EA
ENCODING 490
SWIDTH 783 0
DWIDTH 20 0
BBX 18 23 3 -5
BITMAP
00FC00
030700
0E0380
1C0380
380180
3001C0
7001C0
6001C0
E00180
E00180
E00380
E00300
E00700
E00600
600C00
701800
387000
0FC000
000000
01C000
030000
030000
01C000
ENDCHAR
STARTCHAR uni01EB
ENCODING 491
SWIDTH 560 0
DWIDTH 14 0
BBX 12 18 2 -5
BITMAP
07C0
0C60
1870
3030
7030
6030
E070
E070
E060
E0E0
E0C0
F380
7E00
0000
0E00
1800
1800
0E00
ENDCHAR
STARTCHAR uni01EC
ENCODING 492
SWIDTH 783 0
DWIDTH 20 0
BBX 18 25 3 -5
BITMAP
03F800
000000
00FC00
030700
0E0380
1C0380
380180
3001C0
7001C0
6001C0
E00180
E00180
E00380
E00300
E00700
E00600
600C00
701800
387000
0FC000
000000
01C000
030000
030000
01C000
ENDCHAR
STARTCHAR uni01ED
ENCODING 493
SWIDTH 560 0
DWIDTH 14 0
BBX 12 20 2 -5
BITMAP
1FC0
0000
07C0
0C60
1870
3030
7030
6030
E070
E070
E060
E0E0
E0C0
F380
7E00
0000
0E00
1800
1800
0E00
ENDCHAR
STARTCHAR uni01F0
ENCODING 496
SWIDTH 343 0
DWIDTH 9 0
BBX 12 23 -1 -5
BITMAP
0830
0460
07C0
0380
0000
03E0
00E0
00E0
00C0
00C0
00C0
01C0
01C0
0180
0180
0180
0380
0380
0300
4300
C600
C400
F800
ENDCHAR
STARTCHAR uni01F4
ENCODING 500
SWIDTH 756 0
DWIDTH 19 0
BBX 17 23 3 0
BITMAP
003800
006000
00C000
018000
000000
00FF00
038380
0E0100
1C0100
380000
300000
700000
700000
E00000
E00000
E03F80
E00E00
E00C00
E00C00
601C00
701C00
381C00
0FE000
ENDCHAR
STARTCHAR uni01F5
ENCODING 501
SWIDTH 602 0
DWIDTH 15 0
BBX 14 23 1 -5
BITMAP
0038
0060
00C0
0180
0000
01FC
021C
0C1C
1818
1818
3038
3038
7078
70B0
71B0
7330
7E70
3860
0060
8060
C0C0
7080
7F00
ENDCHAR
STARTCHAR uni01F8
ENCODING 504
SWIDTH 762 0
DWIDTH 19 0
BBX 22 23 1 0
BITMAP
00E000
006000
002000
001000
000000
1F00FC
070030
078020
078020
05C060
04C040
04E040
0C7040
087040
083880
083880
081C80
180C80
100E80
100700
100700
300300
FC0100
ENDCHAR
STARTCHAR uni01F9
ENCODING 505
SWIDTH 631 0
DWIDTH 16 0
BBX 13 18 3 0
BITMAP
0E00
0600
0200
0100
0000
F870
39F8
3338
3638
3430
3830
7030
7070
6070
6060
6060
E060
E0F8
ENDCHAR
STARTCHAR Aringacute
ENCODING 506
SWIDTH 747 0
DWIDTH 19 0
BBX 19 28 0 0
BITMAP
000700
000C00
001800
003000
000000
000600
000900
000900
000600
000000
000C00
000C00
001C00
003E00
002E00
004E00
00CE00
008600
010600
010700
020700
07FF00
040300
080300
100380
100380
200380
F80FE0
ENDCHAR
STARTCHAR aringacute
ENCODING 507
SWIDTH 608 0
DWIDTH 15 0
BBX 13 23 2 0
BITMAP
0038
0060
00C0
0180
0000
0060
0090
0090
0060
0000
03F8
0438
1830
1030
3030
6030
6070
E0E0
E160
E360
E660
FCE0
70F8
ENDCHAR
STARTCHAR AEacute
ENCODING 508
SWIDTH 907 0
DWIDTH 23 0
BBX 25 23 0 0
BITMAP
00007000
0000C000
00018000
00030000
00000000
0001FF80
00038180
00078100
000B8000
00138000
00130000
00230000
00470400
00870400
0187FC00
01070400
02060000
07FE0000
080E0000
080E0000
100C0600
201C0400
F87FFC00
ENDCHAR
STARTCHAR aeacute
ENCODING 509
SWIDTH 881 0
DWIDTH 22 0
BBX 20 18 2 0
BITMAP
000700
000C00
001800
003000
000000
03F9E0
043E70
181C30
103830
303870
603060
6071C0
E0FE00
E0B000
E13000
E63010
FC3860
781F80
ENDCHAR
STARTCHAR Oslashacute
ENCODING 510
SWIDTH 783 0
DWIDTH 20 0
BBX 21 23 1 0
BITMAP
000700
000C00
001800
003000
000000
007E18
01C3A0
0301C0
0600E0
0C01E0
1C02E0
180460
381860
3830E0
3060E0
30C0C0
7100C0
320180
340380
380300
180600
2C1C00
C7E000
ENDCHAR
STARTCHAR oslashacute
ENCODING 511
SWIDTH 560 0
DWIDTH 14 0
BBX 15 18 1 0
BITMAP
0038
0060
00C0
0180
0000
01E6
0638
0C18
1838
305C
3098
7118
7218
7430
7830
7060
38C0
DF00
ENDCHAR
STARTCHAR Scommaaccent
ENCODING 536
SWIDTH 549 0
DWIDTH 14 0
BBX 14 27 2 -9
BITMAP
03F0
061C
0C0C
1C0C
1C08
1C00
1E00
0F00
0780
03E0
00E0
0070
0070
4070
C070
C060
E0C0
3F00
0000
0700
0700
0700
0200
0200
0600
0600
0C00
ENDCHAR
STARTCHAR scommaaccent
ENCODING 537
SWIDTH 440 0
DWIDTH 11 0
BBX 10 22 1 -9
BITMAP
07C0
1C40
1840
1840
1C00
1E00
0F00
0780
0380
C180
C180
C300
7E00
0000
1C00
1C00
1C00
0800
0800
1800
1800
3000
ENDCHAR
STARTCHAR Tcommaaccent
ENCODING 538
SWIDTH 663 0
DWIDTH 17 0
BBX 16 27 4 -9
BITMAP
7FFF
C183
8182
0380
0380
0300
0300
0300
0700
0700
0600
0600
0600
0E00
0E00
0E00
1E00
7F80
0000
0700
0700
0700
0200
0200
0600
0600
0C00
ENDCHAR
STARTCHAR tcommaaccent
ENCODING 539
SWIDTH 355 0
DWIDTH 9 0
BBX 8 26 3 -9
BITMAP
08
18
38
38
FF
30
30
70
70
60
60
60
E0
E0
E0
E0
78
00
70
70
70
20
20
60
60
C0
ENDCHAR
STARTCHAR uni021E
ENCODING 542
SWIDTH 776 0
DWIDTH 19 0
BBX 22 23 0 0
BITMAP
008300
004600
007C00
003800
000000
1FE1FC
078070
070060
0700E0
0700E0
0600E0
0600C0
0E00C0
0FFFC0
0E01C0
0C01C0
0C0180
1C0180
1C0380
1C0380
180380
380780
FE1FE0
ENDCHAR
STARTCHAR uni021F
ENCODING 543
SWIDTH 631 0
DWIDTH 16 0
BBX 13 23 3 0
BITMAP
4180
2300
3E00
1C00
0000
7C00
1C00
1C00
1800
1800
1870
39F8
3B38
3638
3430
3830
7030
7070
6070
6060
6060
E060
E0F8
ENDCHAR
STARTCHAR uni0226
ENCODING 550
SWIDTH 747 0
DWIDTH 19 0
BBX 19 21 0 0
BITMAP
003800
003800
000000
000C00
000C00
001C00
003E00
002E00
004E00
00CE00
008600
010600
010700
020700
07FF00
040300
080300
100380
100380
200380
F80FE0
ENDCHAR
STARTCHAR uni0227
ENCODING 551
SWIDTH 608 0
DWIDTH 15 0
BBX 13 16 2 0
BITMAP
01C0
01C0
0000
03F8
0438
1830
1030
3030
6030
6070
E0E0
E160
E360
E660
FCE0
70F8
ENDCHAR
STARTCHAR uni0228
ENCODING 552
SWIDTH 569 0
DWIDTH 14 0
BBX 16 23 1 -5
BITMAP
1FFF
0703
0702
0700
0700
0600
0608
0E08
0FF8
0E18
0C10
0C00
1C00
1C00
1C00
180C
3808
FFF8
0100
0300
0180
0180
0700
ENDCHAR
STARTCHAR uni0229
ENCODING 553
SWIDTH 518 0
DWIDTH 13 0
BBX 11 18 2 -5
BITMAP
07C0
08E0
10E0
30E0
60C0
61C0
E300
FC00
E000
E000
E060
71C0
3F00
0400
0C00
0600
0600
1C00
ENDCHAR
STARTCHAR uni022A
ENCODING 554
SWIDTH 783 0
DWIDTH 20 0
BBX 18 23 3 0
BITMAP
01FC00
000000
00C600
00C600
000000
00FC00
030700
0E0380
1C0380
380180
3001C0
7001C0
6001C0
E00180
E00180
E00380
E00300
E00700
E00600
600C00
701800
387000
0FC000
ENDCHAR
STARTCHAR uni022B
ENCODING 555
SWIDTH 560 0
DWIDTH 14 0
BBX 12 18 2 0
BITMAP
0FE0
0000
0630
0630
0000
07C0
0C60
1870
3030
7030
6030
E070
E070
E060
E0E0
E0C0
F380
7E00
ENDCHAR
STARTCHAR uni022C
ENCODING 556
SWIDTH 783 0
DWIDTH 20 0
BBX 18 24 3 0
BITMAP
01FC00
000000
00E200
00FC00
011C00
000000
00FC00
030700
0E0380
1C0380
380180
3001C0
7001C0
6001C0
E00180
E00180
E00380
E00300
E00700
E00600
600C00
701800
387000
0FC000
ENDCHAR
STARTCHAR uni022D
ENCODING 557
SWIDTH 560 0
DWIDTH 14 0
BBX 13 19 2 0
BITMAP
0FE0
0000
0388
03F0
0470
0000
07C0
0C60
1870
3030
7030
6030
E070
E070
E060
E0E0
E0C0
F380
7E00
ENDCHAR
STARTCHAR uni022E
ENCODING 558
SWIDTH 783 0
DWIDTH 20 0
BBX 18 21 3 0
BITMAP
00E000
00E000
000000
00FC00
030700
0E0380
1C0380
380180
3001C0
7001C0
6001C0
E00180
E00180
E00380
E00300
E00700
E00600
600C00
701800
387000
0FC000
ENDCHAR
STARTCHAR uni022F
ENCODING 559
SWIDTH 560 0
DWIDTH 14 0
BBX 12 16 2 0
BITMAP
0380
0380
0000
07C0
0C60
1870
3030
7030
6030
E070
E070
E060
E0E0
E0C0
F380
7E00
ENDCHAR
STARTCHAR uni0230
ENCODING 560
SWIDTH 783 0
DWIDTH 20 0
BBX 18 23 3 0
BITMAP
01FC00
000000
00E000
00E000
000000
00FC00
030700
0E0380
1C0380
380180
3001C0
7001C0
6001C0
E00180
E00180
E00380
E00300
E00700
E00600
600C00
701800
387000
0FC000
ENDCHAR
STARTCHAR uni0231
ENCODING 561
SWIDTH 560 0
DWIDTH 14 0
BBX 12 18 2 0
BITMAP
0FE0
0000
0380
0380
0000
07C0
0C60
1870
3030
7030
6030
E070
E070
E060
E0E0
E0C0
F380
7E00
ENDCHAR
STARTCHAR uni0232
ENCODING 562
SWIDTH 663 0
DWIDTH 17 0
BBX 17 20 3 0
BITMAP
0FE000
000000
FE0F80
780200
380400
380800
1C1000
1C3000
0E6000
0E4000
068000
070000
070000
060000
060000
0E0000
0E0000
0E0000
1E0000
7F8000
ENDCHAR
STARTCHAR uni0233
ENCODING 563
SWIDTH 558 0
DWIDTH 14 0
BBX 16 20 0 -5
BITMAP
07F0
0000
7C0F
1C07
0E06
0606
060C
0608
0710
0730
0320
0340
0380
0300
0200
0600
0C00
1800
3000
F000
ENDCHAR
STARTCHAR uni0250
ENCODING 592
SWIDTH 608 0
DWIDTH 15 0
BBX 13 13 2 0
BITMAP
F870
39F8
3338
3638
3438
3838
7030
6030
6060
6040
60C0
E100
FE00
ENDCHAR
STARTCHAR uni0259
ENCODING 601
SWIDTH 518 0
DWIDTH 13 0
BBX 11 13 2 0
BITMAP
1F80
71C0
C0E0
00E0
00E0
07E0
18E0
70C0
60C0
E180
E100
E200
7C00
ENDCHAR
STARTCHAR uni025F
ENCODING 607
SWIDTH 380 0
DWIDTH 9 0
BBX 12 24 2 -11
BITMAP
0070
0070
0070
0060
0060
00E0
00E0
00E0
00C0
00C0
00C0
01C0
01C0
0180
0180
0180
0380
3FC0
0300
0300
4200
C600
C400
F800
ENDCHAR
STARTCHAR uni0265
ENCODING 613
SWIDTH 631 0
DWIDTH 16 0
BBX 13 18 3 -5
BITMAP
F838
3038
3030
3030
7030
7070
6070
60E0
6160
E360
E6E0
FCE0
70C0
00C0
00C0
01C0
01C0
01F0
ENDCHAR
STARTCHAR uni0275
ENCODING 629
SWIDTH 560 0
DWIDTH 14 0
BBX 12 13 2 0
BITMAP
07C0
0C60
1870
3030
7030
FFF0
FFF0
E070
E060
E0E0
E0C0
F380
7E00
ENDCHAR
STARTCHAR uni0279
ENCODING 633
SWIDTH 470 0
DWIDTH 12 0
BBX 11 13 3 0
BITMAP
00E0
00E0
00C0
00C0
00C0
01C0
01C0
0380
0780
0D80
7980
F380
C3E0
ENDCHAR
STARTCHAR uni0287
ENCODING 647
SWIDTH 355 0
DWIDTH 9 0
BBX 8 17 3 0
BITMAP
1E
07
07
07
07
06
06
06
0E
0E
0C
0C
FF
1C
1C
18
10
ENDCHAR
STARTCHAR uni0289
ENCODING 649
SWIDTH 630 0
DWIDTH 16 0
BBX 13 13 3 0
BITMAP
F8F8
3038
3030
3030
7030
FFF8
FFF8
60E0
6160
E360
E660
FCE0
70F8
ENDCHAR
STARTCHAR uni028C
ENCODING 652
SWIDTH 558 0
DWIDTH 14 0
BBX 14 13 1 0
BITMAP
0080
0180
0380
07C0
0DC0
09C0
10C0
20C0
60C0
C0E0
C060
C070
E07C
ENDCHAR
STARTCHAR uni028D
ENCODING 653
SWIDTH 805 0
DWIDTH 20 0
BBX 20 13 2 0
BITMAP
018100
018300
038300
078700
058F00
098B00
199380
31D380
21E180
60E180
60C1C0
E0C1C0
E040F0
ENDCHAR
STARTCHAR uni028E
ENCODING 654
SWIDTH 558 0
DWIDTH 14 0
BBX 16 18 0 0
BITMAP
000F
000C
0018
0030
0060
0040
00C0
01C0
02C0
04C0
0CE0
08E0
1060
3060
6060
6070
E038
F03E
ENDCHAR
STARTCHAR uni029E
ENCODING 670
SWIDTH 560 0
DWIDTH 14 0
BBX 13 18 2 -5
BITMAP
F838
3C38
1C30
0E30
0730
0770
03F0
0360
0460
18E0
30E0
60C0
E0C0
00C0
01C0
01C0
01C0
01F0
ENDCHAR
STARTCHAR uni02BB
ENCODING 699
SWIDTH 265 0
DWIDTH 7 0
BBX 4 6 4 12
BITMAP
30
60
60
60
F0
E0
ENDCHAR
STARTCHAR afii57929
ENCODING 700
SWIDTH 265 0
DWIDTH 7 0
BBX 4 6 4 12
BITMAP
70
70
20
20
60
C0
ENDCHAR
STARTCHAR afii64937
ENCODING 701
SWIDTH 265 0
DWIDTH 7 0
BBX 4 6 4 12
BITMAP
E0
E0
40
40
60
30
ENDCHAR
STARTCHAR circumflex
ENCODING 710
SWIDTH 560 0
DWIDTH 14 0
BBX 8 4 6 14
BITMAP
1C
3E
62
C1
ENDCHAR
STARTCHAR caron
ENCODING 711
SWIDTH 560 0
DWIDTH 14 0
BBX 8 4 7 14
BITMAP
83
46
7C
38
ENDCHAR
STARTCHAR uni02C8
ENCODING 712
SWIDTH 231 0
DWIDTH 6 0
BBX 3 6 4 12
BITMAP
E0
E0
E0
40
40
40
ENDCHAR
STARTCHAR macron
ENCODING 713
SWIDTH 560 0
DWIDTH 14 0
BBX 7 1 7 17
BITMAP
FE
ENDCHAR
STARTCHAR uni02CA
ENCODING 714
SWIDTH 560 0
DWIDTH 14 0
BBX 6 4 9 14
BITMAP
1C
30
60
C0
ENDCHAR
STARTCHAR uni02CB
ENCODING 715
SWIDTH 560 0
DWIDTH 14 0
BBX 4 4 8 14
BITMAP
E0
60
20
10
ENDCHAR
STARTCHAR uni02CD
ENCODING 717
SWIDTH 560 0
DWIDTH 14 0
BBX 7 1 7 -2
BITMAP
FE
ENDCHAR
STARTCHAR uni02CE
ENCODING 718
SWIDTH 560 0
DWIDTH 14 0
BBX 4 4 8 -5
BITMAP
E0
60
20
10
ENDCHAR
STARTCHAR uni02CF
ENCODING 719
SWIDTH 560 0
DWIDTH 14 0
BBX 6 4 9 -5
BITMAP
1C
30
60
C0
ENDCHAR
STARTCHAR breve
ENCODING 728
SWIDTH 560 0
DWIDTH 14 0
BBX 8 4 7 14
BITMAP
81
82
FC
78
ENDCHAR
STARTCHAR dotaccent
ENCODING 729
SWIDTH 560 0
DWIDTH 14 0
BBX 3 2 9 16
BITMAP
E0
E0
ENDCHAR
STARTCHAR ring
ENCODING 730
SWIDTH 560 0
DWIDTH 14 0
BBX 4 4 9 15
BITMAP
60
90
90
60
ENDCHAR
STARTCHAR ogonek
ENCODING 731
SWIDTH 560 0
DWIDTH 14 0
BBX 4 4 4 -5
BITMAP
70
C0
C0
70
ENDCHAR
STARTCHAR tilde
ENCODING 732
SWIDTH 560 0
DWIDTH 14 0
BBX 8 3 7 15
BITMAP
71
7E
8E
ENDCHAR
STARTCHAR hungarumlaut
ENCODING 733
SWIDTH 560 0
DWIDTH 14 0
BBX 8 4 8 14
BITMAP
1B
34
48
90
ENDCHAR
STARTCHAR uni02EE
ENCODING 750
SWIDTH 457 0
DWIDTH 11 0
BBX 9 6 4 12
BITMAP
7380
7780
3100
3300
6300
C600
ENDCHAR
STARTCHAR uni037E
ENCODING 894
SWIDTH 265 0
DWIDTH 7 0
BBX 6 18 1 -5
BITMAP
1C
1C
1C
00
00
00
00
00
00
00
00
70
70
30
20
60
60
C0
ENDCHAR
STARTCHAR tonos
ENCODING 900
SWIDTH 560 0
DWIDTH 14 0
BBX 6 4 9 14
BITMAP
1C
30
60
C0
ENDCHAR
STARTCHAR dieresistonos
ENCODING 901
SWIDTH 560 0
DWIDTH 14 0
BBX 8 7 7 16
BITMAP
07
0C
18
30
00
C6
C6
ENDCHAR
STARTCHAR anoteleia
ENCODING 903
SWIDTH 608 0
DWIDTH 15 0
BBX 3 3 8 6
BITMAP
E0
E0
E0
ENDCHAR
STARTCHAR mu
ENCODING 956
SWIDTH 663 0
DWIDTH 17 0
BBX 14 17 2 -4
BITMAP
7C7C
181C
1818
1818
3818
3838
3038
3070
30F0
70B0
7330
7F70
6E7C
6000
E000
E000
C000
ENDCHAR
STARTCHAR uni1E00
ENCODING 7680
SWIDTH 747 0
DWIDTH 19 0
BBX 19 23 0 -5
BITMAP
000C00
000C00
001C00
003E00
002E00
004E00
00CE00
008600
010600
010700
020700
07FF00
040300
080300
100380
100380
200380
F80FE0
000000
003000
004800
004800
003000
ENDCHAR
STARTCHAR uni1E01
ENCODING 7681
SWIDTH 608 0
DWIDTH 15 0
BBX 13 18 2 -5
BITMAP
03F8
0438
1830
1030
3030
6030
6070
E0E0
E160
E360
E660
FCE0
70F8
0000
0600
0900
0900
0600
ENDCHAR
STARTCHAR uni1E02
ENCODING 7682
SWIDTH 606 0
DWIDTH 15 0
BBX 15 21 1 0
BITMAP
01C0
01C0
0000
1FF8
071C
070E
060E
060E
060C
0E1C
0E38
0FE0
0C30
0C18
1C1C
1C1C
1C1C
181C
1838
3870
FFE0
ENDCHAR
STARTCHAR uni1E03
ENCODING 7683
SWIDTH 596 0
DWIDTH 15 0
BBX 13 21 2 0
BITMAP
1C00
1C00
0000
7C00
1C00
1800
1800
1800
1870
39F8
3338
3638
3438
3838
7030
7030
6060
6060
60C0
E100
FE00
ENDCHAR
STARTCHAR uni1E04
ENCODING 7684
SWIDTH 606 0
DWIDTH 15 0
BBX 15 21 1 -3
BITMAP
1FF8
071C
070E
060E
060E
060C
0E1C
0E38
0FE0
0C30
0C18
1C1C
1C1C
1C1C
181C
1838
3870
FFE0
0000
0380
0380
ENDCHAR
STARTCHAR uni1E05
ENCODING 7685
SWIDTH 596 0
DWIDTH 15 0
BBX 13 21 2 -3
BITMAP
7C00
1C00
1800
1800
1800
1870
39F8
3338
3638
3438
3838
7030
7030
6060
6060
60C0
E100
FE00
0000
0E00
0E00
ENDCHAR
STARTCHAR uni1E06
ENCODING 7686
SWIDTH 606 0
DWIDTH 15 0
BBX 15 20 1 -2
BITMAP
1FF8
071C
070E
060E
060E
060C
0E1C
0E38
0FE0
0C30
0C18
1C1C
1C1C
1C1C
181C
1838
3870
FFE0
0000
0FE0
ENDCHAR
STARTCHAR uni1E07
ENCODING 7687
SWIDTH 596 0
DWIDTH 15 0
BBX 13 20 2 -2
BITMAP
7C00
1C00
1800
1800
1800
1870
39F8
3338
3638
3438
3838
7030
7030
6060
6060
60C0
E100
FE00
0000
3F80
ENDCHAR
STARTCHAR uni1E08
ENCODING 7688
SWIDTH 714 0
DWIDTH 18 0
BBX 17 28 3 -5
BITMAP
003800
006000
00C000
018000
000000
00FF80
038380
0E0180
1C0100
380000
300000
700000
700000
E00000
E00000
E00000
E00000
E00000
E00000
600000
700000
3C0C00
0FF000
020000
060000
030000
030000
0E0000
ENDCHAR
STARTCHAR uni1E09
ENCODING 7689
SWIDTH 487 0
DWIDTH 12 0
BBX 11 23 2 -5
BITMAP
01C0
0300
0600
0C00
0000
07E0
0860
1020
3060
6000
6000
E000
E000
E000
E000
E000
6080
3F00
1000
3000
1800
1800
7000
ENDCHAR
STARTCHAR uni1E0A
ENCODING 7690
SWIDTH 770 0
DWIDTH 19 0
BBX 19 21 1 0
BITMAP
007000
007000
000000
1FFE00
070780
0701C0
0700C0
0600E0
0600E0
0E00E0
0E00E0
0E00E0
0C00E0
0C00C0
1C01C0
1C01C0
1C0380
180700
180E00
383C00
FFF000
ENDCHAR
STARTCHAR uni1E0B
ENCODING 7691
SWIDTH 608 0
DWIDTH 15 0
BBX 15 21 2 0
BITMAP
0038
0038
0000
003E
000E
000C
000C
001C
03FC
041C
0818
1018
3038
6038
6070
E070
E0F0
E170
E670
FC70
787C
ENDCHAR
STARTCHAR uni1E0C
ENCODING 7692
SWIDTH 770 0
DWIDTH 19 0
BBX 19 21 1 -3
BITMAP
1FFE00
070780
0701C0
0700C0
0600E0
0600E0
0E00E0
0E00E0
0E00E0
0C00E0
0C00C0
1C01C0
1C01C0
1C0380
180700
180E00
383C00
FFF000
000000
01C000
01C000
ENDCHAR
STARTCHAR uni1E0D
ENCODING 7693
SWIDTH 608 0
DWIDTH 15 0
BBX 15 21 2 -3
BITMAP
003E
000E
000C
000C
001C
03FC
041C
0818
1018
3038
6038
6070
E070
E0F0
E170
E670
FC70
787C
0000
0700
0700
ENDCHAR
STARTCHAR uni1E0E
ENCODING 7694
SWIDTH 770 0
DWIDTH 19 0
BBX 19 20 1 -2
BITMAP
1FFE00
070780
0701C0
0700C0
0600E0
0600E0
0E00E0
0E00E0
0E00E0
0C00E0
0C00C0
1C01C0
1C01C0
1C0380
180700
180E00
383C00
FFF000
000000
07F000
ENDCHAR
STARTCHAR uni1E0F
ENCODING 7695
SWIDTH 608 0
DWIDTH 15 0
BBX 15 20 2 -2
BITMAP
003E
000E
000C
000C
001C
03FC
041C
0818
1018
3038
6038
6070
E070
E0F0
E170
E670
FC70
787C
0000
1FC0
ENDCHAR
STARTCHAR uni1E10
ENCODING 7696
SWIDTH 770 0
DWIDTH 19 0
BBX 19 23 1 -5
BITMAP
1FFE00
070780
0701C0
0700C0
0600E0
0600E0
0E00E0
0E00E0
0E00E0
0C00E0
0C00C0
1C01C0
1C01C0
1C0380
180700
180E00
383C00
FFF000
004000
00C000
006000
006000
01C000
ENDCHAR
STARTCHAR uni1E11
ENCODING 7697
SWIDTH 608 0
DWIDTH 15 0
BBX 15 23 2 -5
BITMAP
003E
000E
000C
000C
001C
03FC
041C
0818
1018
3038
6038
6070
E070
E0F0
E170
E670
FC70
787C
0100
0300
0180
0180
0700
ENDCHAR
STARTCHAR uni1E12
ENCODING 7698
SWIDTH 770 0
DWIDTH 19 0
BBX 19 23 1 -5
BITMAP
1FFE00
070780
0701C0
0700C0
0600E0
0600E0
0E00E0
0E00E0
0E00E0
0C00E0
0C00C0
1C01C0
1C01C0
1C0380
180700
180E00
383C00
FFF000
000000
01C000
03E000
062000
0C1000
ENDCHAR
STARTCHAR uni1E13
ENCODING 7699
SWIDTH 608 0
DWIDTH 15 0
BBX 15 23 2 -5
BITMAP
003E
000E
000C
000C
001C
03FC
041C
0818
1018
3038
6038
6070
E070
E0F0
E170
E670
FC70
787C
0000
0700
0F80
1880
3040
ENDCHAR
STARTCHAR uni1E14
ENCODING 7700
SWIDTH 569 0
DWIDTH 14 0
BBX 16 25 1 0
BITMAP
0380
0180
0080
0040
0000
07F0
0000
1FFF
0703
0702
0700
0700
0600
0608
0E08
0FF8
0E18
0C10
0C00
1C00
1C00
1C00
180C
3808
FFF8
ENDCHAR
STARTCHAR uni1E15
ENCODING 7701
SWIDTH 518 0
DWIDTH 13 0
BBX 11 20 2 0
BITMAP
0E00
0600
0200
0100
0000
1FC0
0000
07C0
08E0
10E0
30E0
60C0
61C0
E300
FC00
E000
E000
E060
71C0
3F00
ENDCHAR
STARTCHAR uni1E16
ENCODING 7702
SWIDTH 569 0
DWIDTH 14 0
BBX 16 25 1 0
BITMAP
0038
0060
00C0
0180
0000
07F0
0000
1FFF
0703
0702
0700
0700
0600
0608
0E08
0FF8
0E18
0C10
0C00
1C00
1C00
1C00
180C
3808
FFF8
ENDCHAR
STARTCHAR uni1E17
ENCODING 7703
SWIDTH 518 0
DWIDTH 13 0
BBX 11 20 2 0
BITMAP
00E0
0180
0300
0600
0000
1FC0
0000
07C0
08E0
10E0
30E0
60C0
61C0
E300
FC00
E000
E000
E060
71C0
3F00
ENDCHAR
STARTCHAR uni1E18
ENCODING 7704
SWIDTH 569 0
DWIDTH 14 0
BBX 16 23 1 -5
BITMAP
1FFF
0703
0702
0700
0700
0600
0608
0E08
0FF8
0E18
0C10
0C00
1C00
1C00
1C00
180C
3808
FFF8
0000
0700
0F80
1880
3040
ENDCHAR
STARTCHAR uni1E19
ENCODING 7705
SWIDTH 518 0
DWIDTH 13 0
BBX 11 18 2 -5
BITMAP
07C0
08E0
10E0
30E0
60C0
61C0
E300
FC00
E000
E000
E060
71C0
3F00
0000
0E00
1F00
3100
6080
ENDCHAR
STARTCHAR uni1E1A
ENCODING 7706
SWIDTH 569 0
DWIDTH 14 0
BBX 16 22 1 -4
BITMAP
1FFF
0703
0702
0700
0700
0600
0608
0E08
0FF8
0E18
0C10
0C00
1C00
1C00
1C00
180C
3808
FFF8
0000
0E20
0FC0
11C0
ENDCHAR
STARTCHAR uni1E1B
ENCODING 7707
SWIDTH 518 0
DWIDTH 13 0
BBX 11 17 2 -4
BITMAP
07C0
08E0
10E0
30E0
60C0
61C0
E300
FC00
E000
E000
E060
71C0
3F00
0000
3880
3F00
4700
ENDCHAR
STARTCHAR uni1E1C
ENCODING 7708
SWIDTH 569 0
DWIDTH 14 0
BBX 16 28 1 -5
BITMAP
0408
0410
07E0
03C0
0000
1FFF
0703
0702
0700
0700
0600
0608
0E08
0FF8
0E18
0C10
0C00
1C00
1C00
1C00
180C
3808
FFF8
0100
0300
0180
0180
0700
ENDCHAR
STARTCHAR uni1E1D
ENCODING 7709
SWIDTH 518 0
DWIDTH 13 0
BBX 11 23 2 -5
BITMAP
1020
1040
1F80
0F00
0000
07C0
08E0
10E0
30E0
60C0
61C0
E300
FC00
E000
E000
E060
71C0
3F00
0400
0C00
0600
0600
1C00
ENDCHAR
STARTCHAR uni1E1E
ENCODING 7710
SWIDTH 551 0
DWIDTH 14 0
BBX 16 21 1 0
BITMAP
01C0
01C0
0000
1FFF
0703
0702
0700
0700
0600
0608
0E08
0FF8
0E18
0C10
0C00
1C00
1C00
1C00
1800
3C00
FF00
ENDCHAR
STARTCHAR uni1E1F
ENCODING 7711
SWIDTH 380 0
DWIDTH 9 0
BBX 12 27 2 -5
BITMAP
0700
0700
0000
01F0
0230
0630
0420
0C00
0C00
3FC0
1C00
1800
1800
1800
3800
3800
3000
3000
3000
7000
7000
7000
6000
6000
E000
E000
E000
ENDCHAR
STARTCHAR uni1E20
ENCODING 7712
SWIDTH 756 0
DWIDTH 19 0
BBX 17 20 3 0
BITMAP
03F800
000000
00FF00
038380
0E0100
1C0100
380000
300000
700000
700000
E00000
E00000
E03F80
E00E00
E00C00
E00C00
601C00
701C00
381C00
0FE000
ENDCHAR
STARTCHAR uni1E21
ENCODING 7713
SWIDTH 602 0
DWIDTH 15 0
BBX 14 20 1 -5
BITMAP
07F0
0000
01FC
021C
0C1C
1818
1818
3038
3038
7078
70B0
71B0
7330
7E70
3860
0060
8060
C0C0
7080
7F00
ENDCHAR
STARTCHAR uni1E22
ENCODING 7714
SWIDTH 776 0
DWIDTH 19 0
BBX 22 21 0 0
BITMAP
003800
003800
000000
1FE1FC
078070
070060
0700E0
0700E0
0600E0
0600C0
0E00C0
0FFFC0
0E01C0
0C01C0
0C0180
1C0180
1C0380
1C0380
180380
380780
FE1FE0
ENDCHAR
STARTCHAR uni1E23
ENCODING 7715
SWIDTH 631 0
DWIDTH 16 0
BBX 13 21 3 0
BITMAP
1C00
1C00
0000
7C00
1C00
1C00
1800
1800
1870
39F8
3B38
3638
3430
3830
7030
7070
6070
6060
6060
E060
E0F8
ENDCHAR
STARTCHAR uni1E24
ENCODING 7716
SWIDTH 776 0
DWIDTH 19 0
BBX 22 21 0 -3
BITMAP
1FE1FC
078070
070060
0700E0
0700E0
0600E0
0600C0
0E00C0
0FFFC0
0E01C0
0C01C0
0C0180
1C0180
1C0380
1C0380
180380
380780
FE1FE0
000000
007000
007000
ENDCHAR
STARTCHAR uni1E25
ENCODING 7717
SWIDTH 631 0
DWIDTH 16 0
BBX 13 21 3 -3
BITMAP
7C00
1C00
1C00
1800
1800
1870
39F8
3B38
3638
3430
3830
7030
7070
6070
6060
6060
E060
E0F8
0000
0700
0700
ENDCHAR
STARTCHAR uni1E26
ENCODING 7718
SWIDTH 776 0
DWIDTH 19 0
BBX 22 21 0 0
BITMAP
00C600
00C600
000000
1FE1FC
078070
070060
0700E0
0700E0
0600E0
0600C0
0E00C0
0FFFC0
0E01C0
0C01C0
0C0180
1C0180
1C0380
1C0380
180380
380780
FE1FE0
ENDCHAR
STARTCHAR uni1E27
ENCODING 7719
SWIDTH 631 0
DWIDTH 16 0
BBX 13 21 3 0
BITMAP
6300
6300
0000
7C00
1C00
1C00
1800
1800
1870
39F8
3B38
3638
3430
3830
7030
7070
6070
6060
6060
E060
E0F8
ENDCHAR
STARTCHAR uni1E28
ENCODING 7720
SWIDTH 776 0
DWIDTH 19 0
BBX 22 23 0 -5
BITMAP
1FE1FC
078070
070060
0700E0
0700E0
0600E0
0600C0
0E00C0
0FFFC0
0E01C0
0C01C0
0C0180
1C0180
1C0380
1C0380
180380
380780
FE1FE0
002000
006000
003000
003000
00E000
ENDCHAR
STARTCHAR uni1E29
ENCODING 7721
SWIDTH 631 0
DWIDTH 16 0
BBX 13 23 3 -5
BITMAP
7C00
1C00
1C00
1800
1800
1870
39F8
3B38
3638
3430
3830
7030
7070
6070
6060
6060
E060
E0F8
0200
0600
0300
0300
0E00
ENDCHAR
STARTCHAR uni1E2A
ENCODING 7722
SWIDTH 776 0
DWIDTH 19 0
BBX 22 23 0 -5
BITMAP
1FE1FC
078070
070060
0700E0
0700E0
0600E0
0600C0
0E00C0
0FFFC0
0E01C0
0C01C0
0C0180
1C0180
1C0380
1C0380
180380
380780
FE1FE0
000000
020400
020800
03F000
01E000
ENDCHAR
STARTCHAR uni1E2B
ENCODING 7723
SWIDTH 631 0
DWIDTH 16 0
BBX 13 23 3 -5
BITMAP
7C00
1C00
1C00
1800
1800
1870
39F8
3B38
3638
3430
3830
7030
7070
6070
6060
6060
E060
E0F8
0000
1020
1040
1F80
0F00
ENDCHAR
STARTCHAR uni1E2C
ENCODING 7724
SWIDTH 325 0
DWIDTH 8 0
BBX 11 22 0 -4
BITMAP
0FE0
0380
0300
0700
0700
0700
0600
0600
0E00
0E00
0C00
0C00
1C00
1C00
1C00
1800
3800
FE00
0000
3880
3F00
4700
ENDCHAR
STARTCHAR uni1E2D
ENCODING 7725
SWIDTH 289 0
DWIDTH 7 0
BBX 8 22 2 -4
BITMAP
0E
0E
00
00
00
7C
1C
1C
18
18
18
38
30
30
30
30
70
7C
00
71
7E
8E
ENDCHAR
STARTCHAR uni1E2E
ENCODING 7726
SWIDTH 325 0
DWIDTH 8 0
BBX 12 26 0 0
BITMAP
00E0
0180
0300
0600
0000
0630
0630
0000
0FE0
0380
0300
0700
0700
0700
0600
0600
0E00
0E00
0C00
0C00
1C00
1C00
1C00
1800
3800
FE00
ENDCHAR
STARTCHAR uni1E2F
ENCODING 7727
SWIDTH 289 0
DWIDTH 7 0
BBX 9 21 3 0
BITMAP
0700
0C00
1800
3000
0000
3180
3180
0000
F800
3800
3000
3000
3000
3000
7000
6000
6000
6000
6000
E000
F800
ENDCHAR
STARTCHAR uni1E30
ENCODING 7728
SWIDTH 698 0
DWIDTH 17 0
BBX 19 23 1 0
BITMAP
001C00
003000
006000
00C000
000000
1FE3E0
078180
070300
070600
070800
061000
066000
0EC000
0F8000
0FC000
0CE000
0CE000
1C7000
1C3800
1C1C00
181C00
380E00
FE3F80
ENDCHAR
STARTCHAR uni1E31
ENCODING 7729
SWIDTH 560 0
DWIDTH 14 0
BBX 13 23 2 0
BITMAP
0380
0600
0C00
1800
0000
7C00
1C00
1C00
1C00
1800
1838
1830
3860
38C0
3100
3600
7E00
7700
6700
6380
61C0
E1E0
E0F8
ENDCHAR
STARTCHAR uni1E32
ENCODING 7730
SWIDTH 698 0
DWIDTH 17 0
BBX 19 21 1 -3
BITMAP
1FE3E0
078180
070300
070600
070800
061000
066000
0EC000
0F8000
0FC000
0CE000
0CE000
1C7000
1C3800
1C1C00
181C00
380E00
FE3F80
000000
01C000
01C000
ENDCHAR
STARTCHAR uni1E33
ENCODING 7731
SWIDTH 560 0
DWIDTH 14 0
BBX 13 21 2 -3
BITMAP
7C00
1C00
1C00
1C00
1800
1838
1830
3860
38C0
3100
3600
7E00
7700
6700
6380
61C0
E1E0
E0F8
0000
0700
0700
ENDCHAR
STARTCHAR uni1E34
ENCODING 7732
SWIDTH 698 0
DWIDTH 17 0
BBX 19 20 1 -2
BITMAP
1FE3E0
078180
070300
070600
070800
061000
066000
0EC000
0F8000
0FC000
0CE000
0CE000
1C7000
1C3800
1C1C00
181C00
380E00
FE3F80
000000
07F000
ENDCHAR
STARTCHAR uni1E35
ENCODING 7733
SWIDTH 560 0
DWIDTH 14 0
BBX 13 20 2 -2
BITMAP
7C00
1C00
1C00
1C00
1800
1838
1830
3860
38C0
3100
3600
7E00
7700
6700
6380
61C0
E1E0
E0F8
0000
1FC0
ENDCHAR
STARTCHAR uni1E36
ENCODING 7734
SWIDTH 572 0
DWIDTH 14 0
BBX 14 21 1 -3
BITMAP
1FE0
0780
0700
0700
0700
0600
0600
0E00
0E00
0E00
0C00
0C00
1C00
1C00
1C04
180C
380C
FFF8
0000
0700
0700
ENDCHAR
STARTCHAR uni1E37
ENCODING 7735
SWIDTH 289 0
DWIDTH 7 0
BBX 6 21 2 -3
BITMAP
7C
1C
18
18
18
18
38
30
30
30
30
70
60
60
60
60
E0
F8
00
70
70
ENDCHAR
STARTCHAR uni1E38
ENCODING 7736
SWIDTH 572 0
DWIDTH 14 0
BBX 14 23 1 -3
BITMAP
1FC0
0000
1FE0
0780
0700
0700
0700
0600
0600
0E00
0E00
0E00
0C00
0C00
1C00
1C00
1C04
180C
380C
FFF8
0000
0700
0700
ENDCHAR
STARTCHAR uni1E39
ENCODING 7737
SWIDTH 289 0
DWIDTH 7 0
BBX 7 23 2 -3
BITMAP
FE
00
7C
1C
18
18
18
18
38
30
30
30
30
70
60
60
60
60
E0
F8
00
70
70
ENDCHAR
STARTCHAR uni1E3A
ENCODING 7738
SWIDTH 572 0
DWIDTH 14 0
BBX 14 20 1 -2
BITMAP
1FE0
0780
0700
0700
0700
0600
0600
0E00
0E00
0E00
0C00
0C00
1C00
1C00
1C04
180C
380C
FFF8
0000
1FC0
ENDCHAR
STARTCHAR uni1E3B
ENCODING 7739
SWIDTH 289 0
DWIDTH 7 0
BBX 7 20 1 -2
BITMAP
3E
0E
0C
0C
0C
0C
1C
18
18
18
18
38
30
30
30
30
70
7C
00
FE
ENDCHAR
STARTCHAR uni1E3C
ENCODING 7740
SWIDTH 572 0
DWIDTH 14 0
BBX 14 23 1 -5
BITMAP
1FE0
0780
0700
0700
0700
0600
0600
0E00
0E00
0E00
0C00
0C00
1C00
1C00
1C04
180C
380C
FFF8
0000
0700
0F80
1880
3040
ENDCHAR
STARTCHAR uni1E3D
ENCODING 7741
SWIDTH 289 0
DWIDTH 7 0
BBX 8 23 0 -5
BITMAP
1F
07
06
06
06
06
0E
0C
0C
0C
0C
1C
18
18
18
18
38
3E
00
1C
3E
62
C1
ENDCHAR
STARTCHAR uni1E3E
ENCODING 7742
SWIDTH 865 0
DWIDTH 22 0
BBX 24 23 1 0
BITMAP
000380
000600
000C00
001800
000000
0F001F
07803C
078038
078058
0580F8
05C0B8
05C130
0CC130
0CC230
08E470
08E470
086860
187860
187060
1060E0
1020E0
3000E0
FC03F8
ENDCHAR
STARTCHAR uni1E3F
ENCODING 7743
SWIDTH 944 0
DWIDTH 24 0
BBX 21 18 3 0
BITMAP
000E00
001800
003000
006000
000000
F87070
39F1F8
3B3B38
363638
3C3C30
383830
707830
707070
607070
606060
606060
E0E060
E0E0F8
ENDCHAR
STARTCHAR uni1E40
ENCODING 7744
SWIDTH 865 0
DWIDTH 22 0
BBX 24 21 1 0
BITMAP
001C00
001C00
000000
0F001F
07803C
078038
078058
0580F8
05C0B8
05C130
0CC130
0CC230
08E470
08E470
086860
187860
187060
1060E0
1020E0
3000E0
FC03F8
ENDCHAR
STARTCHAR uni1E41
ENCODING 7745
SWIDTH 944 0
DWIDTH 24 0
BBX 21 16 3 0
BITMAP
007000
007000
000000
F87070
39F1F8
3B3B38
363638
3C3C30
383830
707830
707070
607070
606060
606060
E0E060
E0E0F8
ENDCHAR
STARTCHAR uni1E42
ENCODING 7746
SWIDTH 865 0
DWIDTH 22 0
BBX 24 21 1 -3
BITMAP
0F001F
07803C
078038
078058
0580F8
05C0B8
05C130
0CC130
0CC230
08E470
08E470
086860
187860
187060
1060E0
1020E0
3000E0
FC03F8
000000
003800
003800
ENDCHAR
STARTCHAR uni1E43
ENCODING 7747
SWIDTH 944 0
DWIDTH 24 0
BBX 21 16 3 -3
BITMAP
F87070
39F1F8
3B3B38
363638
3C3C30
383830
707830
707070
607070
606060
606060
E0E060
E0E0F8
000000
007000
007000
ENDCHAR
STARTCHAR uni1E44
ENCODING 7748
SWIDTH 762 0
DWIDTH 19 0
BBX 22 21 1 0
BITMAP
003800
003800
000000
1F00FC
070030
078020
078020
05C060
04C040
04E040
0C7040
087040
083880
083880
081C80
180C80
100E80
100700
100700
300300
FC0100
ENDCHAR
STARTCHAR uni1E45
ENCODING 7749
SWIDTH 631 0
DWIDTH 16 0
BBX 13 16 3 0
BITMAP
0700
0700
0000
F870
39F8
3338
3638
3430
3830
7030
7070
6070
6060
6060
E060
E0F8
ENDCHAR
STARTCHAR uni1E46
ENCODING 7750
SWIDTH 762 0
DWIDTH 19 0
BBX 22 21 1 -3
BITMAP
1F00FC
070030
078020
078020
05C060
04C040
04E040
0C7040
087040
083880
083880
081C80
180C80
100E80
100700
100700
300300
FC0100
000000
00E000
00E000
ENDCHAR
STARTCHAR uni1E47
ENCODING 7751
SWIDTH 631 0
DWIDTH 16 0
BBX 13 16 3 -3
BITMAP
F870
39F8
3338
3638
3430
3830
7030
7070
6070
6060
6060
E060
E0F8
0000
0700
0700
ENDCHAR
STARTCHAR uni1E48
ENCODING 7752
SWIDTH 762 0
DWIDTH 19 0
BBX 22 20 1 -2
BITMAP
1F00FC
070030
078020
078020
05C060
04C040
04E040
0C7040
087040
083880
083880
081C80
180C80
100E80
100700
100700
300300
FC0100
000000
03F800
ENDCHAR
STARTCHAR uni1E49
ENCODING 7753
SWIDTH 631 0
DWIDTH 16 0
BBX 13 15 3 -2
BITMAP
F870
39F8
3338
3638
3430
3830
7030
7070
6070
6060
6060
E060
E0F8
0000
1FC0
ENDCHAR
STARTCHAR uni1E4A
ENCODING 7754
SWIDTH 762 0
DWIDTH 19 0
BBX 22 23 1 -5
BITMAP
1F00FC
070030
078020
078020
05C060
04C040
04E040
0C7040
087040
083880
083880
081C80
180C80
100E80
100700
100700
300300
FC0100
000000
007000
00F800
018800
030400
ENDCHAR
STARTCHAR uni1E4B
ENCODING 7755
SWIDTH 631 0
DWIDTH 16 0
BBX 13 18 3 -5
BITMAP
F870
39F8
3338
3638
3430
3830
7030
7070
6070
6060
6060
E060
E0F8
0000
0700
0F80
1880
3040
ENDCHAR
STARTCHAR uni1E4C
ENCODING 7756
SWIDTH 783 0
DWIDTH 20 0
BBX 18 27 3 0
BITMAP
001C00
003000
006000
00C000
000000
00E200
00FC00
011C00
000000
00FC00
030700
0E0380
1C0380
380180
3001C0
7001C0
6001C0
E00180
E00180
E00380
E00300
E00700
E00600
600C00
701800
387000
0FC000
ENDCHAR
STARTCHAR uni1E4D
ENCODING 7757
SWIDTH 560 0
DWIDTH 14 0
BBX 13 22 2 0
BITMAP
0070
00C0
0180
0300
0000
0388
03F0
0470
0000
07C0
0C60
1870
3030
7030
6030
E070
E070
E060
E0E0
E0C0
F380
7E00
ENDCHAR
STARTCHAR uni1E4E
ENCODING 7758
SWIDTH 783 0
DWIDTH 20 0
BBX 18 25 3 0
BITMAP
018C00
018C00
000000
00E200
00FC00
011C00
000000
00FC00
030700
0E0380
1C0380
380180
3001C0
7001C0
6001C0
E00180
E00180
E00380
E00300
E00700
E00600
600C00
701800
387000
0FC000
ENDCHAR
STARTCHAR uni1E4F
ENCODING 7759
SWIDTH 560 0
DWIDTH 14 0
BBX 13 20 2 0
BITMAP
0C60
0C60
0000
0388
03F0
0470
0000
07C0
0C60
1870
3030
7030
6030
E070
E070
E060
E0E0
E0C0
F380
7E00
ENDCHAR
STARTCHAR uni1E50
ENCODING 7760
SWIDTH 783 0
DWIDTH 20 0
BBX 18 25 3 0
BITMAP
01C000
00C000
004000
002000
000000
03F800
000000
00FC00
030700
0E0380
1C0380
380180
3001C0
7001C0
6001C0
E00180
E00180
E00380
E00300
E00700
E00600
600C00
701800
387000
0FC000
ENDCHAR
STARTCHAR uni1E51
ENCODING 7761
SWIDTH 560 0
DWIDTH 14 0
BBX 12 20 2 0
BITMAP
0E00
0600
0200
0100
0000
0FE0
0000
07C0
0C60
1870
3030
7030
6030
E070
E070
E060
E0E0
E0C0
F380
7E00
ENDCHAR
STARTCHAR uni1E52
ENCODING 7762
SWIDTH 783 0
DWIDTH 20 0
BBX 18 25 3 0
BITMAP
001C00
003000
006000
00C000
000000
03F800
000000
00FC00
030700
0E0380
1C0380
380180
3001C0
7001C0
6001C0
E00180
E00180
E00380
E00300
E00700
E00600
600C00
701800
387000
0FC000
ENDCHAR
STARTCHAR uni1E53
ENCODING 7763
SWIDTH 560 0
DWIDTH 14 0
BBX 12 20 2 0
BITMAP
00E0
0180
0300
0600
0000
0FE0
0000
07C0
0C60
1870
3030
7030
6030
E070
E070
E060
E0E0
E0C0
F380
7E00
ENDCHAR
STARTCHAR uni1E54
ENCODING 7764
SWIDTH 579 0
DWIDTH 14 0
BBX 16 23 1 0
BITMAP
0038
0060
00C0
0180
0000
1FFC
070E
0707
0707
0707
0607
0606
0E0E
0E1C
0E38
0FE0
0C00
1C00
1C00
1C00
1800
3800
FF00
ENDCHAR
STARTCHAR uni1E55
ENCODING 7765
SWIDTH 608 0
DWIDTH 15 0
BBX 14 23 2 -5
BITMAP
0070
00C0
0180
0300
0000
7C38
1CFC
199C
1B1C
1A1C
3C1C
3818
3018
3030
3020
7060
7080
7F00
6000
6000
E000
E000
E000
ENDCHAR
STARTCHAR uni1E56
ENCODING 7766
SWIDTH 579 0
DWIDTH 14 0
BBX 16 21 1 0
BITMAP
00E0
00E0
0000
1FFC
070E
0707
0707
0707
0607
0606
0E0E
0E1C
0E38
0FE0
0C00
1C00
1C00
1C00
1800
3800
FF00
ENDCHAR
STARTCHAR uni1E57
ENCODING 7767
SWIDTH 608 0
DWIDTH 15 0
BBX 14 21 2 -5
BITMAP
0380
0380
0000
7C38
1CFC
199C
1B1C
1A1C
3C1C
3818
3018
3030
3020
7060
7080
7F00
6000
6000
E000
E000
E000
ENDCHAR
STARTCHAR uni1E58
ENCODING 7768
SWIDTH 686 0
DWIDTH 17 0
BBX 17 21 0 0
BITMAP
00E000
00E000
000000
0FFE00
030F00
030700
070300
070300
070300
060600
060C00
0E1800
0FE000
0E7000
0C3000
1C3800
1C1800
1C1C00
180C00
380E00
FF0780
ENDCHAR
STARTCHAR uni1E59
ENCODING 7769
SWIDTH 470 0
DWIDTH 12 0
BBX 11 16 3 0
BITMAP
0E00
0E00
0000
F860
39E0
33C0
3600
3C00
3800
7000
7000
6000
6000
6000
E000
E000
ENDCHAR
STARTCHAR uni1E5A
ENCODING 7770
SWIDTH 686 0
DWIDTH 17 0
BBX 17 21 0 -3
BITMAP
0FFE00
030F00
030700
070300
070300
070300
060600
060C00
0E1800
0FE000
0E7000
0C3000
1C3800
1C1800
1C1C00
180C00
380E00
FF0780
000000
01C000
01C000
ENDCHAR
STARTCHAR uni1E5B
ENCODING 7771
SWIDTH 470 0
DWIDTH 12 0
BBX 11 16 3 -3
BITMAP
F860
39E0
33C0
3600
3C00
3800
7000
7000
6000
6000
6000
E000
E000
0000
7000
7000
ENDCHAR
STARTCHAR uni1E5C
ENCODING 7772
SWIDTH 686 0
DWIDTH 17 0
BBX 17 23 0 -3
BITMAP
03F800
000000
0FFE00
030F00
030700
070300
070300
070300
060600
060C00
0E1800
0FE000
0E7000
0C3000
1C3800
1C1800
1C1C00
180C00
380E00
FF0780
000000
01C000
01C000
ENDCHAR
STARTCHAR uni1E5D
ENCODING 7773
SWIDTH 470 0
DWIDTH 12 0
BBX 11 18 3 -3
BITMAP
3F80
0000
F860
39E0
33C0
3600
3C00
3800
7000
7000
6000
6000
6000
E000
E000
0000
7000
7000
ENDCHAR
STARTCHAR uni1E5E
ENCODING 7774
SWIDTH 686 0
DWIDTH 17 0
BBX 17 20 0 -2
BITMAP
0FFE00
030F00
030700
070300
070300
070300
060600
060C00
0E1800
0FE000
0E7000
0C3000
1C3800
1C1800
1C1C00
180C00
380E00
FF0780
000000
07F000
ENDCHAR
STARTCHAR uni1E5F
ENCODING 7775
SWIDTH 470 0
DWIDTH 12 0
BBX 12 15 2 -2
BITMAP
7C30
1CF0
19E0
1B00
1E00
1C00
3800
3800
3000
3000
3000
7000
7000
0000
FE00
ENDCHAR
STARTCHAR uni1E60
ENCODING 7776
SWIDTH 549 0
DWIDTH 14 0
BBX 14 21 2 0
BITMAP
01C0
01C0
0000
03F0
061C
0C0C
1C0C
1C08
1C00
1E00
0F00
0780
03E0
00E0
0070
0070
4070
C070
C060
E0C0
3F00
ENDCHAR
STARTCHAR uni1E61
ENCODING 7777
SWIDTH 440 0
DWIDTH 11 0
BBX 10 16 1 0
BITMAP
0E00
0E00
0000
07C0
1C40
1840
1840
1C00
1E00
0F00
0780
0380
C180
C180
C300
7E00
ENDCHAR
STARTCHAR uni1E62
ENCODING 7778
SWIDTH 549 0
DWIDTH 14 0
BBX 14 21 2 -3
BITMAP
03F0
061C
0C0C
1C0C
1C08
1C00
1E00
0F00
0780
03E0
00E0
0070
0070
4070
C070
C060
E0C0
3F00
0000
0700
0700
ENDCHAR
STARTCHAR uni1E63
ENCODING 7779
SWIDTH 440 0
DWIDTH 11 0
BBX 10 16 1 -3
BITMAP
07C0
1C40
1840
1840
1C00
1E00
0F00
0780
0380
C180
C180
C300
7E00
0000
1C00
1C00
ENDCHAR
STARTCHAR uni1E64
ENCODING 7780
SWIDTH 549 0
DWIDTH 14 0
BBX 14 26 2 0
BITMAP
01C0
01C0
0000
0070
00C0
0180
0300
0000
03F0
061C
0C0C
1C0C
1C08
1C00
1E00
0F00
0780
03E0
00E0
0070
0070
4070
C070
C060
E0C0
3F00
ENDCHAR
STARTCHAR uni1E65
ENCODING 7781
SWIDTH 440 0
DWIDTH 11 0
BBX 10 21 1 0
BITMAP
0700
0700
0000
01C0
0300
0600
0C00
0000
07C0
1C40
1840
1840
1C00
1E00
0F00
0780
0380
C180
C180
C300
7E00
ENDCHAR
STARTCHAR uni1E66
ENCODING 7782
SWIDTH 549 0
DWIDTH 14 0
BBX 14 26 2 0
BITMAP
01C0
01C0
0000
020C
0118
01F0
00E0
0000
03F0
061C
0C0C
1C0C
1C08
1C00
1E00
0F00
0780
03E0
00E0
0070
0070
4070
C070
C060
E0C0
3F00
ENDCHAR
STARTCHAR uni1E67
ENCODING 7783
SWIDTH 440 0
DWIDTH 11 0
BBX 13 21 1 0
BITMAP
01C0
01C0
0000
0418
0230
03E0
01C0
0000
07C0
1C40
1840
1840
1C00
1E00
0F00
0780
0380
C180
C180
C300
7E00
ENDCHAR
STARTCHAR uni1E68
ENCODING 7784
SWIDTH 549 0
DWIDTH 14 0
BBX 14 24 2 -3
BITMAP
0380
0380
0000
03F0
061C
0C0C
1C0C
1C08
1C00
1E00
0F00
0780
03E0
00E0
0070
0070
4070
C070
C060
E0C0
3F00
0000
0700
0700
ENDCHAR
STARTCHAR uni1E69
ENCODING 7785
SWIDTH 440 0
DWIDTH 11 0
BBX 10 19 1 -3
BITMAP
0E00
0E00
0000
07C0
1C40
1840
1840
1C00
1E00
0F00
0780
0380
C180
C180
C300
7E00
0000
1C00
1C00
ENDCHAR
STARTCHAR uni1E6A
ENCODING 7786
SWIDTH 663 0
DWIDTH 17 0
BBX 16 21 4 0
BITMAP
01C0
01C0
0000
7FFF
C183
8182
0380
0380
0300
0300
0300
0700
0700
0600
0600
0600
0E00
0E00
0E00
1E00
7F80
ENDCHAR
STARTCHAR uni1E6B
ENCODING 7787
SWIDTH 355 0
DWIDTH 9 0
BBX 8 20 3 0
BITMAP
38
38
00
08
18
38
38
FF
30
30
70
70
60
60
60
E0
E0
E0
E0
78
ENDCHAR
STARTCHAR uni1E6C
ENCODING 7788
SWIDTH 663 0
DWIDTH 17 0
BBX 16 21 4 -3
BITMAP
7FFF
C183
8182
0380
0380
0300
0300
0300
0700
0700
0600
0600
0600
0E00
0E00
0E00
1E00
7F80
0000
0700
0700
ENDCHAR
STARTCHAR uni1E6D
ENCODING 7789
SWIDTH 355 0
DWIDTH 9 0
BBX 8 20 3 -3
BITMAP
08
18
38
38
FF
30
30
70
70
60
60
60
E0
E0
E0
E0
78
00
70
70
ENDCHAR
STARTCHAR uni1E6E
ENCODING 7790
SWIDTH 663 0
DWIDTH 17 0
BBX 16 20 4 -2
BITMAP
7FFF
C183
8182
0380
0380
0300
0300
0300
0700
0700
0600
0600
0600
0E00
0E00
0E00
1E00
7F80
0000
1FC0
ENDCHAR
STARTCHAR uni1E6F
ENCODING 7791
SWIDTH 355 0
DWIDTH 9 0
BBX 9 19 2 -2
BITMAP
0400
0C00
1C00
1C00
7F80
1800
1800
3800
3800
3000
3000
3000
7000
7000
7000
7000
3C00
0000
FE00
ENDCHAR
STARTCHAR uni1E70
ENCODING 7792
SWIDTH 663 0
DWIDTH 17 0
BBX 16 23 4 -5
BITMAP
7FFF
C183
8182
0380
0380
0300
0300
0300
0700
0700
0600
0600
0600
0E00
0E00
0E00
1E00
7F80
0000
0700
0F80
1880
3040
ENDCHAR
STARTCHAR uni1E71
ENCODING 7793
SWIDTH 355 0
DWIDTH 9 0
BBX 10 22 1 -5
BITMAP
0200
0600
0E00
0E00
3FC0
0C00
0C00
1C00
1C00
1800
1800
1800
3800
3800
3800
3800
1E00
0000
1C00
3E00
6200
C100
ENDCHAR
STARTCHAR uni1E72
ENCODING 7794
SWIDTH 727 0
DWIDTH 18 0
BBX 18 21 4 -3
BITMAP
FE0FC0
380300
380200
300200
300200
700600
700400
700400
600400
600C00
E00800
E00800
E00800
C01800
E01000
603000
706000
1F8000
000000
18C000
18C000
ENDCHAR
STARTCHAR uni1E73
ENCODING 7795
SWIDTH 630 0
DWIDTH 16 0
BBX 13 16 3 -3
BITMAP
F8F8
3038
3030
3030
7030
7070
6070
60E0
6160
E360
E660
FCE0
70F8
0000
18C0
18C0
ENDCHAR
STARTCHAR uni1E74
ENCODING 7796
SWIDTH 727 0
DWIDTH 18 0
BBX 18 22 4 -4
BITMAP
FE0FC0
380300
380200
300200
300200
700600
700400
700400
600400
600C00
E00800
E00800
E00800
C01800
E01000
603000
706000
1F8000
000000
0E2000
0FC000
11C000
ENDCHAR
STARTCHAR uni1E75
ENCODING 7797
SWIDTH 630 0
DWIDTH 16 0
BBX 13 17 3 -4
BITMAP
F8F8
3038
3030
3030
7030
7070
6070
60E0
6160
E360
E660
FCE0
70F8
0000
1C40
1F80
2380
ENDCHAR
STARTCHAR uni1E76
ENCODING 7798
SWIDTH 727 0
DWIDTH 18 0
BBX 18 23 4 -5
BITMAP
FE0FC0
380300
380200
300200
300200
700600
700400
700400
600400
600C00
E00800
E00800
E00800
C01800
E01000
603000
706000
1F8000
000000
070000
0F8000
188000
304000
ENDCHAR
STARTCHAR uni1E77
ENCODING 7799
SWIDTH 630 0
DWIDTH 16 0
BBX 13 18 3 -5
BITMAP
F8F8
3038
3030
3030
7030
7070
6070
60E0
6160
E360
E660
FCE0
70F8
0000
0700
0F80
1880
3040
ENDCHAR
STARTCHAR uni1E78
ENCODING 7800
SWIDTH 727 0
DWIDTH 18 0
BBX 18 27 4 0
BITMAP
003800
006000
00C000
018000
000000
071000
07E000
08E000
000000
FE0FC0
380300
380200
300200
300200
700600
700400
700400
600400
600C00
E00800
E00800
E00800
C01800
E01000
603000
706000
1F8000
ENDCHAR
STARTCHAR uni1E79
ENCODING 7801
SWIDTH 630 0
DWIDTH 16 0
BBX 13 22 3 0
BITMAP
00E0
0180
0300
0600
0000
0E20
0FC0
11C0
0000
F8F8
3038
3030
3030
7030
7070
6070
60E0
6160
E360
E660
FCE0
70F8
ENDCHAR
STARTCHAR uni1E7A
ENCODING 7802
SWIDTH 727 0
DWIDTH 18 0
BBX 18 23 4 0
BITMAP
063000
063000
000000
07F000
000000
FE0FC0
380300
380200
300200
300200
700600
700400
700400
600400
600C00
E00800
E00800
E00800
C01800
E01000
603000
706000
1F8000
ENDCHAR
STARTCHAR uni1E7B
ENCODING 7803
SWIDTH 630 0
DWIDTH 16 0
BBX 13 18 3 0
BITMAP
18C0
18C0
0000
1FC0
0000
F8F8
3038
3030
3030
7030
7070
6070
60E0
6160
E360
E660
FCE0
70F8
ENDCHAR
STARTCHAR uni1E7C
ENCODING 7804
SWIDTH 656 0
DWIDTH 16 0
BBX 18 22 3 0
BITMAP
071000
07E000
08E000
000000
FE07C0
700100
300300
380200
380400
380400
180800
181800
1C1000
1C2000
1C6000
0C4000
0C8000
0C8000
0F0000
0F0000
060000
040000
ENDCHAR
STARTCHAR uni1E7D
ENCODING 7805
SWIDTH 558 0
DWIDTH 14 0
BBX 14 17 1 0
BITMAP
0E20
0FC0
11C0
0000
F81C
380C
180C
1C0C
0C18
0C10
0C20
0E40
0EC0
0F80
0700
0600
0400
ENDCHAR
STARTCHAR uni1E7E
ENCODING 7806
SWIDTH 656 0
DWIDTH 16 0
BBX 18 21 3 -3
BITMAP
FE07C0
700100
300300
380200
380400
380400
180800
181800
1C1000
1C2000
1C6000
0C4000
0C8000
0C8000
0F0000
0F0000
060000
040000
000000
038000
038000
ENDCHAR
STARTCHAR uni1E7F
ENCODING 7807
SWIDTH 558 0
DWIDTH 14 0
BBX 14 16 1 -3
BITMAP
F81C
380C
180C
1C0C
0C18
0C10
0C20
0E40
0EC0
0F80
0700
0600
0400
0000
0700
0700
ENDCHAR
STARTCHAR Wgrave
ENCODING 7808
SWIDTH 878 0
DWIDTH 22 0
BBX 23 23 3 0
BITMAP
00E000
006000
002000
001000
000000
FC183E
701808
303818
303810
305820
305820
309840
309840
311880
311880
3A1900
3A1900
3C1E00
3C1E00
381C00
381C00
301800
300800
ENDCHAR
STARTCHAR wgrave
ENCODING 7809
SWIDTH 805 0
DWIDTH 20 0
BBX 20 18 2 0
BITMAP
01C000
00C000
004000
002000
000000
F02070
383070
383060
187060
187840
1CB8C0
1C9980
0D1900
0F1A00
0E1E00
0C1C00
0C1800
081800
ENDCHAR
STARTCHAR Wacute
ENCODING 7810
SWIDTH 878 0
DWIDTH 22 0
BBX 23 23 3 0
BITMAP
000E00
001800
003000
006000
000000
FC183E
701808
303818
303810
305820
305820
309840
309840
311880
311880
3A1900
3A1900
3C1E00
3C1E00
381C00
381C00
301800
300800
ENDCHAR
STARTCHAR wacute
ENCODING 7811
SWIDTH 805 0
DWIDTH 20 0
BBX 20 18 2 0
BITMAP
001C00
003000
006000
00C000
000000
F02070
383070
383060
187060
187840
1CB8C0
1C9980
0D1900
0F1A00
0E1E00
0C1C00
0C1800
081800
ENDCHAR
STARTCHAR Wdieresis
ENCODING 7812
SWIDTH 878 0
DWIDTH 22 0
BBX 23 21 3 0
BITMAP
018C00
018C00
000000
FC183E
701808
303818
303810
305820
305820
309840
309840
311880
311880
3A1900
3A1900
3C1E00
3C1E00
381C00
381C00
301800
300800
ENDCHAR
STARTCHAR wdieresis
ENCODING 7813
SWIDTH 805 0
DWIDTH 20 0
BBX 20 16 2 0
BITMAP
018C00
018C00
000000
F02070
383070
383060
187060
187840
1CB8C0
1C9980
0D1900
0F1A00
0E1E00
0C1C00
0C1800
081800
ENDCHAR
STARTCHAR uni1E86
ENCODING 7814
SWIDTH 878 0
DWIDTH 22 0
BBX 23 21 3 0
BITMAP
007000
007000
000000
FC183E
701808
303818
303810
305820
305820
309840
309840
311880
311880
3A1900
3A1900
3C1E00
3C1E00
381C00
381C00
301800
300800
ENDCHAR
STARTCHAR uni1E87
ENCODING 7815
SWIDTH 805 0
DWIDTH 20 0
BBX 20 16 2 0
BITMAP
007000
007000
000000
F02070
383070
383060
187060
187840
1CB8C0
1C9980
0D1900
0F1A00
0E1E00
0C1C00
0C1800
081800
ENDCHAR
STARTCHAR uni1E88
ENCODING 7816
SWIDTH 878 0
DWIDTH 22 0
BBX 23 21 3 -3
BITMAP
FC183E
701808
303818
303810
305820
305820
309840
309840
311880
311880
3A1900
3A1900
3C1E00
3C1E00
381C00
381C00
301800
300800
000000
00E000
00E000
ENDCHAR
STARTCHAR uni1E89
ENCODING 7817
SWIDTH 805 0
DWIDTH 20 0
BBX 20 16 2 -3
BITMAP
F02070
383070
383060
187060
187840
1CB8C0
1C9980
0D1900
0F1A00
0E1E00
0C1C00
0C1800
081800
000000
00E000
00E000
ENDCHAR
STARTCHAR uni1E8A
ENCODING 7818
SWIDTH 624 0
DWIDTH 16 0
BBX 20 21 0 0
BITMAP
007000
007000
000000
0FE1F0
0380C0
038080
01C100
01C200
00C400
00E800
007000
007000
007000
00B800
013800
021C00
041C00
080C00
100E00
300F00
F83F80
ENDCHAR
STARTCHAR uni1E8B
ENCODING 7819
SWIDTH 510 0
DWIDTH 13 0
BBX 13 16 1 0
BITMAP
0380
0380
0000
7838
1C18
0C30
0E60
06C0
0700
0700
0F80
1180
21C0
60C0
C0E0
E078
ENDCHAR
STARTCHAR uni1E8C
ENCODING 7820
SWIDTH 624 0
DWIDTH 16 0
BBX 20 21 0 0
BITMAP
018C00
018C00
000000
0FE1F0
0380C0
038080
01C100
01C200
00C400
00E800
007000
007000
007000
00B800
013800
021C00
041C00
080C00
100E00
300F00
F83F80
ENDCHAR
STARTCHAR uni1E8D
ENCODING 7821
SWIDTH 510 0
DWIDTH 13 0
BBX 13 16 1 0
BITMAP
0C60
0C60
0000
7838
1C18
0C30
0E60
06C0
0700
0700
0F80
1180
21C0
60C0
C0E0
E078
ENDCHAR
STARTCHAR uni1E8E
ENCODING 7822
SWIDTH 663 0
DWIDTH 17 0
BBX 17 21 3 0
BITMAP
038000
038000
000000
FE0F80
780200
380400
380800
1C1000
1C3000
0E6000
0E4000
068000
070000
070000
060000
060000
0E0000
0E0000
0E0000
1E0000
7F8000
ENDCHAR
STARTCHAR uni1E8F
ENCODING 7823
SWIDTH 558 0
DWIDTH 14 0
BBX 16 21 0 -5
BITMAP
01C0
01C0
0000
7C0F
1C07
0E06
0606
060C
0608
0710
0730
0320
0340
0380
0300
0200
0600
0C00
1800
3000
F000
ENDCHAR
STARTCHAR uni1E90
ENCODING 7824
SWIDTH 633 0
DWIDTH 16 0
BBX 16 23 1 0
BITMAP
0070
00F8
0188
0304
0000
0FFF
0C06
080E
181C
0038
0070
0060
00E0
01C0
0380
0700
0600
0E00
1C00
3800
700C
6018
FFF8
ENDCHAR
STARTCHAR uni1E91
ENCODING 7825
SWIDTH 536 0
DWIDTH 13 0
BBX 13 18 1 0
BITMAP
01C0
03E0
0620
0C10
0000
1FF8
1030
3060
00C0
01C0
0380
0700
0E00
1C00
3800
3030
6020
FFE0
ENDCHAR
STARTCHAR uni1E92
ENCODING 7826
SWIDTH 633 0
DWIDTH 16 0
BBX 16 21 1 -3
BITMAP
0FFF
0C06
080E
181C
0038
0070
0060
00E0
01C0
0380
0700
0600
0E00
1C00
3800
700C
6018
FFF8
0000
0700
0700
ENDCHAR
STARTCHAR uni1E93
ENCODING 7827
SWIDTH 536 0
DWIDTH 13 0
BBX 13 16 1 -3
BITMAP
1FF8
1030
3060
00C0
01C0
0380
0700
0E00
1C00
3800
3030
6020
FFE0
0000
0E00
0E00
ENDCHAR
STARTCHAR uni1E94
ENCODING 7828
SWIDTH 633 0
DWIDTH 16 0
BBX 16 20 1 -2
BITMAP
0FFF
0C06
080E
181C
0038
0070
0060
00E0
01C0
0380
0700
0600
0E00
1C00
3800
700C
6018
FFF8
0000
1FC0
ENDCHAR
STARTCHAR uni1E95
ENCODING 7829
SWIDTH 536 0
DWIDTH 13 0
BBX 13 15 1 -2
BITMAP
1FF8
1030
3060
00C0
01C0
0380
0700
0E00
1C00
3800
3030
6020
FFE0
0000
3F80
ENDCHAR
STARTCHAR uni1E96
ENCODING 7830
SWIDTH 631 0
DWIDTH 16 0
BBX 13 20 3 -2
BITMAP
7C00
1C00
1C00
1800
1800
1870
39F8
3B38
3638
3430
3830
7030
7070
6070
6060
6060
E060
E0F8
0000
1FC0
ENDCHAR
STARTCHAR uni1E97
ENCODING 7831
SWIDTH 355 0
DWIDTH 9 0
BBX 8 20 3 0
BITMAP
C6
C6
00
08
18
38
38
FF
30
30
70
70
60
60
60
E0
E0
E0
E0
78
ENDCHAR
STARTCHAR uni1E98
ENCODING 7832
SWIDTH 805 0
DWIDTH 20 0
BBX 20 18 2 0
BITMAP
006000
009000
009000
006000
000000
F02070
383070
383060
187060
187840
1CB8C0
1C9980
0D1900
0F1A00
0E1E00
0C1C00
0C1800
081800
ENDCHAR
STARTCHAR uni1E99
ENCODING 7833
SWIDTH 558 0
DWIDTH 14 0
BBX 16 23 0 -5
BITMAP
00C0
0120
0120
00C0
0000
7C0F
1C07
0E06
0606
060C
0608
0710
0730
0320
0340
0380
0300
0200
0600
0C00
1800
3000
F000
ENDCHAR
STARTCHAR uni1EA0
ENCODING 7840
SWIDTH 747 0
DWIDTH 19 0
BBX 19 21 0 -3
BITMAP
000C00
000C00
001C00
003E00
002E00
004E00
00CE00
008600
010600
010700
020700
07FF00
040300
080300
100380
100380
200380
F80FE0
000000
007000
007000
ENDCHAR
STARTCHAR uni1EA1
ENCODING 7841
SWIDTH 608 0
DWIDTH 15 0
BBX 13 16 2 -3
BITMAP
03F8
0438
1830
1030
3030
6030
6070
E0E0
E160
E360
E660
FCE0
70F8
0000
0700
0700
ENDCHAR
STARTCHAR uni1EA4
ENCODING 7844
SWIDTH 747 0
DWIDTH 19 0
BBX 19 28 0 0
BITMAP
000700
000C00
001800
003000
000000
000700
000F80
001880
003040
000000
000C00
000C00
001C00
003E00
002E00
004E00
00CE00
008600
010600
010700
020700
07FF00
040300
080300
100380
100380
200380
F80FE0
ENDCHAR
STARTCHAR uni1EA5
ENCODING 7845
SWIDTH 608 0
DWIDTH 15 0
BBX 13 23 2 0
BITMAP
0070
00C0
0180
0300
0000
00E0
01F0
0310
0608
0000
03F8
0438
1830
1030
3030
6030
6070
E0E0
E160
E360
E660
FCE0
70F8
ENDCHAR
STARTCHAR uni1EA6
ENCODING 7846
SWIDTH 747 0
DWIDTH 19 0
BBX 19 28 0 0
BITMAP
003800
001800
000800
000400
000000
000700
000F80
001880
003040
000000
000C00
000C00
001C00
003E00
002E00
004E00
00CE00
008600
010600
010700
020700
07FF00
040300
080300
100380
100380
200380
F80FE0
ENDCHAR
STARTCHAR uni1EA7
ENCODING 7847
SWIDTH 608 0
DWIDTH 15 0
BBX 13 23 2 0
BITMAP
0380
0180
0080
0040
0000
00E0
01F0
0310
0608
0000
03F8
0438
1830
1030
3030
6030
6070
E0E0
E160
E360
E660
FCE0
70F8
ENDCHAR
STARTCHAR uni1EAA
ENCODING 7850
SWIDTH 747 0
DWIDTH 19 0
BBX 19 27 0 0
BITMAP
007100
007E00
008E00
000000
000700
000F80
001880
003040
000000
000C00
000C00
001C00
003E00
002E00
004E00
00CE00
008600
010600
010700
020700
07FF00
040300
080300
100380
100380
200380
F80FE0
ENDCHAR
STARTCHAR uni1EAB
ENCODING 7851
SWIDTH 608 0
DWIDTH 15 0
BBX 13 22 2 0
BITMAP
0710
07E0
08E0
0000
00E0
01F0
0310
0608
0000
03F8
0438
1830
1030
3030
6030
6070
E0E0
E160
E360
E660
FCE0
70F8
ENDCHAR
STARTCHAR uni1EAC
ENCODING 7852
SWIDTH 747 0
DWIDTH 19 0
BBX 19 26 0 -3
BITMAP
001C00
003E00
006200
00C100
000000
000C00
000C00
001C00
003E00
002E00
004E00
00CE00
008600
010600
010700
020700
07FF00
040300
080300
100380
100380
200380
F80FE0
000000
007000
007000
ENDCHAR
STARTCHAR uni1EAD
ENCODING 7853
SWIDTH 608 0
DWIDTH 15 0
BBX 13 21 2 -3
BITMAP
01C0
03E0
0620
0C10
0000
03F8
0438
1830
1030
3030
6030
6070
E0E0
E160
E360
E660
FCE0
70F8
0000
0700
0700
ENDCHAR
STARTCHAR uni1EAE
ENCODING 7854
SWIDTH 747 0
DWIDTH 19 0
BBX 19 28 0 0
BITMAP
000E00
001800
003000
006000
000000
008100
008200
00FC00
007800
000000
000C00
000C00
001C00
003E00
002E00
004E00
00CE00
008600
010600
010700
020700
07FF00
040300
080300
100380
100380
200380
F80FE0
ENDCHAR
STARTCHAR uni1EAF
ENCODING 7855
SWIDTH 608 0
DWIDTH 15 0
BBX 13 23 2 0
BITMAP
0070
00C0
0180
0300
0000
0408
0410
07E0
03C0
0000
03F8
0438
1830
1030
3030
6030
6070
E0E0
E160
E360
E660
FCE0
70F8
ENDCHAR
STARTCHAR uni1EB0
ENCODING 7856
SWIDTH 747 0
DWIDTH 19 0
BBX 19 28 0 0
BITMAP
00E000
006000
002000
001000
000000
008100
008200
00FC00
007800
000000
000C00
000C00
001C00
003E00
002E00
004E00
00CE00
008600
010600
010700
020700
07FF00
040300
080300
100380
100380
200380
F80FE0
ENDCHAR
STARTCHAR uni1EB1
ENCODING 7857
SWIDTH 608 0
DWIDTH 15 0
BBX 13 23 2 0
BITMAP
0700
0300
0100
0080
0000
0408
0410
07E0
03C0
0000
03F8
0438
1830
1030
3030
6030
6070
E0E0
E160
E360
E660
FCE0
70F8
ENDCHAR
STARTCHAR uni1EB4
ENCODING 7860
SWIDTH 747 0
DWIDTH 19 0
BBX 19 27 0 0
BITMAP
00E200
00FC00
011C00
000000
008100
008200
00FC00
007800
000000
000C00
000C00
001C00
003E00
002E00
004E00
00CE00
008600
010600
010700
020700
07FF00
040300
080300
100380
100380
200380
F80FE0
ENDCHAR
STARTCHAR uni1EB5
ENCODING 7861
SWIDTH 608 0
DWIDTH 15 0
BBX 13 22 2 0
BITMAP
0E20
0FC0
11C0
0000
0408
0410
07E0
03C0
0000
03F8
0438
1830
1030
3030
6030
6070
E0E0
E160
E360
E660
FCE0
70F8
ENDCHAR
STARTCHAR uni1EB6
ENCODING 7862
SWIDTH 747 0
DWIDTH 19 0
BBX 19 26 0 -3
BITMAP
008100
008200
00FC00
007800
000000
000C00
000C00
001C00
003E00
002E00
004E00
00CE00
008600
010600
010700
020700
07FF00
040300
080300
100380
100380
200380
F80FE0
000000
007000
007000
ENDCHAR
STARTCHAR uni1EB7
ENCODING 7863
SWIDTH 608 0
DWIDTH 15 0
BBX 13 21 2 -3
BITMAP
0408
0410
07E0
03C0
0000
03F8
0438
1830
1030
3030
6030
6070
E0E0
E160
E360
E660
FCE0
70F8
0000
0700
0700
ENDCHAR
STARTCHAR uni1EB8
ENCODING 7864
SWIDTH 569 0
DWIDTH 14 0
BBX 16 21 1 -3
BITMAP
1FFF
0703
0702
0700
0700
0600
0608
0E08
0FF8
0E18
0C10
0C00
1C00
1C00
1C00
180C
3808
FFF8
0000
0700
0700
ENDCHAR
STARTCHAR uni1EB9
ENCODING 7865
SWIDTH 518 0
DWIDTH 13 0
BBX 11 16 2 -3
BITMAP
07C0
08E0
10E0
30E0
60C0
61C0
E300
FC00
E000
E000
E060
71C0
3F00
0000
1C00
1C00
ENDCHAR
STARTCHAR uni1EBC
ENCODING 7868
SWIDTH 569 0
DWIDTH 14 0
BBX 16 22 1 0
BITMAP
0710
07E0
08E0
0000
1FFF
0703
0702
0700
0700
0600
0608
0E08
0FF8
0E18
0C10
0C00
1C00
1C00
1C00
180C
3808
FFF8
ENDCHAR
STARTCHAR uni1EBD
ENCODING 7869
SWIDTH 518 0
DWIDTH 13 0
BBX 11 17 2 0
BITMAP
0E20
0FC0
11C0
0000
07C0
08E0
10E0
30E0
60C0
61C0
E300
FC00
E000
E000
E060
71C0
3F00
ENDCHAR
STARTCHAR uni1EBE
ENCODING 7870
SWIDTH 569 0
DWIDTH 14 0
BBX 16 28 1 0
BITMAP
001C
0030
0060
00C0
0000
0038
007C
00C4
0182
0000
1FFF
0703
0702
0700
0700
0600
0608
0E08
0FF8
0E18
0C10
0C00
1C00
1C00
1C00
180C
3808
FFF8
ENDCHAR
STARTCHAR uni1EBF
ENCODING 7871
SWIDTH 518 0
DWIDTH 13 0
BBX 12 23 2 0
BITMAP
00E0
0180
0300
0600
0000
01C0
03E0
0620
0C10
0000
07C0
08E0
10E0
30E0
60C0
61C0
E300
FC00
E000
E000
E060
71C0
3F00
ENDCHAR
STARTCHAR uni1EC0
ENCODING 7872
SWIDTH 569 0
DWIDTH 14 0
BBX 16 28 1 0
BITMAP
01C0
00C0
0040
0020
0000
0038
007C
00C4
0182
0000
1FFF
0703
0702
0700
0700
0600
0608
0E08
0FF8
0E18
0C10
0C00
1C00
1C00
1C00
180C
3808
FFF8
ENDCHAR
STARTCHAR uni1EC1
ENCODING 7873
SWIDTH 518 0
DWIDTH 13 0
BBX 12 23 2 0
BITMAP
0700
0300
0100
0080
0000
01C0
03E0
0620
0C10
0000
07C0
08E0
10E0
30E0
60C0
61C0
E300
FC00
E000
E000
E060
71C0
3F00
ENDCHAR
STARTCHAR uni1EC4
ENCODING 7876
SWIDTH 569 0
DWIDTH 14 0
BBX 16 27 1 0
BITMAP
0388
03F0
0470
0000
0038
007C
00C4
0182
0000
1FFF
0703
0702
0700
0700
0600
0608
0E08
0FF8
0E18
0C10
0C00
1C00
1C00
1C00
180C
3808
FFF8
ENDCHAR
STARTCHAR uni1EC5
ENCODING 7877
SWIDTH 518 0
DWIDTH 13 0
BBX 12 22 2 0
BITMAP
0E20
0FC0
11C0
0000
01C0
03E0
0620
0C10
0000
07C0
08E0
10E0
30E0
60C0
61C0
E300
FC00
E000
E000
E060
71C0
3F00
ENDCHAR
STARTCHAR uni1EC6
ENCODING 7878
SWIDTH 569 0
DWIDTH 14 0
BBX 16 26 1 -3
BITMAP
00E0
01F0
0310
0608
0000
1FFF
0703
0702
0700
0700
0600
0608
0E08
0FF8
0E18
0C10
0C00
1C00
1C00
1C00
180C
3808
FFF8
0000
0700
0700
ENDCHAR
STARTCHAR uni1EC7
ENCODING 7879
SWIDTH 518 0
DWIDTH 13 0
BBX 11 21 2 -3
BITMAP
0380
07C0
0C40
1820
0000
07C0
08E0
10E0
30E0
60C0
61C0
E300
FC00
E000
E000
E060
71C0
3F00
0000
1C00
1C00
ENDCHAR
STARTCHAR uni1ECA
ENCODING 7882
SWIDTH 325 0
DWIDTH 8 0
BBX 11 21 0 -3
BITMAP
0FE0
0380
0300
0700
0700
0700
0600
0600
0E00
0E00
0C00
0C00
1C00
1C00
1C00
1800
3800
FE00
0000
1C00
1C00
ENDCHAR
STARTCHAR uni1ECB
ENCODING 7883
SWIDTH 289 0
DWIDTH 7 0
BBX 6 21 3 -3
BITMAP
1C
1C
00
00
00
F8
38
38
30
30
30
70
60
60
60
60
E0
F8
00
70
70
ENDCHAR
STARTCHAR uni1ECC
ENCODING 7884
SWIDTH 783 0
DWIDTH 20 0
BBX 18 21 3 -3
BITMAP
00FC00
030700
0E0380
1C0380
380180
3001C0
7001C0
6001C0
E00180
E00180
E00380
E00300
E00700
E00600
600C00
701800
387000
0FC000
000000
038000
038000
ENDCHAR
STARTCHAR uni1ECD
ENCODING 7885
SWIDTH 560 0
DWIDTH 14 0
BBX 12 16 2 -3
BITMAP
07C0
0C60
1870
3030
7030
6030
E070
E070
E060
E0E0
E0C0
F380
7E00
0000
0E00
0E00
ENDCHAR
STARTCHAR uni1ED0
ENCODING 7888
SWIDTH 783 0
DWIDTH 20 0
BBX 18 28 3 0
BITMAP
001C00
003000
006000
00C000
000000
003800
007C00
00C400
018200
000000
00FC00
030700
0E0380
1C0380
380180
3001C0
7001C0
6001C0
E00180
E00180
E00380
E00300
E00700
E00600
600C00
701800
387000
0FC000
ENDCHAR
STARTCHAR uni1ED1
ENCODING 7889
SWIDTH 560 0
DWIDTH 14 0
BBX 13 23 2 0
BITMAP
0070
00C0
0180
0300
0000
00E0
01F0
0310
0608
0000
07C0
0C60
1870
3030
7030
6030
E070
E070
E060
E0E0
E0C0
F380
7E00
ENDCHAR
STARTCHAR uni1ED2
ENCODING 7890
SWIDTH 783 0
DWIDTH 20 0
BBX 18 28 3 0
BITMAP
00E000
006000
002000
001000
000000
003800
007C00
00C400
018200
000000
00FC00
030700
0E0380
1C0380
380180
3001C0
7001C0
6001C0
E00180
E00180
E00380
E00300
E00700
E00600
600C00
701800
387000
0FC000
ENDCHAR
STARTCHAR uni1ED3
ENCODING 7891
SWIDTH 560 0
DWIDTH 14 0
BBX 13 23 2 0
BITMAP
0380
0180
0080
0040
0000
00E0
01F0
0310
0608
0000
07C0
0C60
1870
3030
7030
6030
E070
E070
E060
E0E0
E0C0
F380
7E00
ENDCHAR
STARTCHAR uni1ED6
ENCODING 7894
SWIDTH 783 0
DWIDTH 20 0
BBX 18 27 3 0
BITMAP
01C400
01F800
023800
000000
003800
007C00
00C400
018200
000000
00FC00
030700
0E0380
1C0380
380180
3001C0
7001C0
6001C0
E00180
E00180
E00380
E00300
E00700
E00600
600C00
701800
387000
0FC000
ENDCHAR
STARTCHAR uni1ED7
ENCODING 7895
SWIDTH 560 0
DWIDTH 14 0
BBX 13 22 2 0
BITMAP
0710
07E0
08E0
0000
00E0
01F0
0310
0608
0000
07C0
0C60
1870
3030
7030
6030
E070
E070
E060
E0E0
E0C0
F380
7E00
ENDCHAR
STARTCHAR uni1ED8
ENCODING 7896
SWIDTH 783 0
DWIDTH 20 0
BBX 18 26 3 -3
BITMAP
007000
00F800
018800
030400
000000
00FC00
030700
0E0380
1C0380
380180
3001C0
7001C0
6001C0
E00180
E00180
E00380
E00300
E00700
E00600
600C00
701800
387000
0FC000
000000
038000
038000
ENDCHAR
STARTCHAR uni1ED9
ENCODING 7897
SWIDTH 560 0
DWIDTH 14 0
BBX 12 21 2 -3
BITMAP
0380
07C0
0C40
1820
0000
07C0
0C60
1870
3030
7030
6030
E070
E070
E060
E0E0
E0C0
F380
7E00
0000
0E00
0E00
ENDCHAR
STARTCHAR uni1EDA
ENCODING 7898
SWIDTH 783 0
DWIDTH 20 0
BBX 20 23 3 0
BITMAP
000700
000C00
001800
003000
000000
00FC70
030770
0E03A0
1C03A0
3801E0
3001C0
7001C0
6001C0
E00180
E00180
E00380
E00300
E00700
E00600
600C00
701800
387000
0FC000
ENDCHAR
STARTCHAR uni1EDB
ENCODING 7899
SWIDTH 560 0
DWIDTH 14 0
BBX 15 18 2 0
BITMAP
0038
0060
00C0
0180
0000
07CE
0C6E
1874
3034
703C
6038
E070
E070
E060
E0E0
E0C0
F380
7E00
ENDCHAR
STARTCHAR uni1EDC
ENCODING 7900
SWIDTH 783 0
DWIDTH 20 0
BBX 20 23 3 0
BITMAP
007000
003000
001000
000800
000000
00FC70
030770
0E03A0
1C03A0
3801E0
3001C0
7001C0
6001C0
E00180
E00180
E00380
E00300
E00700
E00600
600C00
701800
387000
0FC000
ENDCHAR
STARTCHAR uni1EDD
ENCODING 7901
SWIDTH 560 0
DWIDTH 14 0
BBX 15 18 2 0
BITMAP
0380
0180
0080
0040
0000
07CE
0C6E
1874
3034
703C
6038
E070
E070
E060
E0E0
E0C0
F380
7E00
ENDCHAR
STARTCHAR uni1EE0
ENCODING 7904
SWIDTH 783 0
DWIDTH 20 0
BBX 20 22 3 0
BITMAP
00E200
00FC00
011C00
000000
00FC70
030770
0E03A0
1C03A0
3801E0
3001C0
7001C0
6001C0
E00180
E00180
E00380
E00300
E00700
E00600
600C00
701800
387000
0FC000
ENDCHAR
STARTCHAR uni1EE1
ENCODING 7905
SWIDTH 560 0
DWIDTH 14 0
BBX 15 17 2 0
BITMAP
0388
03F0
0470
0000
07CE
0C6E
1874
3034
703C
6038
E070
E070
E060
E0E0
E0C0
F380
7E00
ENDCHAR
STARTCHAR uni1EE2
ENCODING 7906
SWIDTH 783 0
DWIDTH 20 0
BBX 20 21 3 -3
BITMAP
00FC70
030770
0E03A0
1C03A0
3801E0
3001C0
7001C0
6001C0
E00180
E00180
E00380
E00300
E00700
E00600
600C00
701800
387000
0FC000
000000
038000
038000
ENDCHAR
STARTCHAR uni1EE3
ENCODING 7907
SWIDTH 560 0
DWIDTH 14 0
BBX 15 16 2 -3
BITMAP
07CE
0C6E
1874
3034
703C
6038
E070
E070
E060
E0E0
E0C0
F380
7E00
0000
0E00
0E00
ENDCHAR
STARTCHAR uni1EE4
ENCODING 7908
SWIDTH 727 0
DWIDTH 18 0
BBX 18 21 4 -3
BITMAP
FE0FC0
380300
380200
300200
300200
700600
700400
700400
600400
600C00
E00800
E00800
E00800
C01800
E01000
603000
706000
1F8000
000000
070000
070000
ENDCHAR
STARTCHAR uni1EE5
ENCODING 7909
SWIDTH 630 0
DWIDTH 16 0
BBX 13 16 3 -3
BITMAP
F8F8
3038
3030
3030
7030
7070
6070
60E0
6160
E360
E660
FCE0
70F8
0000
0700
0700
ENDCHAR
STARTCHAR uni1EE8
ENCODING 7912
SWIDTH 727 0
DWIDTH 18 0
BBX 20 23 4 0
BITMAP
001C00
003000
006000
00C000
000000
FE0FF0
380370
380220
300220
300260
7006C0
700400
700400
600400
600C00
E00800
E00800
E00800
C01800
E01000
603000
706000
1F8000
ENDCHAR
STARTCHAR uni1EE9
ENCODING 7913
SWIDTH 630 0
DWIDTH 16 0
BBX 16 18 3 0
BITMAP
0038
0060
00C0
0180
0000
F8FF
303F
3032
3032
7036
707C
6070
60E0
6160
E360
E660
FCE0
70F8
ENDCHAR
STARTCHAR uni1EEA
ENCODING 7914
SWIDTH 727 0
DWIDTH 18 0
BBX 20 23 4 0
BITMAP
00E000
006000
002000
001000
000000
FE0FF0
380370
380220
300220
300260
7006C0
700400
700400
600400
600C00
E00800
E00800
E00800
C01800
E01000
603000
706000
1F8000
ENDCHAR
STARTCHAR uni1EEB
ENCODING 7915
SWIDTH 630 0
DWIDTH 16 0
BBX 16 18 3 0
BITMAP
0380
0180
0080
0040
0000
F8FF
303F
3032
3032
7036
707C
6070
60E0
6160
E360
E660
FCE0
70F8
ENDCHAR
STARTCHAR uni1EEE
ENCODING 7918
SWIDTH 727 0
DWIDTH 18 0
BBX 20 22 4 0
BITMAP
01C400
01F800
023800
000000
FE0FF0
380370
380220
300220
300260
7006C0
700400
700400
600400
600C00
E00800
E00800
E00800
C01800
E01000
603000
706000
1F8000
ENDCHAR
STARTCHAR uni1EEF
ENCODING 7919
SWIDTH 630 0
DWIDTH 16 0
BBX 16 17 3 0
BITMAP
0710
07E0
08E0
0000
F8FF
303F
3032
3032
7036
707C
6070
60E0
6160
E360
E660
FCE0
70F8
ENDCHAR
STARTCHAR uni1EF0
ENCODING 7920
SWIDTH 727 0
DWIDTH 18 0
BBX 20 21 4 -3
BITMAP
FE0FF0
380370
380220
300220
300260
7006C0
700400
700400
600400
600C00
E00800
E00800
E00800
C01800
E01000
603000
706000
1F8000
000000
038000
038000
ENDCHAR
STARTCHAR uni1EF1
ENCODING 7921
SWIDTH 630 0
DWIDTH 16 0
BBX 16 16 3 -3
BITMAP
F8FF
303F
3032
3032
7036
707C
6070
60E0
6160
E360
E660
FCE0
70F8
0000
0700
0700
ENDCHAR
STARTCHAR Ygrave
ENCODING 7922
SWIDTH 663 0
DWIDTH 17 0
BBX 17 23 3 0
BITMAP
070000
030000
010000
008000
000000
FE0F80
780200
380400
380800
1C1000
1C3000
0E6000
0E4000
068000
070000
070000
060000
060000
0E0000
0E0000
0E0000
1E0000
7F8000
ENDCHAR
STARTCHAR ygrave
ENCODING 7923
SWIDTH 558 0
DWIDTH 14 0
BBX 16 23 0 -5
BITMAP
0380
0180
0080
0040
0000
7C0F
1C07
0E06
0606
060C
0608
0710
0730
0320
0340
0380
0300
0200
0600
0C00
1800
3000
F000
ENDCHAR
STARTCHAR uni1EF4
ENCODING 7924
SWIDTH 663 0
DWIDTH 17 0
BBX 17 21 3 -3
BITMAP
FE0F80
780200
380400
380800
1C1000
1C3000
0E6000
0E4000
068000
070000
070000
060000
060000
0E0000
0E0000
0E0000
1E0000
7F8000
000000
070000
070000
ENDCHAR
STARTCHAR uni1EF5
ENCODING 7925
SWIDTH 558 0
DWIDTH 14 0
BBX 16 21 0 -8
BITMAP
7C0F
1C07
0E06
0606
060C
0608
0710
0730
0320
0340
0380
0300
0200
0600
0C00
1800
3000
F000
0000
0E00
0E00
ENDCHAR
STARTCHAR uni1EF8
ENCODING 7928
SWIDTH 663 0
DWIDTH 17 0
BBX 17 22 3 0
BITMAP
0E2000
0FC000
11C000
000000
FE0F80
780200
380400
380800
1C1000
1C3000
0E6000
0E4000
068000
070000
070000
060000
060000
0E0000
0E0000
0E0000
1E0000
7F8000
ENDCHAR
STARTCHAR uni1EF9
ENCODING 7929
SWIDTH 558 0
DWIDTH 14 0
BBX 16 22 0 -5
BITMAP
0388
03F0
0470
0000
7C0F
1C07
0E06
0606
060C
0608
0710
0730
0320
0340
0380
0300
0200
0600
0C00
1800
3000
F000
ENDCHAR
STARTCHAR uni2000
ENCODING 8192
SWIDTH 500 0
DWIDTH 13 0
BBX 1 1 0 0
BITMAP
00
ENDCHAR
STARTCHAR uni2001
ENCODING 8193
SWIDTH 1000 0
DWIDTH 25 0
BBX 1 1 0 0
BITMAP
00
ENDCHAR
STARTCHAR uni2002
ENCODING 8194
SWIDTH 500 0
DWIDTH 13 0
BBX 1 1 0 0
BITMAP
00
ENDCHAR
STARTCHAR uni2003
ENCODING 8195
SWIDTH 1000 0
DWIDTH 25 0
BBX 1 1 0 0
BITMAP
00
ENDCHAR
STARTCHAR uni2004
ENCODING 8196
SWIDTH 333 0
DWIDTH 8 0
BBX 1 1 0 0
BITMAP
00
ENDCHAR
STARTCHAR uni2005
ENCODING 8197
SWIDTH 250 0
DWIDTH 6 0
BBX 1 1 0 0
BITMAP
00
ENDCHAR
STARTCHAR uni2006
ENCODING 8198
SWIDTH 167 0
DWIDTH 4 0
BBX 1 1 0 0
BITMAP
00
ENDCHAR
STARTCHAR uni2007
ENCODING 8199
SWIDTH 608 0
DWIDTH 15 0
BBX 1 1 0 0
BITMAP
00
ENDCHAR
STARTCHAR uni2008
ENCODING 8200
SWIDTH 265 0
DWIDTH 7 0
BBX 1 1 0 0
BITMAP
00
ENDCHAR
STARTCHAR uni2009
ENCODING 8201
SWIDTH 200 0
DWIDTH 5 0
BBX 1 1 0 0
BITMAP
00
ENDCHAR
STARTCHAR uni200A
ENCODING 8202
SWIDTH 100 0
DWIDTH 3 0
BBX 1 1 0 0
BITMAP
00
ENDCHAR
STARTCHAR uni200B
ENCODING 8203
SWIDTH 0 0
DWIDTH 0 0
BBX 1 1 0 0
BITMAP
00
ENDCHAR
STARTCHAR uni2010
ENCODING 8208
SWIDTH 313 0
DWIDTH 8 0
BBX 6 2 2 7
BITMAP
FC
FC
ENDCHAR
STARTCHAR uni2011
ENCODING 8209
SWIDTH 313 0
DWIDTH 8 0
BBX 6 2 2 7
BITMAP
FC
FC
ENDCHAR
STARTCHAR figuredash
ENCODING 8210
SWIDTH 500 0
DWIDTH 12 0
BBX 10 1 3 8
BITMAP
FFC0
ENDCHAR
STARTCHAR endash
ENCODING 8211
SWIDTH 500 0
DWIDTH 12 0
BBX 10 1 3 8
BITMAP
FFC0
ENDCHAR
STARTCHAR emdash
ENCODING 8212
SWIDTH 1000 0
DWIDTH 25 0
BBX 23 1 2 7
BITMAP
FFFFFE
ENDCHAR
STARTCHAR afii00208
ENCODING 8213
SWIDTH 1000 0
DWIDTH 25 0
BBX 23 1 2 7
BITMAP
FFFFFE
ENDCHAR
STARTCHAR quoteleft
ENCODING 8216
SWIDTH 265 0
DWIDTH 7 0
BBX 4 6 4 12
BITMAP
30
60
60
60
F0
E0
ENDCHAR
STARTCHAR quoteright
ENCODING 8217
SWIDTH 265 0
DWIDTH 7 0
BBX 4 6 4 12
BITMAP
70
70
20
20
60
C0
ENDCHAR
STARTCHAR quotesinglbase
ENCODING 8218
SWIDTH 265 0
DWIDTH 7 0
BBX 4 8 1 -5
BITMAP
70
70
70
20
20
60
60
C0
ENDCHAR
STARTCHAR quotereversed
ENCODING 8219
SWIDTH 265 0
DWIDTH 7 0
BBX 4 6 4 12
BITMAP
E0
E0
40
40
60
30
ENDCHAR
STARTCHAR quotedblleft
ENCODING 8220
SWIDTH 457 0
DWIDTH 11 0
BBX 9 6 4 12
BITMAP
3180
6300
6200
6600
F700
E700
ENDCHAR
STARTCHAR quotedblright
ENCODING 8221
SWIDTH 457 0
DWIDTH 11 0
BBX 9 6 4 12
BITMAP
7380
7780
3100
3300
6300
C600
ENDCHAR
STARTCHAR quotedblbase
ENCODING 8222
SWIDTH 457 0
DWIDTH 11 0
BBX 9 8 1 -5
BITMAP
7380
7380
7780
3300
3300
6300
6200
C600
ENDCHAR
STARTCHAR uni201F
ENCODING 8223
SWIDTH 457 0
DWIDTH 11 0
BBX 9 6 4 12
BITMAP
E700
F700
4600
6600
6300
3180
ENDCHAR
STARTCHAR dagger
ENCODING 8224
SWIDTH 608 0
DWIDTH 15 0
BBX 11 22 4 -4
BITMAP
0300
0300
0600
0600
0600
0600
E460
FFE0
0400
0C00
0C00
0C00
0800
0800
1800
1800
1800
1800
3000
3000
3000
7000
ENDCHAR
STARTCHAR daggerdbl
ENCODING 8225
SWIDTH 608 0
DWIDTH 15 0
BBX 13 22 3 -4
BITMAP
01C0
0180
0180
0180
0100
3138
7FF0
0300
0200
0200
0200
0200
0600
0400
FFE0
C4E0
0400
0C00
0C00
0C00
1C00
1800
ENDCHAR
STARTCHAR bullet
ENCODING 8226
SWIDTH 608 0
DWIDTH 15 0
BBX 8 8 5 3
BITMAP
3C
7E
FF
FF
FF
FF
7E
3C
ENDCHAR
STARTCHAR ellipsis
ENCODING 8230
SWIDTH 1000 0
DWIDTH 25 0
BBX 19 2 3 0
BITMAP
E0E060
E0E0E0
ENDCHAR
STARTCHAR perthousand
ENCODING 8240
SWIDTH 1065 0
DWIDTH 27 0
BBX 25 18 3 0
BITMAP
0E018000
19030000
31820000
21840000
61880000
61180000
63300000
32600000
1CC00000
019E0E00
01331100
02633180
04636180
0C636180
18636100
30626300
60662600
C03C3C00
ENDCHAR
STARTCHAR guilsinglleft
ENCODING 8249
SWIDTH 330 0
DWIDTH 8 0
BBX 7 11 2 1
BITMAP
02
04
08
30
60
E0
60
20
30
10
08
ENDCHAR
STARTCHAR guilsinglright
ENCODING 8250
SWIDTH 330 0
DWIDTH 8 0
BBX 7 11 2 1
BITMAP
20
10
18
0C
0C
0E
0C
18
20
40
80
ENDCHAR
STARTCHAR fraction
ENCODING 8260
SWIDTH 36 0
DWIDTH 2 0
BBX 19 18 -6 0
BITMAP
000060
0000C0
000180
000300
000600
000C00
001800
003000
006000
00C000
018000
030000
060000
0C0000
180000
300000
600000
C00000
ENDCHAR
STARTCHAR oneinferior
ENCODING 8321
SWIDTH 365 0
DWIDTH 9 0
BBX 6 11 -14 -6
BITMAP
3C
0C
08
08
08
18
18
10
10
30
FC
ENDCHAR
STARTCHAR twoinferior
ENCODING 8322
SWIDTH 365 0
DWIDTH 9 0
BBX 8 11 -14 -6
BITMAP
1E
23
23
03
02
04
18
20
40
40
FC
ENDCHAR
STARTCHAR threeinferior
ENCODING 8323
SWIDTH 365 0
DWIDTH 9 0
BBX 8 11 -14 -6
BITMAP
3E
22
23
02
06
38
04
06
86
8C
F8
ENDCHAR
STARTCHAR uni20A5
ENCODING 8357
SWIDTH 944 0
DWIDTH 24 0
BBX 21 22 3 -4
BITMAP
000060
0000C0
000080
000180
000300
F87270
39F7F8
3B3F38
363E38
3C3C30
383830
707830
707070
607070
60E060
61E060
E1E060
E3E0F8
060000
040000
0C0000
180000
ENDCHAR
STARTCHAR uni20A6
ENCODING 8358
SWIDTH 762 0
DWIDTH 19 0
BBX 22 18 1 0
BITMAP
1F00FC
070030
078020
078020
05C060
04C040
0FFFE0
0C7040
087040
083880
083880
1FFFC0
180C80
100E80
100700
100700
300300
FC0100
ENDCHAR
STARTCHAR uni20A9
ENCODING 8361
SWIDTH 878 0
DWIDTH 22 0
BBX 23 18 3 0
BITMAP
FC183E
701808
303818
303810
305820
305820
37FFF0
309840
311880
311880
3A1900
3FFFE0
3C1E00
3C1E00
381C00
381C00
301800
300800
ENDCHAR
STARTCHAR Euro
ENCODING 8364
SWIDTH 714 0
DWIDTH 18 0
BBX 22 18 -2 0
BITMAP
0007FC
001C1C
00700C
00E008
01C000
018000
7FFF00
038000
070000
070000
070000
FFFE00
070000
070000
030000
038000
01E060
007F80
ENDCHAR
STARTCHAR uni20AD
ENCODING 8365
SWIDTH 698 0
DWIDTH 17 0
BBX 19 18 1 0
BITMAP
1FE3E0
078180
070300
070600
070800
061000
066000
0EC000
FFFFE0
FFFFE0
0CE000
0CE000
1C7000
1C3800
1C1C00
181C00
380E00
FE3F80
ENDCHAR
STARTCHAR uni2103
ENCODING 8451
SWIDTH 977 0
DWIDTH 25 0
BBX 22 18 5 0
BITMAP
7007FC
901C1C
90700C
70E008
01C000
018000
038000
038000
070000
070000
070000
070000
070000
070000
030000
038000
01E060
007F80
ENDCHAR
STARTCHAR uni2109
ENCODING 8457
SWIDTH 814 0
DWIDTH 21 0
BBX 19 18 5 0
BITMAP
73FFE0
90E060
90E040
70E000
00E000
00C000
00C100
01C100
01FF00
01C300
018200
018000
038000
038000
038000
030000
078000
1FE000
ENDCHAR
STARTCHAR trademark
ENCODING 8482
SWIDTH 904 0
DWIDTH 23 0
BBX 22 10 3 8
BITMAP
FFBC3C
889C70
181E70
181EB0
1816B0
183760
102760
302660
302460
FCE070
ENDCHAR
STARTCHAR uni212A
ENCODING 8490
SWIDTH 698 0
DWIDTH 17 0
BBX 19 18 1 0
BITMAP
1FE3E0
078180
070300
070600
070800
061000
066000
0EC000
0F8000
0FC000
0CE000
0CE000
1C7000
1C3800
1C1C00
181C00
380E00
FE3F80
ENDCHAR
STARTCHAR uni212B
ENCODING 8491
SWIDTH 747 0
DWIDTH 19 0
BBX 19 23 0 0
BITMAP
000600
000900
000900
000600
000000
000C00
000C00
001C00
003E00
002E00
004E00
00CE00
008600
010600
010700
020700
07FF00
040300
080300
100380
100380
200380
F80FE0
ENDCHAR
STARTCHAR uni2132
ENCODING 8498
SWIDTH 551 0
DWIDTH 14 0
BBX 16 18 1 0
BITMAP
00FF
003C
0018
0038
0038
0038
0030
0830
1870
1FF0
1070
1060
0060
00E0
00E0
40E0
C0E0
FFF8
ENDCHAR
STARTCHAR minus
ENCODING 8722
SWIDTH 608 0
DWIDTH 15 0
BBX 15 1 2 7
BITMAP
FFFE
ENDCHAR
STARTCHAR fraction
ENCODING 8725
SWIDTH 36 0
DWIDTH 2 0
BBX 19 18 -6 0
BITMAP
000060
0000C0
000180
000300
000600
000C00
001800
003000
006000
00C000
018000
030000
060000
0C0000
180000
300000
600000
C00000
ENDCHAR
STARTCHAR periodcentered
ENCODING 8729
SWIDTH 608 0
DWIDTH 15 0
BBX 3 3 8 6
BITMAP
E0
E0
E0
ENDCHAR
STARTCHAR uni2236
ENCODING 8758
SWIDTH 265 0
DWIDTH 7 0
BBX 6 13 2 0
BITMAP
1C
3C
38
00
00
00
00
00
00
00
70
F0
E0
ENDCHAR
STARTCHAR uni2259
ENCODING 8793
SWIDTH 608 0
DWIDTH 15 0
BBX 16 11 1 4
BITMAP
01C0
03E0
0620
0C10
0000
7FFF
0000
0000
0000
0000
FFFE
ENDCHAR
STARTCHAR uni225A
ENCODING 8794
SWIDTH 608 0
DWIDTH 15 0
BBX 16 11 1 4
BITMAP
0830
0460
07C0
0380
0000
7FFF
0000
0000
0000
0000
FFFE
ENDCHAR
STARTCHAR notequal
ENCODING 8800
SWIDTH 608 0
DWIDTH 15 0
BBX 16 22 1 -4
BITMAP
0003
0006
0004
000C
0018
0010
0030
0060
7FFF
00C0
0080
0100
0300
FFFE
0600
0C00
0800
1800
3000
2000
6000
C000
ENDCHAR
STARTCHAR equivalence
ENCODING 8801
SWIDTH 608 0
DWIDTH 15 0
BBX 16 8 0 3
BITMAP
FFFF
FFFF
0000
FFFF
FFFF
0000
FFFF
FFFF
ENDCHAR
STARTCHAR uni2262
ENCODING 8802
SWIDTH 608 0
DWIDTH 15 0
BBX 16 22 0 -4
BITMAP
0003
0006
0004
000C
0018
0010
0030
FFFF
FFFF
00C0
FFFF
FFFF
0300
FFFF
FFFF
0C00
0800
1800
3000
2000
6000
C000
ENDCHAR
STARTCHAR lessequal
ENCODING 8804
SWIDTH 608 0
DWIDTH 15 0
BBX 16 18 2 -3
BITMAP
0001
0007
001C
0060
0380
0E00
3800
E000
3800
0C00
0700
01C0
0070
0018
0008
0000
FFFF
FFFF
ENDCHAR
STARTCHAR greaterequal
ENCODING 8805
SWIDTH 608 0
DWIDTH 15 0
BBX 16 18 0 -3
BITMAP
1000
1800
0E00
0380
00E0
0030
001C
0007
001C
0070
01C0
0600
1800
E000
8000
0000
FFFF
FFFF
ENDCHAR
STARTCHAR uni226E
ENCODING 8814
SWIDTH 608 0
DWIDTH 15 0
BBX 16 22 2 -3
BITMAP
0003
0006
0004
000C
0019
0017
003C
0060
03C0
0EC0
3880
E100
3B00
0E00
0700
0DC0
0870
1818
3008
2000
6000
C000
ENDCHAR
STARTCHAR uni226F
ENCODING 8815
SWIDTH 608 0
DWIDTH 15 0
BBX 16 22 0 -3
BITMAP
0003
0006
0004
000C
1018
1810
0E30
03E0
00E0
00F0
009C
0107
031C
0270
07C0
0E00
1800
F800
B000
2000
6000
C000
ENDCHAR
STARTCHAR uni2270
ENCODING 8816
SWIDTH 608 0
DWIDTH 15 0
BBX 16 22 2 -5
BITMAP
0003
0006
0005
000F
001C
0070
03B0
0E60
3840
E0C0
3880
0D00
0700
03C0
0670
0C18
0808
1800
FFFF
FFFF
6000
C000
ENDCHAR
STARTCHAR uni2271
ENCODING 8817
SWIDTH 608 0
DWIDTH 15 0
BBX 16 22 0 -5
BITMAP
0003
0006
1004
180C
0E18
0390
00F0
0070
005C
00C7
009C
0170
03C0
0600
1E00
EC00
8800
1800
FFFF
FFFF
6000
C000
ENDCHAR
STARTCHAR fi
ENCODING -1
SWIDTH 633 0
DWIDTH 16 0
BBX 15 24 2 -5
BITMAP
01E0
062E
062E
0C60
0C00
0C00
3FFC
1C1C
181C
1818
1818
3818
3838
3030
3030
3030
7030
7070
707C
6000
6000
E000
E000
E000
ENDCHAR
STARTCHAR fl
ENCODING -1
SWIDTH 645 0
DWIDTH 16 0
BBX 16 24 2 -5
BITMAP
00FF
030F
0606
0606
0C06
0C0E
3FCE
1C0C
1C0C
180C
181C
181C
3818
3818
3018
3038
3038
7038
703E
6000
6000
6000
E000
E000
ENDCHAR
ENDFONT
